<svg width="961" height="688" viewBox="0 0 961 688" fill="none" xmlns="http://www.w3.org/2000/svg">
<g filter="url(#filter0_d)">
<path d="M50.243 295.208C50.413 294.96 50.637 294.759 50.9 294.612L175.555 224.824C177.141 223.936 179.022 225.46 178.503 227.202C176.795 232.938 174.096 242.604 173 249.836C171.658 258.689 171.511 271.86 171.499 276.025C171.497 276.825 171.024 277.543 170.29 277.863L39.061 335.003C37.675 335.606 36.165 334.519 36.337 333.018C36.924 327.889 38.334 317.94 41 311.336C43.459 305.245 48.987 297.039 50.243 295.208Z" fill="url(#paint0_linear)"/>
<path d="M39.46 335.92L170.689 278.78C171.786 278.302 172.496 277.226 172.499 276.027C172.511 271.855 172.66 258.755 173.989 249.986C175.073 242.83 177.753 233.224 179.462 227.488C180.232 224.9 177.45 222.617 175.066 223.952L50.411 293.74C50.019 293.959 49.679 294.262 49.418 294.642C48.172 296.46 42.579 304.753 40.073 310.962C37.35 317.707 35.929 327.782 35.343 332.904C35.081 335.195 37.391 336.821 39.46 335.92Z" stroke="white" stroke-width="2"/>
<path d="M39.46 335.92L170.689 278.78C171.786 278.302 172.496 277.226 172.499 276.027C172.511 271.855 172.66 258.755 173.989 249.986C175.073 242.83 177.753 233.224 179.462 227.488C180.232 224.9 177.45 222.617 175.066 223.952L50.411 293.74C50.019 293.959 49.679 294.262 49.418 294.642C48.172 296.46 42.579 304.753 40.073 310.962C37.35 317.707 35.929 327.782 35.343 332.904C35.081 335.195 37.391 336.821 39.46 335.92Z" stroke="url(#paint1_linear)" stroke-width="2"/>
</g>
<g filter="url(#filter1_d)">
<path d="M-49.556 377.022C-49.522 376.291 -49.09 375.637 -48.431 375.318L158.23 275.113C159.946 274.281 161.789 276.097 160.983 277.825C156.011 288.482 145.141 313.11 142 331.058C138.491 351.109 138.835 382.354 138.968 389.546C138.985 390.447 138.403 391.239 137.541 391.5L-50.286 448.512C-51.609 448.914 -52.931 447.884 -52.865 446.503L-49.556 377.022Z" fill="url(#paint2_linear)"/>
<path d="M157.794 274.213L-48.868 374.418C-49.856 374.897 -50.503 375.878 -50.555 376.975L-53.864 446.456C-53.963 448.527 -51.98 450.071 -49.996 449.469L137.832 392.457C139.117 392.067 139.993 390.88 139.968 389.528C139.835 382.32 139.496 351.171 142.985 331.23C146.1 313.431 156.912 288.917 161.889 278.248C163.093 275.667 160.357 272.97 157.794 274.213Z" stroke="white" stroke-width="2"/>
<path d="M157.794 274.213L-48.868 374.418C-49.856 374.897 -50.503 375.878 -50.555 376.975L-53.864 446.456C-53.963 448.527 -51.98 450.071 -49.996 449.469L137.832 392.457C139.117 392.067 139.993 390.88 139.968 389.528C139.835 382.32 139.496 351.171 142.985 331.23C146.1 313.431 156.912 288.917 161.889 278.248C163.093 275.667 160.357 272.97 157.794 274.213Z" stroke="url(#paint3_linear)" stroke-width="2"/>
</g>
<g filter="url(#filter2_d)">
<path d="M191.416 200.815C190.644 200.24 191.051 199.014 192.014 199.014H231C231.552 199.014 232 199.461 232 200.014V224.014C232 224.566 231.552 225.014 231 225.014H192.014C191.051 225.014 190.644 223.787 191.416 223.212L205.357 212.815C205.894 212.415 205.894 211.612 205.357 211.212L191.416 200.815Z" fill="#FBB971"/>
<path d="M231 198.014H192.014C190.089 198.014 189.275 200.466 190.818 201.617L204.76 212.014L190.818 222.41C189.275 223.561 190.089 226.014 192.014 226.014H231C232.105 226.014 233 225.118 233 224.014V200.014C233 198.909 232.105 198.014 231 198.014Z" stroke="#F99F3D" stroke-width="2"/>
<path d="M231 198.014H192.014C190.089 198.014 189.275 200.466 190.818 201.617L204.76 212.014L190.818 222.41C189.275 223.561 190.089 226.014 192.014 226.014H231C232.105 226.014 233 225.118 233 224.014V200.014C233 198.909 232.105 198.014 231 198.014Z" stroke="url(#paint4_linear)" stroke-width="2"/>
</g>
<g filter="url(#filter3_d)">
<path d="M176.865 227.034C177.53 224.958 179.482 223.59 181.66 223.65C194.139 223.991 235.86 225.328 264 228.557C290.579 231.607 329.311 239.132 340.722 241.4C342.708 241.794 344.25 243.354 344.633 245.342L352.592 286.648C353.215 289.88 350.6 292.821 347.318 292.581L173.589 279.891C170.998 279.702 168.988 277.566 169.015 274.969C169.076 269.117 169.357 258.879 170.507 251.557C171.772 243.512 175.098 232.552 176.865 227.034Z" fill="url(#paint5_linear)"/>
<path d="M173.516 280.889L347.246 293.579C351.184 293.866 354.321 290.337 353.574 286.459L345.615 245.153C345.155 242.768 343.304 240.893 340.917 240.419C329.51 238.152 290.739 230.619 264.114 227.564C235.924 224.328 194.162 222.992 181.688 222.65C179.069 222.579 176.715 224.225 175.913 226.729C174.147 232.244 170.797 243.271 169.519 251.401C168.356 258.803 168.076 269.107 168.016 274.958C167.983 278.097 170.412 280.662 173.516 280.889Z" stroke="white" stroke-width="2"/>
<path d="M173.516 280.889L347.246 293.579C351.184 293.866 354.321 290.337 353.574 286.459L345.615 245.153C345.155 242.768 343.304 240.893 340.917 240.419C329.51 238.152 290.739 230.619 264.114 227.564C235.924 224.328 194.162 222.992 181.688 222.65C179.069 222.579 176.715 224.225 175.913 226.729C174.147 232.244 170.797 243.271 169.519 251.401C168.356 258.803 168.076 269.107 168.016 274.958C167.983 278.097 170.412 280.662 173.516 280.889Z" stroke="url(#paint6_linear)" stroke-width="2"/>
</g>
<g filter="url(#filter4_d)">
<path d="M484.853 298.829C484.28 297.021 482.794 295.717 480.919 295.433C464.874 293.005 387.608 281.644 324.422 278.17C266.659 274.995 179.834 273.903 161.876 273.705C159.833 273.682 158.049 274.907 157.307 276.81C153.937 285.454 144.638 310.463 140.556 333.17C137.497 350.181 137.261 374.215 137.336 385.233C137.357 388.336 140.204 390.61 143.246 389.998L358.331 346.689C358.391 346.676 358.448 346.666 358.509 346.656C360.225 346.378 386.987 342.061 417.922 338.67C443.296 335.889 475.67 333.041 488.89 331.905C492.023 331.636 494.114 328.593 493.201 325.584C490.664 317.226 486.654 304.52 484.853 298.829Z" fill="url(#paint7_linear)"/>
<path d="M358.529 347.669L143.444 390.978C139.797 391.712 136.361 388.983 136.336 385.24C136.261 374.225 136.495 350.106 139.571 332.993C143.672 310.185 153.002 285.099 156.375 276.447C157.266 274.162 159.421 272.678 161.887 272.705C179.842 272.903 266.689 273.995 324.476 277.172C387.715 280.648 465.023 292.016 481.069 294.444C483.332 294.787 485.122 296.367 485.806 298.527C487.608 304.218 491.619 316.929 494.158 325.293C495.258 328.92 492.732 332.578 488.976 332.901C475.756 334.037 443.393 336.885 418.03 339.664C387.121 343.052 360.379 347.366 358.669 347.643C358.622 347.651 358.578 347.659 358.529 347.669Z" stroke="white" stroke-width="2"/>
<path d="M358.529 347.669L143.444 390.978C139.797 391.712 136.361 388.983 136.336 385.24C136.261 374.225 136.495 350.106 139.571 332.993C143.672 310.185 153.002 285.099 156.375 276.447C157.266 274.162 159.421 272.678 161.887 272.705C179.842 272.903 266.689 273.995 324.476 277.172C387.715 280.648 465.023 292.016 481.069 294.444C483.332 294.787 485.122 296.367 485.806 298.527C487.608 304.218 491.619 316.929 494.158 325.293C495.258 328.92 492.732 332.578 488.976 332.901C475.756 334.037 443.393 336.885 418.03 339.664C387.121 343.052 360.379 347.366 358.669 347.643C358.622 347.651 358.578 347.659 358.529 347.669Z" stroke="url(#paint8_linear)" stroke-width="2"/>
</g>
<path d="M386.811 225.795C387.66 226.066 388.227 226.867 388.201 227.758L386.421 288.61C386.382 289.94 385.079 290.862 383.812 290.456L381.648 289.764C381.011 289.56 380.518 289.051 380.334 288.408L366.605 240.365C366.396 239.633 366.621 238.845 367.185 238.334L381.676 225.199C382.205 224.72 382.949 224.559 383.629 224.776L386.811 225.795Z" fill="#72D77C"/>
<path d="M385.633 228.65C386.758 227.579 388.621 228.144 388.963 229.659L399.062 274.505C399.197 275.105 399.049 275.734 398.659 276.21L388.768 288.302C387.745 289.553 385.738 289.137 385.296 287.582L372.518 242.612C372.315 241.897 372.525 241.129 373.063 240.616L385.633 228.65Z" fill="#48B452"/>
<path d="M403.016 231.744C403.741 232.263 404.035 233.198 403.737 234.039L383.4 291.419C382.955 292.673 381.433 293.152 380.351 292.377L378.503 291.055C377.959 290.666 377.646 290.031 377.668 289.363L379.318 239.424C379.343 238.662 379.798 237.982 380.492 237.668L398.31 229.604C398.96 229.31 399.718 229.384 400.298 229.8L403.016 231.744Z" fill="#72D77C"/>
<path d="M401.019 234.1C402.418 233.425 404.019 234.533 403.88 236.081L399.755 281.864C399.7 282.476 399.365 283.03 398.849 283.364L385.729 291.844C384.372 292.721 382.589 291.71 382.644 290.095L384.258 243.372C384.283 242.63 384.718 241.962 385.387 241.64L401.019 234.1Z" fill="#48B452"/>
<path d="M370.121 265.342C369.959 264.466 370.397 263.587 371.194 263.189L425.652 235.978C426.842 235.384 428.271 236.095 428.513 237.404L428.926 239.638C429.048 240.296 428.833 240.97 428.353 241.436L392.516 276.254C391.969 276.785 391.169 276.959 390.451 276.704L372.025 270.148C371.353 269.909 370.859 269.33 370.729 268.628L370.121 265.342Z" fill="#48B452"/>
<path d="M373.195 265.031C371.719 264.546 371.335 262.637 372.509 261.62L407.245 231.512C407.71 231.109 408.335 230.942 408.939 231.06L424.27 234.057C425.856 234.367 426.439 236.332 425.278 237.456L391.698 269.983C391.165 270.5 390.389 270.679 389.683 270.447L373.195 265.031Z" fill="#72D77C"/>
<path d="M417.209 261.905L373.756 257.694C371.419 257.468 369.067 257.981 367.072 259.283C362.883 262.016 354.58 267.751 346.498 275.188C338.439 282.603 330.489 291.809 327.149 301.5C318.908 325.415 319.573 341.727 321.176 350.481C322.109 355.578 327.052 358.103 331.897 357.232C346.565 354.593 379.429 348.864 400.341 346.607C419.335 344.556 443.679 342.25 455.006 341.193C459.219 340.8 463.067 338.015 463.977 333.709C466.905 319.862 461.433 309.687 453.232 294.437C452.622 293.304 451.998 292.144 451.361 290.951C448.358 285.329 442.442 279.457 436.631 274.546C430.795 269.613 424.957 265.561 422.002 263.588C420.559 262.624 418.914 262.07 417.209 261.905Z" fill="#FBB971"/>
<path d="M417.209 261.905L373.756 257.694C371.419 257.468 369.067 257.981 367.072 259.283C362.883 262.016 354.58 267.751 346.498 275.188C338.439 282.603 330.489 291.809 327.149 301.5C318.908 325.415 319.573 341.727 321.176 350.481C322.109 355.578 327.052 358.103 331.897 357.232C346.565 354.593 379.429 348.864 400.341 346.607C419.335 344.556 443.679 342.25 455.006 341.193C459.219 340.8 463.067 338.015 463.977 333.709C466.905 319.862 461.433 309.687 453.232 294.437C452.622 293.304 451.998 292.144 451.361 290.951C448.358 285.329 442.442 279.457 436.631 274.546C430.795 269.613 424.957 265.561 422.002 263.588C420.559 262.624 418.914 262.07 417.209 261.905Z" stroke="#F99F3D" stroke-width="2"/>
<path d="M417.209 261.905L373.756 257.694C371.419 257.468 369.067 257.981 367.072 259.283C362.883 262.016 354.58 267.751 346.498 275.188C338.439 282.603 330.489 291.809 327.149 301.5C318.908 325.415 319.573 341.727 321.176 350.481C322.109 355.578 327.052 358.103 331.897 357.232C346.565 354.593 379.429 348.864 400.341 346.607C419.335 344.556 443.679 342.25 455.006 341.193C459.219 340.8 463.067 338.015 463.977 333.709C466.905 319.862 461.433 309.687 453.232 294.437C452.622 293.304 451.998 292.144 451.361 290.951C448.358 285.329 442.442 279.457 436.631 274.546C430.795 269.613 424.957 265.561 422.002 263.588C420.559 262.624 418.914 262.07 417.209 261.905Z" stroke="url(#paint9_linear)" stroke-width="2"/>
<path d="M427.493 261.365L428.152 260.296C431.576 254.746 429.448 247.362 423.231 245.04C418.445 243.252 412.8 241.478 408.52 241.177C403.344 240.813 398.902 241.681 394.632 242.515C394.426 242.555 394.221 242.595 394.017 242.634C389.538 243.506 385.201 244.278 380.126 243.655C377.278 243.306 372.821 243.347 368.749 243.498C362.846 243.715 358.928 249.476 360.585 255.081C362.068 260.101 367.378 262.809 372.376 262.099C376.167 261.561 380.711 261.341 384.888 262.236C391.926 263.745 408.162 265.569 417.067 266.51C421.251 266.951 425.29 264.938 427.493 261.365Z" fill="#FBB971"/>
<path d="M427.493 261.365L428.152 260.296C431.576 254.746 429.448 247.362 423.231 245.04C418.445 243.252 412.8 241.478 408.52 241.177C403.344 240.813 398.902 241.681 394.632 242.515C394.426 242.555 394.221 242.595 394.017 242.634C389.538 243.506 385.201 244.278 380.126 243.655C377.278 243.306 372.821 243.347 368.749 243.498C362.846 243.715 358.928 249.476 360.585 255.081C362.068 260.101 367.378 262.809 372.376 262.099C376.167 261.561 380.711 261.341 384.888 262.236C391.926 263.745 408.162 265.569 417.067 266.51C421.251 266.951 425.29 264.938 427.493 261.365Z" stroke="#F99F3D" stroke-width="2"/>
<path d="M427.493 261.365L428.152 260.296C431.576 254.746 429.448 247.362 423.231 245.04C418.445 243.252 412.8 241.478 408.52 241.177C403.344 240.813 398.902 241.681 394.632 242.515C394.426 242.555 394.221 242.595 394.017 242.634C389.538 243.506 385.201 244.278 380.126 243.655C377.278 243.306 372.821 243.347 368.749 243.498C362.846 243.715 358.928 249.476 360.585 255.081C362.068 260.101 367.378 262.809 372.376 262.099C376.167 261.561 380.711 261.341 384.888 262.236C391.926 263.745 408.162 265.569 417.067 266.51C421.251 266.951 425.29 264.938 427.493 261.365Z" stroke="url(#paint10_linear)" stroke-width="2"/>
<g filter="url(#filter5_d)">
<path d="M661.787 357.969C663.402 340.63 649.268 326.377 631.868 327.083C577.574 329.287 469.053 334.132 422.5 339.336C195.942 364.666 -42.473 441.966 -92.121 458.643C-98.327 460.728 -103.46 464.789 -107.081 470.244L-135.994 513.795C-139.259 518.713 -141 524.485 -141 530.387V551.728C-141 568.532 -127.231 582.05 -110.432 581.635C-63.5 580.477 27.338 577.896 89 574.014C185.882 567.915 200.5 534.742 297.5 542.014C351.061 546.03 419.89 566.046 473.5 569.336C499.716 570.945 540.092 570.287 561.681 569.758C571.038 569.529 579.676 564.858 584.824 557.041C600.132 533.8 632.632 481.388 648.5 432.836C655.71 410.776 659.677 380.638 661.787 357.969Z" fill="url(#paint11_linear)"/>
<path d="M422.389 338.343C468.985 333.133 577.549 328.287 631.827 326.084C649.803 325.354 664.456 340.092 662.783 358.061C660.672 380.74 656.697 410.973 649.451 433.147C633.538 481.835 600.973 534.342 585.659 557.591C580.326 565.689 571.381 570.52 561.705 570.758C540.121 571.287 499.704 571.946 473.439 570.334C446.557 568.684 415.88 562.844 385.292 556.929C384.463 556.769 383.634 556.609 382.806 556.448C353.019 550.687 323.412 544.96 297.425 543.011C249.078 539.387 221.298 545.836 193.486 553.96C190.287 554.894 187.087 555.851 183.854 556.818C158.921 564.273 132.059 572.305 89.063 575.012C27.379 578.896 -63.476 581.476 -110.408 582.635C-127.772 583.064 -142 569.09 -142 551.728V530.387C-142 524.288 -140.201 518.324 -136.827 513.242L-107.914 469.691C-104.176 464.06 -98.866 459.854 -92.439 457.695C-42.78 441.014 195.719 363.685 422.389 338.343Z" stroke="white" stroke-width="2"/>
<path d="M422.389 338.343C468.985 333.133 577.549 328.287 631.827 326.084C649.803 325.354 664.456 340.092 662.783 358.061C660.672 380.74 656.697 410.973 649.451 433.147C633.538 481.835 600.973 534.342 585.659 557.591C580.326 565.689 571.381 570.52 561.705 570.758C540.121 571.287 499.704 571.946 473.439 570.334C446.557 568.684 415.88 562.844 385.292 556.929C384.463 556.769 383.634 556.609 382.806 556.448C353.019 550.687 323.412 544.96 297.425 543.011C249.078 539.387 221.298 545.836 193.486 553.96C190.287 554.894 187.087 555.851 183.854 556.818C158.921 564.273 132.059 572.305 89.063 575.012C27.379 578.896 -63.476 581.476 -110.408 582.635C-127.772 583.064 -142 569.09 -142 551.728V530.387C-142 524.288 -140.201 518.324 -136.827 513.242L-107.914 469.691C-104.176 464.06 -98.866 459.854 -92.439 457.695C-42.78 441.014 195.719 363.685 422.389 338.343Z" stroke="url(#paint12_linear)" stroke-width="2"/>
</g>
<path d="M719.266 118.607L738.658 116.651C739.816 116.586 740.751 117.024 741.337 117.72C741.924 118.418 742.188 119.408 741.932 120.506L738.285 134.486C737.987 135.392 737.279 136.316 736.33 136.659L736.325 136.661C732.59 138.059 725.287 140.476 717.2 142.47C709.326 144.412 700.754 145.943 694.019 145.766L696.659 129.729L718.064 106.922C718.635 106.407 719.211 106.125 719.795 106.037C720.384 105.948 721.024 106.051 721.729 106.382C722.981 106.969 723.497 108.716 722.871 110.064L718.773 117.877L718.341 118.7L719.266 118.607Z" fill="white" stroke="#2F3537"/>
<path d="M650.702 208.905L660.815 194.077L668.437 200.546L668.945 200.977L669.217 200.368L696.016 140.388L714.61 143.249C714.555 143.492 714.481 143.817 714.387 144.218C714.163 145.184 713.831 146.591 713.397 148.354C712.529 151.879 711.258 156.826 709.642 162.509C706.409 173.882 701.804 188.184 696.308 199.953C695.835 200.964 695.353 202.006 694.86 203.069C691.678 209.936 688.083 217.696 684.205 223.914C681.967 227.505 679.653 230.548 677.296 232.602C674.937 234.658 672.6 235.668 670.285 235.341C665.342 234.644 658.813 231.703 653.476 228.9C650.817 227.504 648.471 226.152 646.79 225.149C645.949 224.648 645.275 224.234 644.812 223.945C644.673 223.859 644.552 223.783 644.452 223.72L650.702 208.905Z" fill="white" stroke="#2F3537"/>
<g filter="url(#filter6_d)">
<path d="M611.686 479.668C612.723 473.676 618.867 470.074 624.63 472.018L631.1 474.201C635.378 475.645 637.624 480.333 636.067 484.572C634.506 488.821 636.757 493.569 640.804 495.598C646.75 498.579 654.813 503.626 659.716 510.836C660.478 511.957 660.753 513.345 660.744 514.783C660.71 519.871 654.814 521.97 650.058 520.163L613.451 506.252C610.303 505.056 608.306 502.317 608.7 498.973C609.306 493.828 610.576 486.084 611.686 479.668Z" fill="#FBB971"/>
<path d="M631.419 473.254L624.95 471.071C618.614 468.933 611.844 472.892 610.701 479.498C609.591 485.912 608.317 493.681 607.707 498.856C607.25 502.732 609.597 505.857 613.095 507.187L649.703 521.098C652.313 522.089 655.252 522.022 657.583 520.97C659.947 519.904 661.724 517.791 661.744 514.79C661.754 513.233 661.459 511.621 660.543 510.274C655.495 502.851 647.246 497.709 641.252 494.704C637.594 492.871 635.644 488.623 637.006 484.917C638.756 480.15 636.231 474.877 631.419 473.254Z" stroke="#F99F3D" stroke-width="2"/>
<path d="M631.419 473.254L624.95 471.071C618.614 468.933 611.844 472.892 610.701 479.498C609.591 485.912 608.317 493.681 607.707 498.856C607.25 502.732 609.597 505.857 613.095 507.187L649.703 521.098C652.313 522.089 655.252 522.022 657.583 520.97C659.947 519.904 661.724 517.791 661.744 514.79C661.754 513.233 661.459 511.621 660.543 510.274C655.495 502.851 647.246 497.709 641.252 494.704C637.594 492.871 635.644 488.623 637.006 484.917C638.756 480.15 636.231 474.877 631.419 473.254Z" stroke="url(#paint13_linear)" stroke-width="2"/>
</g>
<g filter="url(#filter7_d)">
<path d="M797.76 440.283C793.01 436.486 792.81 429.367 797.29 425.255L802.32 420.638C805.65 417.585 810.84 417.876 813.8 421.283C816.78 424.699 822.02 425.015 825.75 422.447C831.23 418.673 839.53 414.041 848.21 413.22C849.56 413.092 850.91 413.52 852.17 414.221C856.61 416.703 855.61 422.88 851.73 426.177L821.9 451.548C819.34 453.73 815.97 454.159 813.23 452.203C809.02 449.192 802.84 444.347 797.76 440.283Z" fill="#FBB971"/>
<path d="M801.65 419.901L796.62 424.518C791.69 429.039 791.9 436.879 797.13 441.064C802.22 445.128 808.41 449.988 812.65 453.016C815.83 455.285 819.7 454.735 822.55 452.31L852.38 426.938C854.51 425.13 855.86 422.521 856.07 419.972C856.27 417.387 855.28 414.812 852.66 413.348C851.3 412.589 849.74 412.071 848.12 412.224C839.18 413.07 830.7 417.819 825.18 421.623C821.81 423.944 817.15 423.606 814.56 420.627C811.23 416.795 805.39 416.467 801.65 419.901Z" stroke="#F99F3D" stroke-width="2"/>
<path d="M801.65 419.901L796.62 424.518C791.69 429.039 791.9 436.879 797.13 441.064C802.22 445.128 808.41 449.988 812.65 453.016C815.83 455.285 819.7 454.735 822.55 452.31L852.38 426.938C854.51 425.13 855.86 422.521 856.07 419.972C856.27 417.387 855.28 414.812 852.66 413.348C851.3 412.589 849.74 412.071 848.12 412.224C839.18 413.07 830.7 417.819 825.18 421.623C821.81 423.944 817.15 423.606 814.56 420.627C811.23 416.795 805.39 416.467 801.65 419.901Z" stroke="url(#paint14_linear)" stroke-width="2"/>
</g>
<g filter="url(#filter8_d)">
<path d="M614.215 264.912C614.215 259.949 618.326 255.972 623.287 256.136L673.821 257.806C674.416 257.826 674.998 257.896 675.576 258.035C680.64 259.248 706.523 266.084 712.715 280.336C719.366 295.641 691.613 359.503 689.807 363.627C689.744 363.771 689.687 363.909 689.63 364.056L645.57 478.149C643.68 483.043 638.328 485.645 633.312 484.107L619.065 479.742C614.502 478.343 611.565 473.94 612.104 469.198C614.062 451.962 619.105 411.175 625.715 384.558C630.443 365.521 640.428 335.602 644.215 324.445C645.165 321.649 644.841 318.594 643.327 316.059L615.458 269.416C614.645 268.055 614.215 266.498 614.215 264.912Z" fill="url(#paint15_linear)"/>
<path d="M618.772 480.698L633.019 485.063C638.537 486.755 644.424 483.893 646.503 478.509L690.563 364.416C690.614 364.284 690.666 364.159 690.723 364.028C691.63 361.958 699.032 344.933 705.378 326.5C708.55 317.286 711.467 307.694 713.175 299.429C714.028 295.298 714.585 291.473 714.714 288.179C714.842 284.907 714.553 282.056 713.632 279.937C710.378 272.447 702.048 267.043 694.142 263.388C686.178 259.706 678.369 257.676 675.81 257.062C675.156 256.906 674.507 256.828 673.854 256.807L623.32 255.136C617.794 254.954 613.215 259.384 613.215 264.912C613.215 266.679 613.694 268.413 614.6 269.929L642.468 316.572C643.832 318.855 644.123 321.605 643.268 324.123C639.483 335.274 629.485 365.233 624.745 384.317C618.116 411.006 613.067 451.856 611.11 469.086C610.516 474.314 613.757 479.161 618.772 480.698Z" stroke="white" stroke-width="2"/>
<path d="M618.772 480.698L633.019 485.063C638.537 486.755 644.424 483.893 646.503 478.509L690.563 364.416C690.614 364.284 690.666 364.159 690.723 364.028C691.63 361.958 699.032 344.933 705.378 326.5C708.55 317.286 711.467 307.694 713.175 299.429C714.028 295.298 714.585 291.473 714.714 288.179C714.842 284.907 714.553 282.056 713.632 279.937C710.378 272.447 702.048 267.043 694.142 263.388C686.178 259.706 678.369 257.676 675.81 257.062C675.156 256.906 674.507 256.828 673.854 256.807L623.32 255.136C617.794 254.954 613.215 259.384 613.215 264.912C613.215 266.679 613.694 268.413 614.6 269.929L642.468 316.572C643.832 318.855 644.123 321.605 643.268 324.123C639.483 335.274 629.485 365.233 624.745 384.317C618.116 411.006 613.067 451.856 611.11 469.086C610.516 474.314 613.757 479.161 618.772 480.698Z" stroke="url(#paint16_linear)" stroke-width="2"/>
</g>
<g filter="url(#filter9_d)">
<path d="M521.108 263.335C521.643 258.218 526.134 254.527 531.273 254.778L644.621 260.307C645.017 260.326 645.403 260.368 645.794 260.434C648.705 260.931 661.926 263.205 669.715 264.836C677.346 266.433 681.077 266.75 687.715 270.836C693.484 274.387 700.702 281.764 702.008 283.12C702.147 283.263 702.28 283.412 702.408 283.566L811.08 412.938C814.71 417.26 814.05 423.728 809.62 427.222L797.42 436.841C794.02 439.521 789.31 439.726 785.73 437.293C768.37 425.502 717.42 390.313 687.715 363.836C673.555 351.214 656.702 333.308 649.181 325.166C646.721 322.502 643.06 321.328 639.496 321.994C615.23 326.534 521.955 340.042 520.216 279.836C520.071 274.841 520.572 268.463 521.108 263.335Z" fill="url(#paint17_linear)"/>
<path d="M519.216 279.865C519.66 295.218 525.96 305.945 535.569 313.257C545.132 320.535 557.908 324.384 571.275 326.186C598.009 329.79 627.525 325.251 639.68 322.977C642.913 322.372 646.225 323.44 648.446 325.844C655.968 333.987 672.85 351.925 687.05 364.582C716.812 391.11 767.82 426.334 785.16 438.12C789.11 440.803 794.3 440.572 798.04 437.626L810.23 428.008C815.11 424.164 815.84 417.049 811.85 412.295L703.174 282.922C703.033 282.754 702.885 282.588 702.728 282.426C701.437 281.085 694.134 273.612 688.24 269.984C682.342 266.354 678.612 265.607 672.804 264.444C671.899 264.263 670.943 264.071 669.92 263.857C662.109 262.222 648.869 259.945 645.962 259.449C645.53 259.375 645.104 259.329 644.669 259.308L531.321 253.779C525.676 253.504 520.706 257.563 520.113 263.231C519.576 268.367 519.07 274.8 519.216 279.865Z" stroke="white" stroke-width="2"/>
<path d="M519.216 279.865C519.66 295.218 525.96 305.945 535.569 313.257C545.132 320.535 557.908 324.384 571.275 326.186C598.009 329.79 627.525 325.251 639.68 322.977C642.913 322.372 646.225 323.44 648.446 325.844C655.968 333.987 672.85 351.925 687.05 364.582C716.812 391.11 767.82 426.334 785.16 438.12C789.11 440.803 794.3 440.572 798.04 437.626L810.23 428.008C815.11 424.164 815.84 417.049 811.85 412.295L703.174 282.922C703.033 282.754 702.885 282.588 702.728 282.426C701.437 281.085 694.134 273.612 688.24 269.984C682.342 266.354 678.612 265.607 672.804 264.444C671.899 264.263 670.943 264.071 669.92 263.857C662.109 262.222 648.869 259.945 645.962 259.449C645.53 259.375 645.104 259.329 644.669 259.308L531.321 253.779C525.676 253.504 520.706 257.563 520.113 263.231C519.576 268.367 519.07 274.8 519.216 279.865Z" stroke="url(#paint18_linear)" stroke-width="2"/>
</g>
<path d="M600.212 21.7435C611.608 18.2009 618.024 22.0878 629.82 26.7421C638.329 30.0994 650.866 29.2041 649.337 38.2225C648.308 44.2915 646.48 46.853 640.572 48.5795C634 50.4998 631 47.9998 631 47.9998L597 46.5577L589.886 56.9109L585 72.4998L582.5 84.4998C582.5 84.4998 554.201 47.4052 575.288 33.056C578.929 30.5783 586.413 31.126 586.413 31.126C586.413 31.126 593.083 23.9596 600.212 21.7435Z" fill="#2F3537"/>
<g filter="url(#filter10_d)">
<path d="M625.675 203.038C625.381 202.589 625.28 202.041 625.394 201.516L639.481 136.991C639.886 135.135 642.403 134.847 643.212 136.566C652.744 156.831 657.427 170.572 663.034 194.557C663.15 195.053 663.073 195.581 662.818 196.021L644.842 227.029C644.096 228.317 642.254 228.367 641.439 227.122L625.675 203.038Z" fill="#FBB971"/>
<path d="M638.504 136.778L624.417 201.303C624.246 202.089 624.397 202.912 624.838 203.586L640.602 227.669C641.825 229.538 644.588 229.463 645.707 227.531L663.683 196.522C664.068 195.859 664.181 195.07 664.008 194.33C658.387 170.283 653.682 156.475 644.117 136.14C642.899 133.552 639.112 133.993 638.504 136.778Z" stroke="#F99F3D" stroke-width="2"/>
<path d="M638.504 136.778L624.417 201.303C624.246 202.089 624.397 202.912 624.838 203.586L640.602 227.669C641.825 229.538 644.588 229.463 645.707 227.531L663.683 196.522C664.068 195.859 664.181 195.07 664.008 194.33C658.387 170.283 653.682 156.475 644.117 136.14C642.899 133.552 639.112 133.993 638.504 136.778Z" stroke="url(#paint19_linear)" stroke-width="2"/>
</g>
<path d="M584.293 72.497L584.526 72.686L584.469 72.9806L579.538 98.3843L579.463 98.7742L579.066 98.7887L565.071 99.3002L565.682 100.452C566.295 101.609 567.151 103.224 568.122 105.054C570.065 108.715 572.469 113.24 574.315 116.693C577.447 122.549 581.475 128.793 585.49 133.467C587.499 135.805 589.49 137.733 591.35 139.025C593.223 140.325 594.889 140.929 596.273 140.755C598.8 140.438 600.879 138.682 602.587 136.09C604.293 133.503 605.577 130.155 606.531 126.816C607.483 123.483 608.097 120.189 608.473 117.724C608.661 116.493 608.789 115.471 608.87 114.757C608.911 114.4 608.94 114.121 608.958 113.931C608.961 113.9 608.964 113.872 608.966 113.845L604.168 108.059L604.017 107.877L604.062 107.646L607.897 87.647L608.203 87.0471L584.293 72.497ZM584.293 72.497L584.526 72.686L584.281 72.4873L584.242 72.4552C584.208 72.4266 584.157 72.3837 584.091 72.3276C583.959 72.2154 583.769 72.0505 583.539 71.8419C583.079 71.4243 582.46 70.8338 581.824 70.1416C581.188 69.4484 580.541 68.6606 580.021 67.8487C579.498 67.0321 579.121 66.2193 578.993 65.4729C578.695 63.7496 578.349 61.7386 578.765 60.0981C578.969 59.2978 579.349 58.6091 579.997 58.0881C580.648 57.5644 581.612 57.1751 583.041 57.056C583.479 57.0195 583.861 57.1717 584.233 57.4469C584.589 57.7098 584.901 58.0563 585.224 58.415C585.25 58.4448 585.277 58.4746 585.304 58.5045C585.473 58.6916 585.65 58.8842 585.828 59.0455C586.004 59.2043 586.213 59.3623 586.454 59.4512C586.713 59.5468 587.001 59.5587 587.29 59.4323C587.561 59.3142 587.786 59.0957 587.982 58.8245C590.234 55.713 592.65 52.4769 594.505 50.018C595.432 48.7887 596.218 47.754 596.772 47.0266C597.049 46.663 597.269 46.3762 597.419 46.1804L597.491 46.0859L587.29 59.4323L583.041 57.056L584.293 72.497ZM608.691 87.3437L608.693 87.3456L608.704 87.3532L608.747 87.3854C608.785 87.4139 608.844 87.4563 608.92 87.5101C609.072 87.6179 609.295 87.7713 609.575 87.9514C610.135 88.312 610.92 88.7766 611.818 89.1949C613.651 90.0479 615.81 90.6389 617.52 89.9774C619.399 89.2506 621.082 87.7871 622.594 85.9468C624.103 84.1097 625.415 81.9307 626.56 79.8192C628.126 76.9343 628.808 72.995 629.091 69.7311C629.231 68.1076 629.272 66.6677 629.277 65.634C629.28 65.1174 629.274 64.7028 629.267 64.4182C629.264 64.2759 629.26 64.1661 629.258 64.0923L629.255 64.0091L629.254 63.9886L629.253 63.9838V63.9826L629.251 63.9377L629.257 63.8931L631.432 47.534L597.491 46.0859L587.29 59.4323L583.041 57.056L584.293 72.497L608.691 87.3437ZM597.491 46.0859L587.29 59.4323L583.041 57.056L584.293 72.497L608.691 87.3437" fill="white"/>
<path d="M584.293 72.497L584.526 72.686M584.293 72.497L608.203 87.0471L607.897 87.647L604.062 107.646L604.017 107.877L604.168 108.059L608.966 113.845C608.964 113.872 608.961 113.9 608.958 113.931C608.94 114.121 608.911 114.4 608.87 114.757C608.789 115.471 608.661 116.493 608.473 117.724C608.097 120.189 607.483 123.483 606.531 126.816C605.577 130.155 604.293 133.503 602.587 136.09C600.879 138.682 598.8 140.438 596.273 140.755C594.889 140.929 593.223 140.325 591.35 139.025C589.49 137.733 587.499 135.805 585.49 133.467C581.475 128.793 577.447 122.549 574.315 116.693C572.469 113.24 570.065 108.715 568.122 105.054C567.151 103.224 566.295 101.609 565.682 100.452L565.071 99.3002L579.066 98.7887L579.463 98.7742L579.538 98.3843L584.469 72.9806L584.526 72.686M584.293 72.497L608.691 87.3437L608.693 87.3456L608.704 87.3532L608.747 87.3854C608.785 87.4139 608.844 87.4563 608.92 87.5101C609.072 87.6179 609.295 87.7713 609.575 87.9514C610.135 88.312 610.92 88.7766 611.818 89.1949C613.651 90.0479 615.81 90.6389 617.52 89.9774C619.399 89.2506 621.082 87.7871 622.594 85.9468C624.103 84.1097 625.415 81.9307 626.56 79.8192C628.126 76.9343 628.808 72.995 629.091 69.7311C629.231 68.1076 629.272 66.6677 629.277 65.634C629.28 65.1174 629.274 64.7028 629.267 64.4182C629.264 64.2759 629.26 64.1661 629.258 64.0923L629.255 64.0091L629.254 63.9886L629.253 63.9838V63.9826L629.251 63.9377L629.257 63.8931L631.432 47.534L597.491 46.0859M584.293 72.497L583.041 57.056M584.526 72.686L584.281 72.4873L584.242 72.4552C584.208 72.4266 584.157 72.3837 584.091 72.3276C583.959 72.2154 583.769 72.0505 583.539 71.8419C583.079 71.4243 582.46 70.8338 581.824 70.1416C581.188 69.4484 580.541 68.6606 580.021 67.8487C579.498 67.0321 579.121 66.2193 578.993 65.4729C578.695 63.7496 578.349 61.7386 578.765 60.0981C578.969 59.2978 579.349 58.6091 579.997 58.0881C580.648 57.5644 581.612 57.1751 583.041 57.056M583.041 57.056C583.479 57.0195 583.861 57.1717 584.233 57.4469C584.589 57.7098 584.901 58.0563 585.224 58.415C585.25 58.4448 585.277 58.4746 585.304 58.5045C585.473 58.6916 585.65 58.8842 585.828 59.0455C586.004 59.2043 586.213 59.3623 586.454 59.4512C586.713 59.5468 587.001 59.5587 587.29 59.4323M583.041 57.056L587.29 59.4323M587.29 59.4323C587.561 59.3142 587.786 59.0957 587.982 58.8245C590.234 55.713 592.65 52.4769 594.505 50.018C595.432 48.7887 596.218 47.754 596.772 47.0266C597.049 46.663 597.269 46.3762 597.419 46.1804L597.491 46.0859M587.29 59.4323L597.491 46.0859" stroke="#2F3537" stroke-width="2"/>
<path d="M584.293 72.497L584.281 72.4873L584.242 72.4552C584.208 72.4266 584.157 72.3837 584.091 72.3276C583.959 72.2154 583.769 72.0505 583.539 71.8419C583.079 71.4243 582.46 70.8338 581.824 70.1416C581.188 69.4484 580.021 67.8487 580.021 67.8487C580.021 67.8487 579.121 66.2193 578.993 65.4729C578.695 63.7496 578.765 60.0981 578.765 60.0981C578.765 60.0981 579.349 58.6091 579.997 58.0881C580.648 57.5644 581.612 57.1751 583.041 57.056C583.479 57.0195 583.861 57.1717 584.233 57.4469C584.589 57.7098 584.901 58.0563 585.224 58.415C585.25 58.4448 585.277 58.4746 585.304 58.5045C585.473 58.6916 585.65 58.8842 585.828 59.0455C586.004 59.2043 586.213 59.3623 586.454 59.4512C586.713 59.5468 587.001 59.5587 587.29 59.4323C587.561 59.3142 587.786 59.0957 587.982 58.8245C590.234 55.713 592.65 52.4769 594.505 50.018C595.432 48.7887 596.218 47.754 596.772 47.0266C597.049 46.663 597.269 46.3762 597.419 46.1804L597.491 46.0859L587.29 59.4323L583.041 57.056L578.765 60.0981L580.021 67.8487L584.293 72.497ZM608.691 87.3437L608.693 87.3456L608.704 87.3532L608.747 87.3854C608.785 87.4139 608.844 87.4563 608.92 87.5101C609.072 87.6179 609.295 87.7713 609.575 87.9514C610.135 88.312 610.92 88.7766 611.818 89.1949C613.651 90.0479 615.81 90.6389 617.52 89.9774C619.399 89.2506 621.082 87.7871 622.594 85.9468C624.103 84.1097 625.415 81.9307 626.56 79.8192C628.126 76.9343 628.808 72.995 629.091 69.7311C629.231 68.1076 629.272 66.6677 629.277 65.634C629.28 65.1174 629.274 64.7028 629.267 64.4182C629.264 64.2759 629.26 64.1661 629.258 64.0923L629.255 64.0091L629.254 63.9886L629.253 63.9838V63.9826L629.251 63.9377L629.257 63.8931L631.432 47.534L597.491 46.0859L587.29 59.4323L583.041 57.056L578.765 60.0981L580.021 67.8487L584.293 72.497L579.538 98.3843L573.709 98.5974L573.5 104L588 130L604.5 125L607.851 112.5L604.017 107.877L608.203 87.0471L608.691 87.3437ZM597.491 46.0859L587.29 59.4323L583.041 57.056L578.765 60.0981L580.021 67.8487L584.293 72.497L579.538 98.3843L573.709 98.5974L573.5 104L588 130L604.5 125L607.851 112.5L604.017 107.877L608.203 87.0471L608.691 87.3437" fill="white"/>
<path d="M628.03 70.8598C632.375 71.969 636.977 68.6412 638.308 63.4269C639.639 58.2126 637.195 53.0863 632.85 51.9771C628.505 50.8679 623.903 54.1958 622.572 59.4101C621.241 64.6244 623.685 69.7506 628.03 70.8598Z" fill="#F99F3D"/>
<path d="M608.893 72.5825C613.238 73.6917 617.84 70.3638 619.171 65.1495C620.502 59.9352 618.058 54.809 613.713 53.6998C609.368 52.5906 604.766 55.9184 603.435 61.1327C602.104 66.347 604.548 71.4732 608.893 72.5825Z" fill="#FFBF78"/>
<path d="M587.916 57.0684L604.399 58.7276L604.316 60.8914L587.833 59.2321L587.916 57.0684Z" fill="#FFBF78"/>
<g filter="url(#filter11_d)">
<path d="M532.735 100.582C533.022 99.8246 533.744 99.3297 534.554 99.3197L572.014 98.8571C572.995 98.845 573.841 99.535 574.049 100.493C575.347 106.474 580.572 126.678 592.216 128.336C600.973 129.583 605.989 119.554 607.862 114.775C608.34 113.555 609.817 112.99 610.944 113.659L639.578 130.661C640.268 131.07 640.646 131.852 640.539 132.647L623.452 259.578C623.317 260.581 622.454 261.325 621.442 261.311L518.37 259.866C517.207 259.85 516.303 258.849 516.405 257.69L524.707 163.928C524.713 163.867 524.715 163.81 524.715 163.749C524.71 162.103 524.671 137.577 526.716 121.836C527.686 114.363 531.401 104.104 532.735 100.582Z" fill="#FBB971"/>
<path d="M640.089 129.801L611.455 112.8C609.759 111.792 607.617 112.659 606.931 114.41C606.01 116.758 604.339 120.335 601.868 123.156C599.403 125.971 596.269 127.903 592.357 127.346C587.078 126.594 583.062 121.576 580.152 115.598C577.28 109.699 575.669 103.243 575.027 100.281C574.72 98.8699 573.469 97.8391 572.001 97.8572L534.541 98.3197C533.329 98.3347 532.235 99.0776 531.8 100.228C530.47 103.739 526.712 114.102 525.724 121.707C523.67 137.526 523.71 162.118 523.715 163.752C523.715 163.781 523.714 163.807 523.711 163.84L515.409 257.602C515.255 259.34 516.611 260.842 518.355 260.866L621.428 262.311C622.946 262.332 624.24 261.216 624.443 259.712L641.53 132.78C641.691 131.588 641.123 130.415 640.089 129.801Z" stroke="#F99F3D" stroke-width="2"/>
<path d="M640.089 129.801L611.455 112.8C609.759 111.792 607.617 112.659 606.931 114.41C606.01 116.758 604.339 120.335 601.868 123.156C599.403 125.971 596.269 127.903 592.357 127.346C587.078 126.594 583.062 121.576 580.152 115.598C577.28 109.699 575.669 103.243 575.027 100.281C574.72 98.8699 573.469 97.8391 572.001 97.8572L534.541 98.3197C533.329 98.3347 532.235 99.0776 531.8 100.228C530.47 103.739 526.712 114.102 525.724 121.707C523.67 137.526 523.71 162.118 523.715 163.752C523.715 163.781 523.714 163.807 523.711 163.84L515.409 257.602C515.255 259.34 516.611 260.842 518.355 260.866L621.428 262.311C622.946 262.332 624.24 261.216 624.443 259.712L641.53 132.78C641.691 131.588 641.123 130.415 640.089 129.801Z" stroke="url(#paint20_linear)" stroke-width="2"/>
</g>
<path d="M688.5 132C688.5 131.139 689.051 130.375 689.868 130.103L747.368 110.936C748.663 110.504 750 111.468 750 112.833V116.987C750 117.656 749.665 118.281 749.107 118.652L706.229 147.163C705.607 147.577 704.805 147.609 704.151 147.246L689.529 139.13C688.894 138.777 688.5 138.108 688.5 137.381V132Z" fill="#48B452"/>
<path d="M688.5 132C688.5 131.139 689.051 130.375 689.868 130.103L747.368 110.936C748.663 110.504 750 111.468 750 112.833V116.987C750 117.656 749.665 118.281 749.107 118.652L706.229 147.163C705.607 147.577 704.805 147.609 704.151 147.246L689.529 139.13C688.894 138.777 688.5 138.108 688.5 137.381V132Z" fill="url(#paint21_linear)" fill-opacity="0.5"/>
<path d="M689.291 132.593C687.928 131.848 687.897 129.902 689.236 129.114L732.659 103.553C733.19 103.241 733.835 103.19 734.408 103.416L748.922 109.146C750.428 109.74 750.641 111.784 749.289 112.676L706.586 140.837C705.968 141.245 705.175 141.277 704.526 140.922L689.291 132.593Z" fill="#72D77C"/>
<path d="M689.291 132.593C687.928 131.848 687.897 129.902 689.236 129.114L732.659 103.553C733.19 103.241 733.835 103.19 734.408 103.416L748.922 109.146C750.428 109.74 750.641 111.784 749.289 112.676L706.586 140.837C705.968 141.245 705.175 141.277 704.526 140.922L689.291 132.593Z" fill="url(#paint22_linear)" fill-opacity="0.5"/>
<path d="M658.331 267.85L658.326 267.848L626.842 260.352C604.199 253.917 578.055 244.529 560.002 231.926C554.825 228.312 550.496 221.412 547.447 215.344C545.929 212.321 544.738 209.527 543.927 207.488C543.522 206.469 543.212 205.64 543.004 205.066C542.941 204.892 542.887 204.742 542.842 204.617L574.492 191.47L583.276 207.575L583.341 207.694L583.457 207.764L662.957 255.764L663.089 255.844L663.244 255.835H663.245H663.25L663.272 255.834L663.358 255.829C663.434 255.826 663.547 255.82 663.693 255.815C663.986 255.803 664.412 255.789 664.945 255.78C666.009 255.76 667.496 255.759 669.181 255.829C672.564 255.97 676.697 256.399 679.83 257.528C681.337 258.071 683.633 259.7 686.188 261.921C688.723 264.126 691.457 266.863 693.831 269.557C696.21 272.257 698.205 274.888 699.282 276.882C699.828 277.892 700.101 278.672 700.119 279.189C700.127 279.437 700.075 279.575 700.018 279.652C699.965 279.722 699.862 279.803 699.63 279.843C696.86 280.325 692.912 279.847 688.493 278.818C684.09 277.793 679.283 276.238 674.824 274.616C670.366 272.995 666.266 271.311 663.279 270.033C661.786 269.393 660.572 268.855 659.732 268.478C659.312 268.289 658.985 268.14 658.763 268.038C658.653 267.987 658.568 267.948 658.512 267.922L658.448 267.893L658.432 267.885L658.428 267.883H658.427C658.427 267.883 658.427 267.883 658.39 267.961L658.427 267.883L658.376 267.859L658.331 267.85Z" fill="white" stroke="#2F3537"/>
<g filter="url(#filter12_d)">
<path d="M581.199 188.375C579.528 182.049 572.673 157.014 563.252 134.974C558.547 123.966 553.168 113.623 547.429 106.734C544.56 103.291 541.545 100.641 538.413 99.235C535.24 97.8103 531.957 97.6708 528.693 99.2403C525.038 100.998 522.699 104.556 521.224 108.866C519.747 113.183 519.089 118.396 518.892 123.702C518.517 133.782 519.805 144.421 520.523 150.355C520.562 150.67 520.598 150.973 520.633 151.261C523.147 172.176 534.333 201.32 537.405 209.049C538.057 210.687 539.945 211.353 541.486 210.592L579.618 191.755C580.855 191.144 581.571 189.784 581.199 188.375Z" fill="#FBB971"/>
<path d="M581.199 188.375C579.528 182.049 572.673 157.014 563.252 134.974C558.547 123.966 553.168 113.623 547.429 106.734C544.56 103.291 541.545 100.641 538.413 99.235C535.24 97.8103 531.957 97.6708 528.693 99.2403C525.038 100.998 522.699 104.556 521.224 108.866C519.747 113.183 519.089 118.396 518.892 123.702C518.517 133.782 519.805 144.421 520.523 150.355C520.562 150.67 520.598 150.973 520.633 151.261C523.147 172.176 534.333 201.32 537.405 209.049C538.057 210.687 539.945 211.353 541.486 210.592L579.618 191.755C580.855 191.144 581.571 189.784 581.199 188.375Z" stroke="#F99F3D" stroke-width="2"/>
<path d="M581.199 188.375C579.528 182.049 572.673 157.014 563.252 134.974C558.547 123.966 553.168 113.623 547.429 106.734C544.56 103.291 541.545 100.641 538.413 99.235C535.24 97.8103 531.957 97.6708 528.693 99.2403C525.038 100.998 522.699 104.556 521.224 108.866C519.747 113.183 519.089 118.396 518.892 123.702C518.517 133.782 519.805 144.421 520.523 150.355C520.562 150.67 520.598 150.973 520.633 151.261C523.147 172.176 534.333 201.32 537.405 209.049C538.057 210.687 539.945 211.353 541.486 210.592L579.618 191.755C580.855 191.144 581.571 189.784 581.199 188.375Z" stroke="url(#paint23_linear)" stroke-width="2"/>
</g>
<defs>
<filter id="filter0_d" x="-65.678" y="126.553" width="346.272" height="314.619" filterUnits="userSpaceOnUse" color-interpolation-filters="sRGB">
<feFlood flood-opacity="0" result="BackgroundImageFix"/>
<feColorMatrix in="SourceAlpha" type="matrix" values="0 0 0 0 0 0 0 0 0 0 0 0 0 0 0 0 0 0 127 0"/>
<feOffset dy="4"/>
<feGaussianBlur stdDeviation="50"/>
<feColorMatrix type="matrix" values="0 0 0 0 0.5 0 0 0 0 0.5 0 0 0 0 0.5 0 0 0 0.3 0"/>
<feBlend mode="normal" in2="BackgroundImageFix" result="effect1_dropShadow"/>
<feBlend mode="normal" in="SourceGraphic" in2="effect1_dropShadow" result="shape"/>
</filter>
<filter id="filter1_d" x="-154.868" y="176.897" width="418.053" height="377.705" filterUnits="userSpaceOnUse" color-interpolation-filters="sRGB">
<feFlood flood-opacity="0" result="BackgroundImageFix"/>
<feColorMatrix in="SourceAlpha" type="matrix" values="0 0 0 0 0 0 0 0 0 0 0 0 0 0 0 0 0 0 127 0"/>
<feOffset dy="4"/>
<feGaussianBlur stdDeviation="50"/>
<feColorMatrix type="matrix" values="0 0 0 0 0.5 0 0 0 0 0.5 0 0 0 0 0.5 0 0 0 0.3 0"/>
<feBlend mode="normal" in2="BackgroundImageFix" result="effect1_dropShadow"/>
<feBlend mode="normal" in="SourceGraphic" in2="effect1_dropShadow" result="shape"/>
</filter>
<filter id="filter2_d" x="89.0078" y="101.014" width="244.992" height="230" filterUnits="userSpaceOnUse" color-interpolation-filters="sRGB">
<feFlood flood-opacity="0" result="BackgroundImageFix"/>
<feColorMatrix in="SourceAlpha" type="matrix" values="0 0 0 0 0 0 0 0 0 0 0 0 0 0 0 0 0 0 127 0"/>
<feOffset dy="4"/>
<feGaussianBlur stdDeviation="50"/>
<feColorMatrix type="matrix" values="0 0 0 0 0.5 0 0 0 0 0.5 0 0 0 0 0.5 0 0 0 0.3 0"/>
<feBlend mode="normal" in2="BackgroundImageFix" result="effect1_dropShadow"/>
<feBlend mode="normal" in="SourceGraphic" in2="effect1_dropShadow" result="shape"/>
</filter>
<filter id="filter3_d" x="67.0157" y="125.648" width="387.669" height="272.948" filterUnits="userSpaceOnUse" color-interpolation-filters="sRGB">
<feFlood flood-opacity="0" result="BackgroundImageFix"/>
<feColorMatrix in="SourceAlpha" type="matrix" values="0 0 0 0 0 0 0 0 0 0 0 0 0 0 0 0 0 0 127 0"/>
<feOffset dy="4"/>
<feGaussianBlur stdDeviation="50"/>
<feColorMatrix type="matrix" values="0 0 0 0 0.5 0 0 0 0 0.5 0 0 0 0 0.5 0 0 0 0.3 0"/>
<feBlend mode="normal" in2="BackgroundImageFix" result="effect1_dropShadow"/>
<feBlend mode="normal" in="SourceGraphic" in2="effect1_dropShadow" result="shape"/>
</filter>
<filter id="filter4_d" x="35.3251" y="175.705" width="560.093" height="320.393" filterUnits="userSpaceOnUse" color-interpolation-filters="sRGB">
<feFlood flood-opacity="0" result="BackgroundImageFix"/>
<feColorMatrix in="SourceAlpha" type="matrix" values="0 0 0 0 0 0 0 0 0 0 0 0 0 0 0 0 0 0 127 0"/>
<feOffset dy="4"/>
<feGaussianBlur stdDeviation="50"/>
<feColorMatrix type="matrix" values="0 0 0 0 0.5 0 0 0 0 0.5 0 0 0 0 0.5 0 0 0 0.3 0"/>
<feBlend mode="normal" in2="BackgroundImageFix" result="effect1_dropShadow"/>
<feBlend mode="normal" in="SourceGraphic" in2="effect1_dropShadow" result="shape"/>
</filter>
<filter id="filter5_d" x="-243" y="229.058" width="1006.91" height="458.587" filterUnits="userSpaceOnUse" color-interpolation-filters="sRGB">
<feFlood flood-opacity="0" result="BackgroundImageFix"/>
<feColorMatrix in="SourceAlpha" type="matrix" values="0 0 0 0 0 0 0 0 0 0 0 0 0 0 0 0 0 0 127 0"/>
<feOffset dy="4"/>
<feGaussianBlur stdDeviation="50"/>
<feColorMatrix type="matrix" values="0 0 0 0 0.5 0 0 0 0 0.5 0 0 0 0 0.5 0 0 0 0.3 0"/>
<feBlend mode="normal" in2="BackgroundImageFix" result="effect1_dropShadow"/>
<feBlend mode="normal" in="SourceGraphic" in2="effect1_dropShadow" result="shape"/>
</filter>
<filter id="filter6_d" x="506.65" y="373.489" width="256.095" height="253.313" filterUnits="userSpaceOnUse" color-interpolation-filters="sRGB">
<feFlood flood-opacity="0" result="BackgroundImageFix"/>
<feColorMatrix in="SourceAlpha" type="matrix" values="0 0 0 0 0 0 0 0 0 0 0 0 0 0 0 0 0 0 127 0"/>
<feOffset dy="4"/>
<feGaussianBlur stdDeviation="50"/>
<feColorMatrix type="matrix" values="0 0 0 0 0.5 0 0 0 0 0.5 0 0 0 0 0.5 0 0 0 0.3 0"/>
<feBlend mode="normal" in2="BackgroundImageFix" result="effect1_dropShadow"/>
<feBlend mode="normal" in="SourceGraphic" in2="effect1_dropShadow" result="shape"/>
</filter>
<filter id="filter7_d" x="692.06" y="315.197" width="265.034" height="244.258" filterUnits="userSpaceOnUse" color-interpolation-filters="sRGB">
<feFlood flood-opacity="0" result="BackgroundImageFix"/>
<feColorMatrix in="SourceAlpha" type="matrix" values="0 0 0 0 0 0 0 0 0 0 0 0 0 0 0 0 0 0 127 0"/>
<feOffset dy="4"/>
<feGaussianBlur stdDeviation="50"/>
<feColorMatrix type="matrix" values="0 0 0 0 0.5 0 0 0 0 0.5 0 0 0 0 0.5 0 0 0 0.3 0"/>
<feBlend mode="normal" in2="BackgroundImageFix" result="effect1_dropShadow"/>
<feBlend mode="normal" in="SourceGraphic" in2="effect1_dropShadow" result="shape"/>
</filter>
<filter id="filter8_d" x="510.04" y="158.13" width="305.703" height="432.418" filterUnits="userSpaceOnUse" color-interpolation-filters="sRGB">
<feFlood flood-opacity="0" result="BackgroundImageFix"/>
<feColorMatrix in="SourceAlpha" type="matrix" values="0 0 0 0 0 0 0 0 0 0 0 0 0 0 0 0 0 0 127 0"/>
<feOffset dy="4"/>
<feGaussianBlur stdDeviation="50"/>
<feColorMatrix type="matrix" values="0 0 0 0 0.5 0 0 0 0 0.5 0 0 0 0 0.5 0 0 0 0.3 0"/>
<feBlend mode="normal" in2="BackgroundImageFix" result="effect1_dropShadow"/>
<feBlend mode="normal" in="SourceGraphic" in2="effect1_dropShadow" result="shape"/>
</filter>
<filter id="filter9_d" x="418.191" y="156.766" width="497.234" height="388.227" filterUnits="userSpaceOnUse" color-interpolation-filters="sRGB">
<feFlood flood-opacity="0" result="BackgroundImageFix"/>
<feColorMatrix in="SourceAlpha" type="matrix" values="0 0 0 0 0 0 0 0 0 0 0 0 0 0 0 0 0 0 127 0"/>
<feOffset dy="4"/>
<feGaussianBlur stdDeviation="50"/>
<feColorMatrix type="matrix" values="0 0 0 0 0.5 0 0 0 0 0.5 0 0 0 0 0.5 0 0 0 0.3 0"/>
<feBlend mode="normal" in2="BackgroundImageFix" result="effect1_dropShadow"/>
<feBlend mode="normal" in="SourceGraphic" in2="effect1_dropShadow" result="shape"/>
</filter>
<filter id="filter10_d" x="523.348" y="37.4233" width="241.739" height="296.603" filterUnits="userSpaceOnUse" color-interpolation-filters="sRGB">
<feFlood flood-opacity="0" result="BackgroundImageFix"/>
<feColorMatrix in="SourceAlpha" type="matrix" values="0 0 0 0 0 0 0 0 0 0 0 0 0 0 0 0 0 0 127 0"/>
<feOffset dy="4"/>
<feGaussianBlur stdDeviation="50"/>
<feColorMatrix type="matrix" values="0 0 0 0 0.5 0 0 0 0 0.5 0 0 0 0 0.5 0 0 0 0.3 0"/>
<feBlend mode="normal" in2="BackgroundImageFix" result="effect1_dropShadow"/>
<feBlend mode="normal" in="SourceGraphic" in2="effect1_dropShadow" result="shape"/>
</filter>
<filter id="filter11_d" x="414.397" y="0.856934" width="328.16" height="366.455" filterUnits="userSpaceOnUse" color-interpolation-filters="sRGB">
<feFlood flood-opacity="0" result="BackgroundImageFix"/>
<feColorMatrix in="SourceAlpha" type="matrix" values="0 0 0 0 0 0 0 0 0 0 0 0 0 0 0 0 0 0 127 0"/>
<feOffset dy="4"/>
<feGaussianBlur stdDeviation="50"/>
<feColorMatrix type="matrix" values="0 0 0 0 0.5 0 0 0 0 0.5 0 0 0 0 0.5 0 0 0 0.3 0"/>
<feBlend mode="normal" in2="BackgroundImageFix" result="effect1_dropShadow"/>
<feBlend mode="normal" in="SourceGraphic" in2="effect1_dropShadow" result="shape"/>
</filter>
<filter id="filter12_d" x="417.825" y="1.11426" width="264.473" height="314.791" filterUnits="userSpaceOnUse" color-interpolation-filters="sRGB">
<feFlood flood-opacity="0" result="BackgroundImageFix"/>
<feColorMatrix in="SourceAlpha" type="matrix" values="0 0 0 0 0 0 0 0 0 0 0 0 0 0 0 0 0 0 127 0"/>
<feOffset dy="4"/>
<feGaussianBlur stdDeviation="50"/>
<feColorMatrix type="matrix" values="0 0 0 0 0.5 0 0 0 0 0.5 0 0 0 0 0.5 0 0 0 0.3 0"/>
<feBlend mode="normal" in2="BackgroundImageFix" result="effect1_dropShadow"/>
<feBlend mode="normal" in="SourceGraphic" in2="effect1_dropShadow" result="shape"/>
</filter>
<linearGradient id="paint0_linear" x1="64.684" y1="197.673" x2="193.61" y2="232.438" gradientUnits="userSpaceOnUse">
<stop stop-color="#F7F7F7"/>
<stop offset="1" stop-color="#F2F2F2" stop-opacity="0.75"/>
</linearGradient>
<linearGradient id="paint1_linear" x1="87.016" y1="353.326" x2="55.61" y2="212.546" gradientUnits="userSpaceOnUse">
<stop stop-color="#EAEAEB"/>
<stop offset="1" stop-color="white" stop-opacity="0"/>
</linearGradient>
<linearGradient id="paint2_linear" x1="-12.164" y1="239.516" x2="172.815" y2="286.445" gradientUnits="userSpaceOnUse">
<stop stop-color="#F7F7F7"/>
<stop offset="1" stop-color="#F2F2F2" stop-opacity="0.75"/>
</linearGradient>
<linearGradient id="paint3_linear" x1="19.627" y1="475.045" x2="-30.575" y2="263.324" gradientUnits="userSpaceOnUse">
<stop stop-color="#EAEAEB"/>
<stop offset="1" stop-color="white" stop-opacity="0"/>
</linearGradient>
<linearGradient id="paint4_linear" x1="209.5" y1="212.467" x2="220.241" y2="237.186" gradientUnits="userSpaceOnUse">
<stop stop-color="#FCCC98"/>
<stop offset="1" stop-color="white" stop-opacity="0"/>
</linearGradient>
<linearGradient id="paint5_linear" x1="205.817" y1="208.521" x2="340.061" y2="284.733" gradientUnits="userSpaceOnUse">
<stop stop-color="#F7F7F7"/>
<stop offset="1" stop-color="#F2F2F2" stop-opacity="0.75"/>
</linearGradient>
<linearGradient id="paint6_linear" x1="234.48" y1="303.415" x2="225.039" y2="214.317" gradientUnits="userSpaceOnUse">
<stop stop-color="#EAEAEB"/>
<stop offset="1" stop-color="white" stop-opacity="0"/>
</linearGradient>
<linearGradient id="paint7_linear" x1="430.408" y1="258.759" x2="165.931" y2="384.909" gradientUnits="userSpaceOnUse">
<stop stop-color="#F7F7F7"/>
<stop offset="1" stop-color="#F2F2F2" stop-opacity="0.75"/>
</linearGradient>
<linearGradient id="paint8_linear" x1="360.869" y1="429.439" x2="391.788" y2="266.152" gradientUnits="userSpaceOnUse">
<stop stop-color="#EAEAEB"/>
<stop offset="1" stop-color="white" stop-opacity="0"/>
</linearGradient>
<linearGradient id="paint9_linear" x1="325.513" y1="255.833" x2="364.49" y2="351.495" gradientUnits="userSpaceOnUse">
<stop stop-color="#FCCC98"/>
<stop offset="1" stop-color="white" stop-opacity="0"/>
</linearGradient>
<linearGradient id="paint10_linear" x1="357.646" y1="237.682" x2="361.459" y2="264.859" gradientUnits="userSpaceOnUse">
<stop stop-color="#FCCC98"/>
<stop offset="1" stop-color="white" stop-opacity="0"/>
</linearGradient>
<linearGradient id="paint11_linear" x1="503.646" y1="270.343" x2="-29.966" y2="627.852" gradientUnits="userSpaceOnUse">
<stop stop-color="#F7F7F7"/>
<stop offset="1" stop-color="#F2F2F2" stop-opacity="0.75"/>
</linearGradient>
<linearGradient id="paint12_linear" x1="378.806" y1="620.564" x2="408.423" y2="290.704" gradientUnits="userSpaceOnUse">
<stop stop-color="#EAEAEB"/>
<stop offset="1" stop-color="white" stop-opacity="0"/>
</linearGradient>
<linearGradient id="paint13_linear" x1="607.123" y1="469.295" x2="637.008" y2="508.916" gradientUnits="userSpaceOnUse">
<stop stop-color="#FCCC98"/>
<stop offset="1" stop-color="white" stop-opacity="0"/>
</linearGradient>
<linearGradient id="paint14_linear" x1="786.47" y1="439.282" x2="835.59" y2="432.191" gradientUnits="userSpaceOnUse">
<stop stop-color="#FCCC98"/>
<stop offset="1" stop-color="white" stop-opacity="0"/>
</linearGradient>
<linearGradient id="paint15_linear" x1="631.638" y1="205.86" x2="729.231" y2="215.107" gradientUnits="userSpaceOnUse">
<stop stop-color="#F7F7F7"/>
<stop offset="1" stop-color="#F2F2F2"/>
</linearGradient>
<linearGradient id="paint16_linear" x1="647.538" y1="521.264" x2="512.033" y2="307.832" gradientUnits="userSpaceOnUse">
<stop stop-color="#EAEAEB"/>
<stop offset="1" stop-color="white" stop-opacity="0"/>
</linearGradient>
<linearGradient id="paint17_linear" x1="579.457" y1="213.879" x2="835.65" y2="300.896" gradientUnits="userSpaceOnUse">
<stop stop-color="#F7F7F7"/>
<stop offset="1" stop-color="#F2F2F2"/>
</linearGradient>
<linearGradient id="paint18_linear" x1="625.597" y1="469.206" x2="583.968" y2="234.157" gradientUnits="userSpaceOnUse">
<stop stop-color="#EAEAEB"/>
<stop offset="1" stop-color="white"/>
</linearGradient>
<linearGradient id="paint19_linear" x1="624.332" y1="133.054" x2="670.725" y2="157.959" gradientUnits="userSpaceOnUse">
<stop stop-color="#FCCC98"/>
<stop offset="1" stop-color="white" stop-opacity="0"/>
</linearGradient>
<linearGradient id="paint20_linear" x1="513.32" y1="101.67" x2="604.964" y2="199.372" gradientUnits="userSpaceOnUse">
<stop stop-color="#FCCC98"/>
<stop offset="1" stop-color="white" stop-opacity="0"/>
</linearGradient>
<linearGradient id="paint21_linear" x1="728.954" y1="101.637" x2="708.309" y2="149.18" gradientUnits="userSpaceOnUse">
<stop stop-color="white"/>
<stop offset="1" stop-color="white" stop-opacity="0"/>
</linearGradient>
<linearGradient id="paint22_linear" x1="728.325" y1="100.06" x2="709.577" y2="143.235" gradientUnits="userSpaceOnUse">
<stop stop-color="white"/>
<stop offset="1" stop-color="white" stop-opacity="0"/>
</linearGradient>
<linearGradient id="paint23_linear" x1="518.411" y1="101.06" x2="579.106" y2="147.102" gradientUnits="userSpaceOnUse">
<stop stop-color="#FCCC98"/>
<stop offset="1" stop-color="white" stop-opacity="0"/>
</linearGradient>
</defs>
</svg>
