<svg width="320" height="399" viewBox="0 0 320 399" fill="none" xmlns="http://www.w3.org/2000/svg">
<g filter="url(#filter0_d)">
<path d="M-45.1645 177.637C-44.9956 177.387 -44.7693 177.183 -44.5063 177.036L2.78343 150.561C4.36965 149.673 6.26747 151.204 5.79351 152.959C5.25086 154.968 4.69572 157.261 4.41039 159.143C3.93786 162.261 3.83331 166.71 3.81138 168.897C3.80335 169.698 3.33036 170.422 2.59626 170.741L-47.6827 192.634C-49.0681 193.237 -50.5698 192.148 -50.3486 190.653C-50.037 188.548 -49.5207 185.86 -48.7304 183.902C-47.8208 181.649 -45.8674 178.676 -45.1645 177.637Z" fill="url(#paint0_linear)"/>
<path d="M-44.9948 176.163L-44.5063 177.036L-44.9948 176.163C-45.3887 176.384 -45.7333 176.693 -45.9928 177.077C-46.6895 178.106 -48.7027 181.162 -49.6577 183.528C-50.4953 185.603 -51.0246 188.39 -51.3378 190.507C-51.6814 192.828 -49.3414 194.447 -47.2835 193.551L2.99548 171.658C4.09632 171.179 4.7994 170.096 4.81133 168.907C4.83329 166.717 4.9384 162.333 5.3991 159.293C5.67578 157.468 6.21901 155.219 6.75893 153.22C7.45208 150.653 4.69261 148.346 2.29493 149.688L2.7794 150.554L2.29493 149.688L-44.9948 176.163Z" stroke="white" stroke-width="2"/>
<path d="M-44.9948 176.163L-44.5063 177.036L-44.9948 176.163C-45.3887 176.384 -45.7333 176.693 -45.9928 177.077C-46.6895 178.106 -48.7027 181.162 -49.6577 183.528C-50.4953 185.603 -51.0246 188.39 -51.3378 190.507C-51.6814 192.828 -49.3414 194.447 -47.2835 193.551L2.99548 171.658C4.09632 171.179 4.7994 170.096 4.81133 168.907C4.83329 166.717 4.9384 162.333 5.3991 159.293C5.67578 157.468 6.21901 155.219 6.75893 153.22C7.45208 150.653 4.69261 148.346 2.29493 149.688L2.7794 150.554L2.29493 149.688L-44.9948 176.163Z" stroke="url(#paint1_linear)" stroke-width="2"/>
</g>
<g filter="url(#filter1_d)">
<path d="M-85.2194 211.052C-85.1845 210.321 -84.7529 209.667 -84.0942 209.347L-4.68291 170.843C-2.96676 170.011 -1.10295 171.852 -1.87115 173.597C-4.05646 178.563 -7.05732 186.061 -8.06839 191.839C-9.36389 199.242 -9.35477 210.435 -9.30318 214.474C-9.29167 215.374 -9.87328 216.175 -10.7349 216.436L-83.8584 238.632C-85.1812 239.033 -86.5028 238.004 -86.437 236.623L-85.2194 211.052Z" fill="url(#paint2_linear)"/>
<path d="M-84.5305 208.448C-85.5186 208.927 -86.166 209.907 -86.2182 211.004L-87.4359 236.575C-87.5345 238.647 -85.5522 240.191 -83.5679 239.589L-10.4445 217.393C-9.15366 217.001 -8.28611 215.803 -8.30326 214.461C-8.355 210.412 -8.3604 199.309 -7.08336 192.011C-6.09526 186.365 -3.14082 178.965 -0.955849 174C0.171738 171.438 -2.53186 168.689 -5.1192 169.943L-84.5305 208.448Z" stroke="white" stroke-width="2"/>
<path d="M-84.5305 208.448C-85.5186 208.927 -86.166 209.907 -86.2182 211.004L-87.4359 236.575C-87.5345 238.647 -85.5522 240.191 -83.5679 239.589L-10.4445 217.393C-9.15366 217.001 -8.28611 215.803 -8.30326 214.461C-8.355 210.412 -8.3604 199.309 -7.08336 192.011C-6.09526 186.365 -3.14082 178.965 -0.955849 174C0.171738 171.438 -2.53186 168.689 -5.1192 169.943L-84.5305 208.448Z" stroke="url(#paint3_linear)" stroke-width="2"/>
</g>
<g filter="url(#filter2_d)">
<path d="M13.27 140.485C12.4985 139.91 12.9054 138.684 13.8678 138.684H27.1651C27.7174 138.684 28.1651 139.131 28.1651 139.684V148.151C28.1651 148.703 27.7174 149.151 27.1651 149.151H13.8678C12.9054 149.151 12.4985 147.924 13.27 147.349L16.7971 144.719C17.3333 144.319 17.3333 143.515 16.7971 143.116L13.27 140.485Z" fill="#FBB971"/>
<path d="M13.8678 137.684C11.943 137.684 11.1292 140.136 12.6722 141.287L16.1993 143.917L12.6722 146.547C11.1292 147.698 11.943 150.151 13.8678 150.151H27.1651C28.2697 150.151 29.1651 149.255 29.1651 148.151V139.684C29.1651 138.579 28.2697 137.684 27.1651 137.684H13.8678Z" stroke="#F99F3D" stroke-width="2"/>
<path d="M13.8678 137.684C11.943 137.684 11.1292 140.136 12.6722 141.287L16.1993 143.917L12.6722 146.547C11.1292 147.698 11.943 150.151 13.8678 150.151H27.1651C28.2697 150.151 29.1651 149.255 29.1651 148.151V139.684C29.1651 138.579 28.2697 137.684 27.1651 137.684H13.8678Z" stroke="url(#paint4_linear)" stroke-width="2"/>
</g>
<g filter="url(#filter3_d)">
<path d="M5.32038 152.054C5.94685 149.967 7.90297 148.6 10.0814 148.668C16.7258 148.876 31.0254 149.429 41.0469 150.58C50.5354 151.668 63.8712 154.174 69.9731 155.364C71.9604 155.751 73.5034 157.311 73.8865 159.3L75.9749 170.138C76.5976 173.369 73.9829 176.31 70.701 176.07L7.38649 171.446C4.79567 171.256 2.77953 169.115 2.86838 166.519C2.94222 164.361 3.09523 161.832 3.40843 159.839C3.78668 157.432 4.62345 154.377 5.32038 152.054Z" fill="url(#paint5_linear)"/>
<path d="M10.1127 147.669C7.49508 147.587 5.12323 149.232 4.36258 151.767C3.66383 154.095 2.81001 157.205 2.42056 159.683C2.0976 161.738 1.94314 164.317 1.86897 166.485C1.76085 169.644 4.21364 172.217 7.31364 172.443L70.6281 177.068C74.5665 177.355 77.704 173.826 76.9568 169.948L74.8684 159.11C74.4089 156.726 72.5562 154.849 70.1646 154.382C64.0648 153.193 50.6932 150.68 41.1609 149.586C31.093 148.431 16.7548 147.876 10.1127 147.669Z" stroke="white" stroke-width="2"/>
<path d="M10.1127 147.669C7.49508 147.587 5.12323 149.232 4.36258 151.767C3.66383 154.095 2.81001 157.205 2.42056 159.683C2.0976 161.738 1.94314 164.317 1.86897 166.485C1.76085 169.644 4.21364 172.217 7.31364 172.443L70.6281 177.068C74.5665 177.355 77.704 173.826 76.9568 169.948L74.8684 159.11C74.4089 156.726 72.5562 154.849 70.1646 154.382C64.0648 153.193 50.6932 150.68 41.1609 149.586C31.093 148.431 16.7548 147.876 10.1127 147.669Z" stroke="url(#paint6_linear)" stroke-width="2"/>
</g>
<g filter="url(#filter4_d)">
<path d="M130.516 180.628C129.946 178.82 128.42 177.5 126.545 177.223C117.334 175.858 88.9238 171.842 65.3722 170.547C43.824 169.362 12.2292 168.898 1.95735 168.773C-0.0858419 168.748 -1.90903 169.971 -2.62431 171.885C-4.294 176.353 -7.24146 184.861 -8.64895 192.689C-9.61288 198.05 -9.88042 205.145 -9.9367 210.101C-9.97193 213.204 -7.12788 215.478 -4.08595 214.866L78.9698 198.142C79.0299 198.13 79.0829 198.12 79.1434 198.11C80.1827 197.942 90.7889 196.243 103.014 194.903C111.37 193.987 121.611 193.053 127.975 192.493C131.107 192.218 133.186 189.171 132.253 186.169C131.65 184.23 131.016 182.21 130.516 180.628Z" fill="url(#paint7_linear)"/>
<path d="M79.3031 199.097L79.1434 198.11L79.303 199.097C79.2572 199.105 79.217 199.112 79.1672 199.122L78.9698 198.142L79.1672 199.122L-3.88856 215.846C-7.53099 216.58 -10.9794 213.852 -10.9366 210.089C-10.8803 205.127 -10.6129 197.961 -9.63317 192.512C-8.20926 184.592 -5.23577 176.016 -3.56104 171.535C-2.69502 169.217 -0.486361 167.743 1.96953 167.773C12.2392 167.898 43.8544 168.363 65.4271 169.548C89.0285 170.846 117.479 174.869 126.691 176.233C128.951 176.568 130.786 178.16 131.47 180.327C131.969 181.91 132.605 183.931 133.208 185.872C134.333 189.494 131.819 193.159 128.063 193.489C121.7 194.049 111.467 194.983 103.123 195.897C90.9224 197.234 80.3353 198.931 79.3031 199.097Z" stroke="white" stroke-width="2"/>
<path d="M79.3031 199.097L79.1434 198.11L79.303 199.097C79.2572 199.105 79.217 199.112 79.1672 199.122L78.9698 198.142L79.1672 199.122L-3.88856 215.846C-7.53099 216.58 -10.9794 213.852 -10.9366 210.089C-10.8803 205.127 -10.6129 197.961 -9.63317 192.512C-8.20926 184.592 -5.23577 176.016 -3.56104 171.535C-2.69502 169.217 -0.486361 167.743 1.96953 167.773C12.2392 167.898 43.8544 168.363 65.4271 169.548C89.0285 170.846 117.479 174.869 126.691 176.233C128.951 176.568 130.786 178.16 131.47 180.327C131.969 181.91 132.605 183.931 133.208 185.872C134.333 189.494 131.819 193.159 128.063 193.489C121.7 194.049 111.467 194.983 103.123 195.897C90.9224 197.234 80.3353 198.931 79.3031 199.097Z" stroke="url(#paint8_linear)" stroke-width="2"/>
</g>
<path d="M89.7663 149.216C90.5377 149.463 91.0526 150.191 91.029 151L90.3535 174.085C90.3283 174.946 89.4843 175.544 88.6631 175.281C88.2504 175.149 87.931 174.819 87.8119 174.403L82.5614 156.029C82.3521 155.296 82.5769 154.509 83.1413 153.997L87.992 149.6C88.4725 149.165 89.1486 149.019 89.7663 149.216Z" fill="#72D77C"/>
<path d="M88.4907 152.047C89.6159 150.976 91.4795 151.541 91.8208 153.057L95.2957 168.486C95.4309 169.087 95.2822 169.716 94.8926 170.192L92.7282 172.838C91.7051 174.089 89.698 173.673 89.2563 172.118L84.9347 156.909C84.7317 156.195 84.9415 155.426 85.4796 154.914L88.4907 152.047Z" fill="#48B452"/>
<path d="M96.3921 151.398C97.0508 151.869 97.3181 152.719 97.0475 153.483L89.3325 175.25C89.0444 176.063 88.058 176.373 87.3568 175.872C87.0044 175.619 86.8013 175.208 86.8156 174.775L87.4466 155.675C87.4718 154.914 87.9271 154.233 88.6209 153.919L94.5854 151.22C95.1762 150.953 95.8647 151.02 96.3921 151.398Z" fill="#72D77C"/>
<path d="M94.3103 153.703C95.7096 153.028 97.3106 154.137 97.1712 155.684L95.752 171.436C95.6968 172.049 95.3625 172.602 94.8457 172.936L91.9748 174.792C90.6177 175.669 88.8345 174.658 88.8903 173.043L89.4359 157.242C89.4615 156.499 89.8966 155.832 90.5658 155.509L94.3103 153.703Z" fill="#48B452"/>
<path d="M83.91 166.13C83.7626 165.333 84.1601 164.535 84.8846 164.173L105.544 153.851C106.315 153.466 107.24 153.927 107.397 154.774C107.476 155.2 107.337 155.638 107.026 155.94L93.3199 169.256C92.7736 169.787 91.9734 169.961 91.2558 169.706L85.0877 167.511C84.4768 167.294 84.028 166.767 83.91 166.13Z" fill="#48B452"/>
<path d="M87.0122 165.912C85.5362 165.427 85.1524 163.518 86.3264 162.501L98.2779 152.142C98.7429 151.739 99.3676 151.572 99.9715 151.69L103.326 152.346C104.912 152.656 105.495 154.621 104.334 155.745L92.9776 166.746C92.444 167.263 91.6678 167.441 90.962 167.209L87.0122 165.912Z" fill="#72D77C"/>
<path d="M87.2492 161.891C84.9131 161.665 82.5253 162.183 80.5536 163.558C78.4237 165.044 75.3742 167.35 72.5609 170.133C69.7626 172.901 67.1183 176.218 65.9058 179.737C63.6868 186.176 63.0499 191.278 63.0674 195.049C63.0794 197.654 64.3382 199.685 66.229 200.926C68.0951 202.15 70.5376 202.586 72.9722 202.163C79.6522 201.001 89.3436 199.403 96.0004 198.684C101.924 198.045 109.144 197.343 114.216 196.862C116.323 196.662 118.421 195.856 119.979 194.528C121.553 193.186 122.599 191.281 122.443 188.971C122.176 185.02 120.237 181.416 117.76 176.813C117.513 176.354 117.26 175.884 117.003 175.403C115.903 173.343 113.908 171.25 111.883 169.449C109.84 167.631 107.684 166.038 106.179 164.986C104.744 163.983 103.078 163.425 101.374 163.26L87.2492 161.891Z" fill="#FBB971"/>
<path d="M87.2492 161.891C84.9131 161.665 82.5253 162.183 80.5536 163.558C78.4237 165.044 75.3742 167.35 72.5609 170.133C69.7626 172.901 67.1183 176.218 65.9058 179.737C63.6868 186.176 63.0499 191.278 63.0674 195.049C63.0794 197.654 64.3382 199.685 66.229 200.926C68.0951 202.15 70.5376 202.586 72.9722 202.163C79.6522 201.001 89.3436 199.403 96.0004 198.684C101.924 198.045 109.144 197.343 114.216 196.862C116.323 196.662 118.421 195.856 119.979 194.528C121.553 193.186 122.599 191.281 122.443 188.971C122.176 185.02 120.237 181.416 117.76 176.813C117.513 176.354 117.26 175.884 117.003 175.403C115.903 173.343 113.908 171.25 111.883 169.449C109.84 167.631 107.684 166.038 106.179 164.986C104.744 163.983 103.078 163.425 101.374 163.26L87.2492 161.891Z" stroke="#F99F3D" stroke-width="2"/>
<path d="M87.2492 161.891C84.9131 161.665 82.5253 162.183 80.5536 163.558C78.4237 165.044 75.3742 167.35 72.5609 170.133C69.7626 172.901 67.1183 176.218 65.9058 179.737C63.6868 186.176 63.0499 191.278 63.0674 195.049C63.0794 197.654 64.3382 199.685 66.229 200.926C68.0951 202.15 70.5376 202.586 72.9722 202.163C79.6522 201.001 89.3436 199.403 96.0004 198.684C101.924 198.045 109.144 197.343 114.216 196.862C116.323 196.662 118.421 195.856 119.979 194.528C121.553 193.186 122.599 191.281 122.443 188.971C122.176 185.02 120.237 181.416 117.76 176.813C117.513 176.354 117.26 175.884 117.003 175.403C115.903 173.343 113.908 171.25 111.883 169.449C109.84 167.631 107.684 166.038 106.179 164.986C104.744 163.983 103.078 163.425 101.374 163.26L87.2492 161.891Z" stroke="url(#paint9_linear)" stroke-width="2"/>
<path d="M83.1948 155.987C80.4105 156.09 78.5849 158.804 79.3571 161.417C80.0536 163.774 82.5124 164.983 84.7607 164.664C86.253 164.453 88.0039 164.372 89.5888 164.712C92.4132 165.317 98.8173 166.041 102.424 166.423C104.45 166.638 106.405 165.663 107.47 163.936C109.117 161.266 108.113 157.652 105.049 156.53C103.189 155.85 100.994 155.175 99.2697 155.054C97.105 154.902 95.2471 155.265 93.5369 155.599C93.4492 155.616 93.3619 155.633 93.275 155.65C91.4738 156.001 89.8101 156.293 87.8699 156.055C86.6699 155.907 84.8314 155.927 83.1948 155.987Z" fill="#FBB971"/>
<path d="M83.1948 155.987C80.4105 156.09 78.5849 158.804 79.3571 161.417C80.0536 163.774 82.5124 164.983 84.7607 164.664C86.253 164.453 88.0039 164.372 89.5888 164.712C92.4132 165.317 98.8173 166.041 102.424 166.423C104.45 166.638 106.405 165.663 107.47 163.936C109.117 161.266 108.113 157.652 105.049 156.53C103.189 155.85 100.994 155.175 99.2697 155.054C97.105 154.902 95.2471 155.265 93.5369 155.599C93.4492 155.616 93.3619 155.633 93.275 155.65C91.4738 156.001 89.8101 156.293 87.8699 156.055C86.6699 155.907 84.8314 155.927 83.1948 155.987Z" stroke="#F99F3D" stroke-width="2"/>
<path d="M83.1948 155.987C80.4105 156.09 78.5849 158.804 79.3571 161.417C80.0536 163.774 82.5124 164.983 84.7607 164.664C86.253 164.453 88.0039 164.372 89.5888 164.712C92.4132 165.317 98.8173 166.041 102.424 166.423C104.45 166.638 106.405 165.663 107.47 163.936C109.117 161.266 108.113 157.652 105.049 156.53C103.189 155.85 100.994 155.175 99.2697 155.054C97.105 154.902 95.2471 155.265 93.5369 155.599C93.4492 155.616 93.3619 155.633 93.275 155.65C91.4738 156.001 89.8101 156.293 87.8699 156.055C86.6699 155.907 84.8314 155.927 83.1948 155.987Z" stroke="url(#paint10_linear)" stroke-width="2"/>
<g filter="url(#filter5_d)">
<path d="M198.588 221.754C201.864 204.651 187.282 190.277 169.886 191.068C147.419 192.089 119.016 193.59 104.855 195.173C20.4762 204.607 -67.9879 231.947 -96.588 241.304C-102.811 243.34 -108.058 247.442 -111.679 252.896L-118.9 263.773C-120.922 266.818 -122 270.392 -122 274.047C-122 284.453 -113.474 292.823 -103.073 292.549C-83.1241 292.024 -51.5795 291.046 -29.4061 289.65C9.59697 287.194 15.4818 273.84 54.5322 276.767C76.0949 278.384 103.804 286.442 125.387 287.766C132.959 288.231 143.465 288.226 152.007 288.108C161.366 287.978 170.054 283.303 174.971 275.338C181.653 264.512 190.816 248.183 195.839 232.814C196.929 229.476 197.836 225.678 198.588 221.754Z" fill="url(#paint11_linear)"/>
<path d="M169.84 190.069C187.769 189.253 202.988 204.097 199.57 221.942C198.813 225.892 197.897 229.733 196.789 233.125C191.729 248.609 182.515 265.02 175.822 275.864C170.716 284.135 161.703 288.973 152.021 289.108C143.477 289.226 132.938 289.232 125.325 288.765C114.457 288.098 102.068 285.738 89.7621 283.358C89.4346 283.295 89.1072 283.232 88.7798 283.168C76.7733 280.846 64.884 278.546 54.4575 277.764C35.0853 276.312 23.9756 278.893 12.8257 282.15C11.5402 282.525 10.2532 282.91 8.95229 283.299C-1.09084 286.302 -11.9634 289.554 -29.3433 290.648C-51.537 292.045 -83.0982 293.023 -103.047 293.549C-114.015 293.838 -123 285.01 -123 274.047C-123 270.195 -121.864 266.429 -119.733 263.22L-112.512 252.343C-108.772 246.709 -103.344 242.462 -96.899 240.354C-68.2851 230.992 20.259 203.625 104.744 194.179C118.944 192.591 147.383 191.09 169.84 190.069Z" stroke="white" stroke-width="2"/>
<path d="M169.84 190.069C187.769 189.253 202.988 204.097 199.57 221.942C198.813 225.892 197.897 229.733 196.789 233.125C191.729 248.609 182.515 265.02 175.822 275.864C170.716 284.135 161.703 288.973 152.021 289.108C143.477 289.226 132.938 289.232 125.325 288.765C114.457 288.098 102.068 285.738 89.7621 283.358C89.4346 283.295 89.1072 283.232 88.7798 283.168C76.7733 280.846 64.884 278.546 54.4575 277.764C35.0853 276.312 23.9756 278.893 12.8257 282.15C11.5402 282.525 10.2532 282.91 8.95229 283.299C-1.09084 286.302 -11.9634 289.554 -29.3433 290.648C-51.537 292.045 -83.0982 293.023 -103.047 293.549C-114.015 293.838 -123 285.01 -123 274.047C-123 270.195 -121.864 266.429 -119.733 263.22L-112.512 252.343C-108.772 246.709 -103.344 242.462 -96.899 240.354C-68.2851 230.992 20.259 203.625 104.744 194.179C118.944 192.591 147.383 191.09 169.84 190.069Z" stroke="url(#paint12_linear)" stroke-width="2"/>
</g>
<path d="M224.333 106.362L232.139 105.575C232.59 105.55 232.951 105.721 233.177 105.988C233.402 106.257 233.506 106.639 233.406 107.067L231.938 112.693C231.821 113.047 231.545 113.404 231.182 113.536L231.179 113.537C229.677 114.099 226.739 115.071 223.485 115.874C220.338 116.65 216.918 117.262 214.222 117.2L215.273 110.814L223.879 101.645C224.102 101.443 224.325 101.335 224.549 101.302C224.775 101.268 225.023 101.307 225.299 101.436C225.774 101.659 225.978 102.33 225.736 102.853L224.087 105.997L223.871 106.409L224.333 106.362Z" fill="white" stroke="#2F3537" stroke-width="0.5"/>
<path d="M196.769 142.687L200.808 136.766L203.835 139.335L204.089 139.551L204.225 139.247L214.999 115.134L222.396 116.272C222.375 116.362 222.349 116.476 222.318 116.611C222.227 116.999 222.094 117.566 221.919 118.275C221.57 119.694 221.058 121.685 220.408 123.972C219.106 128.549 217.253 134.304 215.042 139.039C214.852 139.446 214.658 139.866 214.459 140.294C213.178 143.059 211.732 146.179 210.173 148.68C209.273 150.124 208.344 151.345 207.401 152.167C206.456 152.99 205.529 153.387 204.617 153.258C202.636 152.978 200.015 151.798 197.866 150.67C196.796 150.109 195.853 149.565 195.176 149.161C194.838 148.959 194.567 148.793 194.381 148.677C194.34 148.652 194.304 148.629 194.271 148.609L196.769 142.687Z" fill="white" stroke="#2F3537" stroke-width="0.5"/>
<g filter="url(#filter6_d)">
<path d="M180.847 252.675C181.348 249.73 184.368 247.958 187.199 248.914L188.836 249.466C190.558 250.047 191.462 251.934 190.835 253.641C190.207 255.352 191.113 257.263 192.742 258.08C195.136 259.28 198.382 261.312 200.356 264.214C202.042 266.693 197.712 268.442 194.909 267.377L184.073 263.259C181.344 262.222 179.726 259.839 180.157 256.952C180.362 255.586 180.607 254.085 180.847 252.675Z" fill="#FBB971"/>
<path d="M187.519 247.966C184.115 246.818 180.467 248.946 179.861 252.508C179.621 253.921 179.374 255.429 179.168 256.804C178.658 260.218 180.61 263.013 183.718 264.194L194.554 268.312C196.24 268.952 198.315 268.746 199.765 268.018C200.493 267.652 201.189 267.091 201.529 266.298C201.897 265.44 201.765 264.508 201.183 263.652C199.064 260.536 195.632 258.41 193.19 257.186C191.951 256.564 191.345 255.153 191.774 253.985C192.595 251.751 191.411 249.279 189.155 248.518L187.519 247.966Z" stroke="#F99F3D" stroke-width="2"/>
<path d="M187.519 247.966C184.115 246.818 180.467 248.946 179.861 252.508C179.621 253.921 179.374 255.429 179.168 256.804C178.658 260.218 180.61 263.013 183.718 264.194L194.554 268.312C196.24 268.952 198.315 268.746 199.765 268.018C200.493 267.652 201.189 267.091 201.529 266.298C201.897 265.44 201.765 264.508 201.183 263.652C199.064 260.536 195.632 258.41 193.19 257.186C191.951 256.564 191.345 255.153 191.774 253.985C192.595 251.751 191.411 249.279 189.155 248.518L187.519 247.966Z" stroke="url(#paint13_linear)" stroke-width="2"/>
</g>
<g filter="url(#filter7_d)">
<path d="M256.727 236.452C254.387 234.594 254.291 231.094 256.492 229.074L257.765 227.906C259.104 226.677 261.193 226.794 262.387 228.166C263.583 229.541 265.694 229.668 267.195 228.634C269.4 227.115 272.745 225.25 276.239 224.92C279.224 224.637 278.669 229.274 276.386 231.216L267.555 238.726C265.331 240.618 262.464 240.888 260.142 239.118C259.043 238.28 257.847 237.342 256.727 236.452Z" fill="#FBB971"/>
<path d="M255.816 228.337C253.17 230.766 253.276 234.988 256.105 237.235C257.227 238.127 258.43 239.07 259.535 239.913C262.281 242.006 265.671 241.642 268.203 239.488L277.034 231.978C278.407 230.809 279.227 228.892 279.288 227.271C279.318 226.457 279.161 225.576 278.631 224.896C278.057 224.16 277.176 223.827 276.145 223.924C272.394 224.279 268.877 226.261 266.628 227.811C265.486 228.598 263.958 228.448 263.141 227.509C261.579 225.713 258.843 225.56 257.089 227.169L255.816 228.337Z" stroke="#F99F3D" stroke-width="2"/>
<path d="M255.816 228.337C253.17 230.766 253.276 234.988 256.105 237.235C257.227 238.127 258.43 239.07 259.535 239.913C262.281 242.006 265.671 241.642 268.203 239.488L277.034 231.978C278.407 230.809 279.227 228.892 279.288 227.271C279.318 226.457 279.161 225.576 278.631 224.896C278.057 224.16 277.176 223.827 276.145 223.924C272.394 224.279 268.877 226.261 266.628 227.811C265.486 228.598 263.958 228.448 263.141 227.509C261.579 225.713 258.843 225.56 257.089 227.169L255.816 228.337Z" stroke="url(#paint14_linear)" stroke-width="2"/>
</g>
<g filter="url(#filter8_d)">
<path d="M182.038 165.214C182.038 163.216 183.693 161.615 185.69 161.681L205.5 162.336C206.095 162.355 206.685 162.426 207.261 162.575C210.145 163.318 219.367 166.072 221.692 171.423C224.321 177.473 213.599 202.366 212.52 204.841C212.457 204.985 212.405 205.112 212.348 205.259L195.809 248.085C194.401 251.731 190.415 253.669 186.678 252.524C183.279 251.482 181.092 248.19 181.514 244.66C182.459 236.758 184.317 222.845 186.668 213.381C188.271 206.925 191.377 197.359 193.227 191.82C194.163 189.019 193.845 185.951 192.331 183.416L182.538 167.027C182.211 166.479 182.038 165.853 182.038 165.214Z" fill="url(#paint15_linear)"/>
<path d="M213.436 205.24L212.52 204.841L213.436 205.24C213.979 203.995 216.943 197.123 219.443 189.796C220.692 186.134 221.835 182.332 222.5 179.047C222.832 177.406 223.05 175.869 223.097 174.529C223.142 173.211 223.026 171.984 222.61 171.025C221.296 168.003 218.123 165.843 215.127 164.373C212.083 162.88 208.982 161.985 207.511 161.606C206.849 161.436 206.185 161.358 205.533 161.336L185.723 160.681C183.161 160.597 181.038 162.651 181.038 165.214C181.038 166.033 181.26 166.837 181.68 167.54L191.472 183.929C192.835 186.21 193.123 188.975 192.279 191.503C190.429 197.039 187.312 206.64 185.697 213.14C183.33 222.672 181.466 236.643 180.521 244.541C180.04 248.561 182.532 252.299 186.385 253.48C190.623 254.779 195.145 252.581 196.742 248.446L213.281 205.619C213.333 205.485 213.379 205.371 213.436 205.24Z" stroke="white" stroke-width="2"/>
<path d="M213.436 205.24L212.52 204.841L213.436 205.24C213.979 203.995 216.943 197.123 219.443 189.796C220.692 186.134 221.835 182.332 222.5 179.047C222.832 177.406 223.05 175.869 223.097 174.529C223.142 173.211 223.026 171.984 222.61 171.025C221.296 168.003 218.123 165.843 215.127 164.373C212.083 162.88 208.982 161.985 207.511 161.606C206.849 161.436 206.185 161.358 205.533 161.336L185.723 160.681C183.161 160.597 181.038 162.651 181.038 165.214C181.038 166.033 181.26 166.837 181.68 167.54L191.472 183.929C192.835 186.21 193.123 188.975 192.279 191.503C190.429 197.039 187.312 206.64 185.697 213.14C183.33 222.672 181.466 236.643 180.521 244.541C180.04 248.561 182.532 252.299 186.385 253.48C190.623 254.779 195.145 252.581 196.742 248.446L213.281 205.619C213.333 205.485 213.379 205.371 213.436 205.24Z" stroke="url(#paint16_linear)" stroke-width="2"/>
</g>
<g filter="url(#filter9_d)">
<path d="M144.189 169.98C144.269 164.836 148.918 161.145 154.057 161.395L193.923 163.34C194.319 163.359 194.712 163.402 195.103 163.469C196.751 163.752 201.493 164.576 204.381 165.181C207.453 165.824 208.954 165.951 211.627 167.596C213.807 168.938 216.5 171.636 217.258 172.414C217.397 172.557 217.529 172.705 217.657 172.858L258.931 221.993C261.685 225.271 261.181 230.177 257.82 232.827C255.241 234.86 251.651 235.003 248.942 233.146C240.556 227.397 222.534 214.758 211.627 205.036C207.138 201.035 201.977 195.714 198.507 192.033C196.02 189.394 192.339 188.23 188.755 188.779C175.676 190.782 144.829 193.166 144.195 171.219C144.183 170.825 144.182 170.409 144.189 169.98Z" fill="url(#paint17_linear)"/>
<path d="M154.106 160.397C148.503 160.123 143.28 164.159 143.189 169.965C143.182 170.406 143.183 170.837 143.195 171.248C143.361 177 145.522 181.23 148.921 184.251C152.289 187.244 156.804 188.994 161.611 189.961C171.215 191.894 182.34 190.773 188.906 189.767C192.186 189.265 195.532 190.334 197.779 192.719C201.253 196.404 206.439 201.751 210.962 205.783C221.923 215.553 239.996 228.226 248.377 233.971C251.451 236.079 255.521 235.913 258.439 233.612C262.244 230.613 262.813 225.06 259.697 221.35L218.423 172.215C218.282 172.047 218.134 171.88 217.974 171.716C217.228 170.95 214.453 168.161 212.151 166.745C209.682 165.225 208.083 164.905 205.735 164.436C205.372 164.363 204.991 164.287 204.586 164.202C201.677 163.593 196.917 162.766 195.272 162.484C194.841 162.409 194.407 162.363 193.971 162.341L154.106 160.397Z" stroke="white" stroke-width="2"/>
<path d="M154.106 160.397C148.503 160.123 143.28 164.159 143.189 169.965C143.182 170.406 143.183 170.837 143.195 171.248C143.361 177 145.522 181.23 148.921 184.251C152.289 187.244 156.804 188.994 161.611 189.961C171.215 191.894 182.34 190.773 188.906 189.767C192.186 189.265 195.532 190.334 197.779 192.719C201.253 196.404 206.439 201.751 210.962 205.783C221.923 215.553 239.996 228.226 248.377 233.971C251.451 236.079 255.521 235.913 258.439 233.612C262.244 230.613 262.813 225.06 259.697 221.35L218.423 172.215C218.282 172.047 218.134 171.88 217.974 171.716C217.228 170.95 214.453 168.161 212.151 166.745C209.682 165.225 208.083 164.905 205.735 164.436C205.372 164.363 204.991 164.287 204.586 164.202C201.677 163.593 196.917 162.766 195.272 162.484C194.841 162.409 194.407 162.363 193.971 162.341L154.106 160.397Z" stroke="url(#paint18_linear)" stroke-width="2"/>
</g>
<path d="M176.401 67.3196C180.989 65.8934 183.572 67.4582 188.321 69.3319C191.746 70.6835 196.794 70.3231 196.178 73.9538C195.764 76.397 194.911 77.1115 192.649 78.1233C190.044 79.2886 185.355 78.5648 185.355 78.5648L175.108 77.3094L172.244 81.4773L169.933 93.7253C169.933 93.7253 157.878 77.6505 166.367 71.8738C167.833 70.8763 170.846 71.0968 170.846 71.0968C170.846 71.0968 173.531 68.2118 176.401 67.3196Z" fill="#2F3537"/>
<g filter="url(#filter10_d)">
<path d="M186.925 140.723C186.631 140.274 186.53 139.726 186.644 139.202L191.471 117.093C191.876 115.237 194.379 114.95 195.149 116.687C198.004 123.131 199.672 128.328 201.582 136.43C201.699 136.925 201.621 137.448 201.366 137.888L195.339 148.286C194.592 149.574 192.75 149.624 191.935 148.378L186.925 140.723Z" fill="#FBB971"/>
<path d="M186.088 141.271L186.925 140.723L186.088 141.271L191.098 148.926C192.321 150.794 195.084 150.719 196.204 148.787L202.232 138.39C202.614 137.729 202.731 136.945 202.556 136.201C200.635 128.052 198.949 122.795 196.063 116.282C194.883 113.62 191.096 114.123 190.494 116.88L185.667 138.988C185.496 139.775 185.647 140.597 186.088 141.271Z" stroke="#F99F3D" stroke-width="2"/>
<path d="M186.088 141.271L186.925 140.723L186.088 141.271L191.098 148.926C192.321 150.794 195.084 150.719 196.204 148.787L202.232 138.39C202.614 137.729 202.731 136.945 202.556 136.201C200.635 128.052 198.949 122.795 196.063 116.282C194.883 113.62 191.096 114.123 190.494 116.88L185.667 138.988C185.496 139.775 185.647 140.597 186.088 141.271Z" stroke="url(#paint19_linear)" stroke-width="2"/>
</g>
<path d="M170.108 87.9567L170.137 87.8094L170.021 87.7149L170.02 87.7149L170.02 87.7148L170.02 87.7142L170.016 87.7112L170.001 87.6985C169.987 87.6871 169.966 87.6699 169.94 87.6475C169.887 87.6026 169.811 87.5365 169.719 87.4529C169.535 87.2855 169.287 87.0489 169.032 86.7716C168.777 86.4937 168.518 86.1789 168.311 85.8551C168.102 85.5291 167.954 85.2082 167.904 84.9167C167.784 84.22 167.647 83.4216 167.812 82.7732C167.891 82.4589 168.04 82.1917 168.291 81.9899C168.543 81.7868 168.921 81.6324 169.49 81.585C169.651 81.5716 169.793 81.6268 169.937 81.733C170.076 81.8358 170.198 81.9717 170.329 82.1169C170.339 82.1287 170.35 82.1404 170.361 82.1523C170.429 82.2275 170.501 82.3067 170.575 82.3736C170.648 82.4391 170.737 82.5075 170.843 82.5464C170.957 82.5887 171.086 82.5943 171.216 82.5378C171.336 82.4854 171.433 82.3899 171.514 82.277C172.421 81.0247 173.393 79.7222 174.14 78.7324C174.513 78.2376 174.829 77.8211 175.052 77.5284C175.164 77.382 175.252 77.2666 175.313 77.1877L175.326 77.1699L188.912 77.7495L188.043 84.2825L188.04 84.3048L188.041 84.3273L188.041 84.3273V84.3273L188.041 84.3277L188.041 84.3296L188.042 84.3377L188.043 84.3709C188.044 84.4004 188.046 84.4444 188.047 84.5015C188.05 84.6157 188.052 84.7821 188.051 84.9896C188.049 85.4047 188.032 85.983 187.976 86.635C187.862 87.9475 187.588 89.525 186.963 90.6773C186.502 91.5264 185.976 92.4004 185.372 93.1365C184.766 93.8741 184.094 94.4563 183.349 94.7446C182.68 95.0032 181.828 94.7735 181.092 94.4308C180.732 94.2636 180.418 94.0778 180.194 93.9334C180.082 93.8614 179.993 93.8 179.932 93.757C179.902 93.7355 179.879 93.7186 179.863 93.7073L179.846 93.6946L179.842 93.6917L179.842 93.6911L179.841 93.691L179.841 93.691L179.52 93.4459L179.444 93.8427L177.901 101.894L177.878 102.01L177.954 102.1L179.872 104.414C179.872 104.419 179.872 104.424 179.871 104.429C179.864 104.505 179.852 104.617 179.836 104.76C179.803 105.047 179.752 105.458 179.676 105.953C179.525 106.944 179.278 108.268 178.896 109.607C178.512 110.949 177.997 112.292 177.314 113.327C176.63 114.365 175.804 115.059 174.807 115.184C174.267 115.252 173.609 115.017 172.858 114.496C172.114 113.979 171.316 113.206 170.509 112.266C168.895 110.388 167.276 107.878 166.016 105.522C165.273 104.132 164.305 102.311 163.523 100.837C163.132 100.1 162.787 99.45 162.54 98.9842L162.331 98.5891L167.887 98.386L168.086 98.3787L168.124 98.1838L170.108 87.9567Z" fill="white" stroke="#2F3537" stroke-width="0.5"/>
<ellipse cx="188.57" cy="83.2994" rx="3.26899" ry="3.92279" transform="rotate(14.32 188.57 83.2994)" fill="#F99F3D"/>
<ellipse cx="180.866" cy="83.9957" rx="3.26899" ry="3.92279" transform="rotate(14.32 180.866 83.9957)" fill="#FFBF78"/>
<path d="M171.45 81.5425L178.086 82.2105L178.052 83.0816L171.417 82.4136L171.45 81.5425Z" fill="#FFBF78"/>
<g filter="url(#filter11_d)">
<path d="M148.957 99.806C149.234 99.0448 149.957 98.5493 150.767 98.5393L164.031 98.3755C165.012 98.3634 165.86 99.0613 166.1 100.013C166.886 103.137 169.011 109.637 173.181 110.231C175.974 110.628 177.821 108.177 178.843 106.184C179.442 105.018 180.925 104.444 182.052 105.113L191.568 110.763C192.258 111.173 192.636 111.955 192.529 112.75L185.897 162.016C185.762 163.019 184.899 163.763 183.887 163.749L144.738 163.2C143.575 163.184 142.672 162.183 142.774 161.024L145.998 124.615C146.003 124.553 146.006 124.497 146.006 124.435C146.004 123.423 146.005 113.822 146.811 107.614C147.147 105.028 148.299 101.615 148.957 99.806Z" fill="#FBB971"/>
<path d="M148.017 99.4641L148.957 99.806L148.017 99.4641C147.36 101.271 146.171 104.778 145.82 107.485C145.004 113.769 145.004 123.437 145.006 124.437C145.006 124.467 145.005 124.493 145.002 124.527L141.778 160.936C141.624 162.674 142.98 164.176 144.724 164.2L183.873 164.749C185.391 164.77 186.686 163.654 186.888 162.15L193.52 112.883C193.681 111.69 193.113 110.517 192.079 109.903L182.563 104.253C180.847 103.234 178.763 104.15 177.954 105.728C177.47 106.67 176.823 107.654 176.022 108.348C175.24 109.024 174.359 109.388 173.322 109.241C171.73 109.014 170.365 107.618 169.248 105.588C168.158 103.609 167.455 101.298 167.07 99.7684C166.725 98.4001 165.495 97.3574 164.019 97.3756L150.754 97.5394C149.543 97.5543 148.441 98.2982 148.017 99.4641Z" stroke="#F99F3D" stroke-width="2"/>
<path d="M148.017 99.4641L148.957 99.806L148.017 99.4641C147.36 101.271 146.171 104.778 145.82 107.485C145.004 113.769 145.004 123.437 145.006 124.437C145.006 124.467 145.005 124.493 145.002 124.527L141.778 160.936C141.624 162.674 142.98 164.176 144.724 164.2L183.873 164.749C185.391 164.77 186.686 163.654 186.888 162.15L193.52 112.883C193.681 111.69 193.113 110.517 192.079 109.903L182.563 104.253C180.847 103.234 178.763 104.15 177.954 105.728C177.47 106.67 176.823 107.654 176.022 108.348C175.24 109.024 174.359 109.388 173.322 109.241C171.73 109.014 170.365 107.618 169.248 105.588C168.158 103.609 167.455 101.298 167.07 99.7684C166.725 98.4001 165.495 97.3574 164.019 97.3756L150.754 97.5394C149.543 97.5543 148.441 98.2982 148.017 99.4641Z" stroke="url(#paint20_linear)" stroke-width="2"/>
</g>
<path d="M211.945 112.563C211.945 111.702 212.496 110.937 213.313 110.665L234.5 103.603C235.584 103.241 236.704 104.048 236.704 105.191C236.704 105.752 236.423 106.275 235.957 106.586L219.688 117.403C219.065 117.817 218.264 117.849 217.61 117.486L212.974 114.913C212.339 114.56 211.945 113.891 211.945 113.164L211.945 112.563Z" fill="#48B452"/>
<path d="M211.945 112.563C211.945 111.702 212.496 110.937 213.313 110.665L234.5 103.603C235.584 103.241 236.704 104.048 236.704 105.191C236.704 105.752 236.423 106.275 235.957 106.586L219.688 117.403C219.065 117.817 218.264 117.849 217.61 117.486L212.974 114.913C212.339 114.56 211.945 113.891 211.945 113.164L211.945 112.563Z" fill="url(#paint21_linear)" fill-opacity="0.5"/>
<path d="M214.111 112.948C212.748 112.204 212.717 110.258 214.055 109.47L229.22 100.543C229.751 100.231 230.396 100.18 230.969 100.407L234.132 101.655C235.638 102.25 235.851 104.294 234.499 105.185L219.826 114.862C219.208 115.269 218.415 115.302 217.766 114.947L214.111 112.948Z" fill="#72D77C"/>
<path d="M214.111 112.948C212.748 112.204 212.717 110.258 214.055 109.47L229.22 100.543C229.751 100.231 230.396 100.18 230.969 100.407L234.132 101.655C235.638 102.25 235.851 104.294 234.499 105.185L219.826 114.862C219.208 115.269 218.415 115.302 217.766 114.947L214.111 112.948Z" fill="url(#paint22_linear)" fill-opacity="0.5"/>
<path d="M199.751 166.593L199.803 166.348L199.803 166.348L199.802 166.348L199.797 166.347L199.779 166.343L199.707 166.328L199.432 166.268C199.192 166.216 198.845 166.14 198.415 166.045C197.556 165.856 196.367 165.591 195.045 165.288C192.402 164.683 189.237 163.929 187.138 163.333C178.022 160.743 167.502 156.964 160.24 151.895C158.166 150.447 156.428 147.679 155.201 145.237C154.59 144.022 154.112 142.898 153.786 142.078C153.623 141.669 153.498 141.335 153.414 141.105C153.396 141.054 153.379 141.008 153.365 140.968L166.023 135.71L169.539 142.155L169.571 142.214L169.629 142.249L201.634 161.573L201.701 161.613L201.778 161.609L201.778 161.609L201.778 161.609L201.78 161.609L201.789 161.608L201.823 161.606C201.854 161.605 201.899 161.603 201.958 161.601C202.075 161.596 202.247 161.59 202.461 161.586C202.889 161.579 203.486 161.578 204.163 161.606C205.524 161.663 207.182 161.835 208.436 162.287C209.033 162.503 209.951 163.153 210.98 164.047C211.999 164.933 213.098 166.033 214.052 167.116C215.009 168.202 215.81 169.258 216.241 170.056C216.46 170.462 216.565 170.767 216.572 170.964C216.575 171.057 216.555 171.1 216.541 171.119C216.529 171.135 216.5 171.163 216.415 171.177C215.31 171.37 213.729 171.179 211.951 170.765C210.181 170.353 208.248 169.728 206.454 169.075C204.66 168.423 203.01 167.746 201.809 167.231C201.208 166.974 200.719 166.757 200.381 166.605C200.212 166.529 200.081 166.469 199.992 166.429L199.89 166.382L199.865 166.37L199.858 166.367L199.857 166.366L199.857 166.366C199.856 166.366 199.856 166.366 199.751 166.593ZM199.751 166.593L199.856 166.366L199.831 166.354L199.803 166.348L199.751 166.593Z" fill="white" stroke="#2F3537" stroke-width="0.5"/>
<g filter="url(#filter12_d)">
<path d="M169.071 133.316C168.057 129.585 165.234 119.758 161.511 111.396C159.656 107.228 157.54 103.34 155.263 100.757C154.124 99.4655 152.89 98.4362 151.565 97.8944C150.201 97.337 148.765 97.3093 147.35 97.9899C145.674 98.7957 144.656 100.401 144.037 102.21C143.415 104.027 143.146 106.191 143.066 108.354C142.914 112.461 143.437 116.786 143.726 119.172C143.742 119.301 143.757 119.425 143.771 119.542C144.691 127.2 148.453 137.515 150.091 141.754C150.725 143.397 152.619 144.092 154.17 143.326L167.509 136.737C168.766 136.116 169.449 134.706 169.071 133.316Z" fill="#FBB971"/>
<path d="M169.071 133.316C168.057 129.585 165.234 119.758 161.511 111.396C159.656 107.228 157.54 103.34 155.263 100.757C154.124 99.4655 152.89 98.4362 151.565 97.8944C150.201 97.337 148.765 97.3093 147.35 97.9899C145.674 98.7957 144.656 100.401 144.037 102.21C143.415 104.027 143.146 106.191 143.066 108.354C142.914 112.461 143.437 116.786 143.726 119.172C143.742 119.301 143.757 119.425 143.771 119.542C144.691 127.2 148.453 137.515 150.091 141.754C150.725 143.397 152.619 144.092 154.17 143.326L167.509 136.737C168.766 136.116 169.449 134.706 169.071 133.316Z" stroke="#F99F3D" stroke-width="2"/>
<path d="M169.071 133.316C168.057 129.585 165.234 119.758 161.511 111.396C159.656 107.228 157.54 103.34 155.263 100.757C154.124 99.4655 152.89 98.4362 151.565 97.8944C150.201 97.337 148.765 97.3093 147.35 97.9899C145.674 98.7957 144.656 100.401 144.037 102.21C143.415 104.027 143.146 106.191 143.066 108.354C142.914 112.461 143.437 116.786 143.726 119.172C143.742 119.301 143.757 119.425 143.771 119.542C144.691 127.2 148.453 137.515 150.091 141.754C150.725 143.397 152.619 144.092 154.17 143.326L167.509 136.737C168.766 136.116 169.449 134.706 169.071 133.316Z" stroke="url(#paint23_linear)" stroke-width="2"/>
</g>
<defs>
<filter id="filter0_d" x="-152.373" y="52.2866" width="260.24" height="246.514" filterUnits="userSpaceOnUse" color-interpolation-filters="sRGB">
<feFlood flood-opacity="0" result="BackgroundImageFix"/>
<feColorMatrix in="SourceAlpha" type="matrix" values="0 0 0 0 0 0 0 0 0 0 0 0 0 0 0 0 0 0 127 0"/>
<feOffset dy="4"/>
<feGaussianBlur stdDeviation="50"/>
<feColorMatrix type="matrix" values="0 0 0 0 0.5 0 0 0 0 0.5 0 0 0 0 0.5 0 0 0 0.3 0"/>
<feBlend mode="normal" in2="BackgroundImageFix" result="effect1_dropShadow"/>
<feBlend mode="normal" in="SourceGraphic" in2="effect1_dropShadow" result="shape"/>
</filter>
<filter id="filter1_d" x="-188.439" y="72.623" width="288.747" height="272.098" filterUnits="userSpaceOnUse" color-interpolation-filters="sRGB">
<feFlood flood-opacity="0" result="BackgroundImageFix"/>
<feColorMatrix in="SourceAlpha" type="matrix" values="0 0 0 0 0 0 0 0 0 0 0 0 0 0 0 0 0 0 127 0"/>
<feOffset dy="4"/>
<feGaussianBlur stdDeviation="50"/>
<feColorMatrix type="matrix" values="0 0 0 0 0.5 0 0 0 0 0.5 0 0 0 0 0.5 0 0 0 0.3 0"/>
<feBlend mode="normal" in2="BackgroundImageFix" result="effect1_dropShadow"/>
<feBlend mode="normal" in="SourceGraphic" in2="effect1_dropShadow" result="shape"/>
</filter>
<filter id="filter2_d" x="-89.138" y="40.6836" width="219.303" height="214.467" filterUnits="userSpaceOnUse" color-interpolation-filters="sRGB">
<feFlood flood-opacity="0" result="BackgroundImageFix"/>
<feColorMatrix in="SourceAlpha" type="matrix" values="0 0 0 0 0 0 0 0 0 0 0 0 0 0 0 0 0 0 127 0"/>
<feOffset dy="4"/>
<feGaussianBlur stdDeviation="50"/>
<feColorMatrix type="matrix" values="0 0 0 0 0.5 0 0 0 0 0.5 0 0 0 0 0.5 0 0 0 0.3 0"/>
<feBlend mode="normal" in2="BackgroundImageFix" result="effect1_dropShadow"/>
<feBlend mode="normal" in="SourceGraphic" in2="effect1_dropShadow" result="shape"/>
</filter>
<filter id="filter3_d" x="-99.1345" y="50.6655" width="277.202" height="231.419" filterUnits="userSpaceOnUse" color-interpolation-filters="sRGB">
<feFlood flood-opacity="0" result="BackgroundImageFix"/>
<feColorMatrix in="SourceAlpha" type="matrix" values="0 0 0 0 0 0 0 0 0 0 0 0 0 0 0 0 0 0 127 0"/>
<feOffset dy="4"/>
<feGaussianBlur stdDeviation="50"/>
<feColorMatrix type="matrix" values="0 0 0 0 0.5 0 0 0 0 0.5 0 0 0 0 0.5 0 0 0 0.3 0"/>
<feBlend mode="normal" in2="BackgroundImageFix" result="effect1_dropShadow"/>
<feBlend mode="normal" in="SourceGraphic" in2="effect1_dropShadow" result="shape"/>
</filter>
<filter id="filter4_d" x="-112.924" y="66.0996" width="348.559" height="266.46" filterUnits="userSpaceOnUse" color-interpolation-filters="sRGB">
<feFlood flood-opacity="0" result="BackgroundImageFix"/>
<feColorMatrix in="SourceAlpha" type="matrix" values="0 0 0 0 0 0 0 0 0 0 0 0 0 0 0 0 0 0 127 0"/>
<feOffset dy="4"/>
<feGaussianBlur stdDeviation="50"/>
<feColorMatrix type="matrix" values="0 0 0 0 0.5 0 0 0 0 0.5 0 0 0 0 0.5 0 0 0 0.3 0"/>
<feBlend mode="normal" in2="BackgroundImageFix" result="effect1_dropShadow"/>
<feBlend mode="normal" in="SourceGraphic" in2="effect1_dropShadow" result="shape"/>
</filter>
<filter id="filter5_d" x="-224" y="93.0366" width="525.055" height="305.519" filterUnits="userSpaceOnUse" color-interpolation-filters="sRGB">
<feFlood flood-opacity="0" result="BackgroundImageFix"/>
<feColorMatrix in="SourceAlpha" type="matrix" values="0 0 0 0 0 0 0 0 0 0 0 0 0 0 0 0 0 0 127 0"/>
<feOffset dy="4"/>
<feGaussianBlur stdDeviation="50"/>
<feColorMatrix type="matrix" values="0 0 0 0 0.5 0 0 0 0 0.5 0 0 0 0 0.5 0 0 0 0.3 0"/>
<feBlend mode="normal" in2="BackgroundImageFix" result="effect1_dropShadow"/>
<feBlend mode="normal" in="SourceGraphic" in2="effect1_dropShadow" result="shape"/>
</filter>
<filter id="filter6_d" x="78.087" y="150.653" width="224.648" height="223.042" filterUnits="userSpaceOnUse" color-interpolation-filters="sRGB">
<feFlood flood-opacity="0" result="BackgroundImageFix"/>
<feColorMatrix in="SourceAlpha" type="matrix" values="0 0 0 0 0 0 0 0 0 0 0 0 0 0 0 0 0 0 127 0"/>
<feOffset dy="4"/>
<feGaussianBlur stdDeviation="50"/>
<feColorMatrix type="matrix" values="0 0 0 0 0.5 0 0 0 0 0.5 0 0 0 0 0.5 0 0 0 0.3 0"/>
<feBlend mode="normal" in2="BackgroundImageFix" result="effect1_dropShadow"/>
<feBlend mode="normal" in="SourceGraphic" in2="effect1_dropShadow" result="shape"/>
</filter>
<filter id="filter7_d" x="152.905" y="126.908" width="227.386" height="219.399" filterUnits="userSpaceOnUse" color-interpolation-filters="sRGB">
<feFlood flood-opacity="0" result="BackgroundImageFix"/>
<feColorMatrix in="SourceAlpha" type="matrix" values="0 0 0 0 0 0 0 0 0 0 0 0 0 0 0 0 0 0 127 0"/>
<feOffset dy="4"/>
<feGaussianBlur stdDeviation="50"/>
<feColorMatrix type="matrix" values="0 0 0 0 0.5 0 0 0 0 0.5 0 0 0 0 0.5 0 0 0 0.3 0"/>
<feBlend mode="normal" in2="BackgroundImageFix" result="effect1_dropShadow"/>
<feBlend mode="normal" in="SourceGraphic" in2="effect1_dropShadow" result="shape"/>
</filter>
<filter id="filter8_d" x="79.4619" y="63.6787" width="244.644" height="295.174" filterUnits="userSpaceOnUse" color-interpolation-filters="sRGB">
<feFlood flood-opacity="0" result="BackgroundImageFix"/>
<feColorMatrix in="SourceAlpha" type="matrix" values="0 0 0 0 0 0 0 0 0 0 0 0 0 0 0 0 0 0 127 0"/>
<feOffset dy="4"/>
<feGaussianBlur stdDeviation="50"/>
<feColorMatrix type="matrix" values="0 0 0 0 0.5 0 0 0 0 0.5 0 0 0 0 0.5 0 0 0 0.3 0"/>
<feBlend mode="normal" in2="BackgroundImageFix" result="effect1_dropShadow"/>
<feBlend mode="normal" in="SourceGraphic" in2="effect1_dropShadow" result="shape"/>
</filter>
<filter id="filter9_d" x="42.1846" y="63.3838" width="320.524" height="277.067" filterUnits="userSpaceOnUse" color-interpolation-filters="sRGB">
<feFlood flood-opacity="0" result="BackgroundImageFix"/>
<feColorMatrix in="SourceAlpha" type="matrix" values="0 0 0 0 0 0 0 0 0 0 0 0 0 0 0 0 0 0 127 0"/>
<feOffset dy="4"/>
<feGaussianBlur stdDeviation="50"/>
<feColorMatrix type="matrix" values="0 0 0 0 0.5 0 0 0 0 0.5 0 0 0 0 0.5 0 0 0 0.3 0"/>
<feBlend mode="normal" in2="BackgroundImageFix" result="effect1_dropShadow"/>
<feBlend mode="normal" in="SourceGraphic" in2="effect1_dropShadow" result="shape"/>
</filter>
<filter id="filter10_d" x="84.5982" y="17.5259" width="219.037" height="237.757" filterUnits="userSpaceOnUse" color-interpolation-filters="sRGB">
<feFlood flood-opacity="0" result="BackgroundImageFix"/>
<feColorMatrix in="SourceAlpha" type="matrix" values="0 0 0 0 0 0 0 0 0 0 0 0 0 0 0 0 0 0 127 0"/>
<feOffset dy="4"/>
<feGaussianBlur stdDeviation="50"/>
<feColorMatrix type="matrix" values="0 0 0 0 0.5 0 0 0 0 0.5 0 0 0 0 0.5 0 0 0 0.3 0"/>
<feBlend mode="normal" in2="BackgroundImageFix" result="effect1_dropShadow"/>
<feBlend mode="normal" in="SourceGraphic" in2="effect1_dropShadow" result="shape"/>
</filter>
<filter id="filter11_d" x="40.7662" y="0.375488" width="253.781" height="269.374" filterUnits="userSpaceOnUse" color-interpolation-filters="sRGB">
<feFlood flood-opacity="0" result="BackgroundImageFix"/>
<feColorMatrix in="SourceAlpha" type="matrix" values="0 0 0 0 0 0 0 0 0 0 0 0 0 0 0 0 0 0 127 0"/>
<feOffset dy="4"/>
<feGaussianBlur stdDeviation="50"/>
<feColorMatrix type="matrix" values="0 0 0 0 0.5 0 0 0 0 0.5 0 0 0 0 0.5 0 0 0 0.3 0"/>
<feBlend mode="normal" in2="BackgroundImageFix" result="effect1_dropShadow"/>
<feBlend mode="normal" in="SourceGraphic" in2="effect1_dropShadow" result="shape"/>
</filter>
<filter id="filter12_d" x="42.0388" y="0.477539" width="228.137" height="248.159" filterUnits="userSpaceOnUse" color-interpolation-filters="sRGB">
<feFlood flood-opacity="0" result="BackgroundImageFix"/>
<feColorMatrix in="SourceAlpha" type="matrix" values="0 0 0 0 0 0 0 0 0 0 0 0 0 0 0 0 0 0 127 0"/>
<feOffset dy="4"/>
<feGaussianBlur stdDeviation="50"/>
<feColorMatrix type="matrix" values="0 0 0 0 0.5 0 0 0 0 0.5 0 0 0 0 0.5 0 0 0 0.3 0"/>
<feBlend mode="normal" in2="BackgroundImageFix" result="effect1_dropShadow"/>
<feBlend mode="normal" in="SourceGraphic" in2="effect1_dropShadow" result="shape"/>
</filter>
<linearGradient id="paint0_linear" x1="-39.1955" y1="138.143" x2="12.7075" y2="152.139" gradientUnits="userSpaceOnUse">
<stop stop-color="#F7F7F7"/>
<stop offset="1" stop-color="#F2F2F2" stop-opacity="0.75"/>
</linearGradient>
<linearGradient id="paint1_linear" x1="-30.2052" y1="200.807" x2="-42.8486" y2="144.131" gradientUnits="userSpaceOnUse">
<stop stop-color="#EAEAEB"/>
<stop offset="1" stop-color="white" stop-opacity="0"/>
</linearGradient>
<linearGradient id="paint2_linear" x1="-70.1322" y1="154.986" x2="4.33725" y2="173.878" gradientUnits="userSpaceOnUse">
<stop stop-color="#F7F7F7"/>
<stop offset="1" stop-color="#F2F2F2" stop-opacity="0.75"/>
</linearGradient>
<linearGradient id="paint3_linear" x1="-57.3336" y1="249.805" x2="-77.544" y2="164.57" gradientUnits="userSpaceOnUse">
<stop stop-color="#EAEAEB"/>
<stop offset="1" stop-color="white" stop-opacity="0"/>
</linearGradient>
<linearGradient id="paint4_linear" x1="19.107" y1="144.1" x2="23.4312" y2="154.051" gradientUnits="userSpaceOnUse">
<stop stop-color="#FCCC98"/>
<stop offset="1" stop-color="white" stop-opacity="0"/>
</linearGradient>
<linearGradient id="paint5_linear" x1="17.6236" y1="142.513" x2="71.6676" y2="173.195" gradientUnits="userSpaceOnUse">
<stop stop-color="#F7F7F7"/>
<stop offset="1" stop-color="#F2F2F2" stop-opacity="0.75"/>
</linearGradient>
<linearGradient id="paint6_linear" x1="29.1628" y1="180.716" x2="25.3621" y2="144.847" gradientUnits="userSpaceOnUse">
<stop stop-color="#EAEAEB"/>
<stop offset="1" stop-color="white" stop-opacity="0"/>
</linearGradient>
<linearGradient id="paint7_linear" x1="108.041" y1="162.732" x2="1.56675" y2="213.518" gradientUnits="userSpaceOnUse">
<stop stop-color="#F7F7F7"/>
<stop offset="1" stop-color="#F2F2F2" stop-opacity="0.75"/>
</linearGradient>
<linearGradient id="paint8_linear" x1="80.0454" y1="231.445" x2="92.4929" y2="165.708" gradientUnits="userSpaceOnUse">
<stop stop-color="#EAEAEB"/>
<stop offset="1" stop-color="white" stop-opacity="0"/>
</linearGradient>
<linearGradient id="paint9_linear" x1="65.8117" y1="161.547" x2="81.5034" y2="200.059" gradientUnits="userSpaceOnUse">
<stop stop-color="#FCCC98"/>
<stop offset="1" stop-color="white" stop-opacity="0"/>
</linearGradient>
<linearGradient id="paint10_linear" x1="78.7469" y1="154.243" x2="80.2819" y2="165.184" gradientUnits="userSpaceOnUse">
<stop stop-color="#FCCC98"/>
<stop offset="1" stop-color="white" stop-opacity="0"/>
</linearGradient>
<linearGradient id="paint11_linear" x1="137.523" y1="167.397" x2="-77.2998" y2="311.324" gradientUnits="userSpaceOnUse">
<stop stop-color="#F7F7F7"/>
<stop offset="1" stop-color="#F2F2F2" stop-opacity="0.75"/>
</linearGradient>
<linearGradient id="paint12_linear" x1="87.2646" y1="308.39" x2="99.188" y2="175.594" gradientUnits="userSpaceOnUse">
<stop stop-color="#EAEAEB"/>
<stop offset="1" stop-color="white" stop-opacity="0"/>
</linearGradient>
<linearGradient id="paint13_linear" x1="179.183" y1="247.491" x2="191.214" y2="263.441" gradientUnits="userSpaceOnUse">
<stop stop-color="#FCCC98"/>
<stop offset="1" stop-color="white" stop-opacity="0"/>
</linearGradient>
<linearGradient id="paint14_linear" x1="251.382" y1="235.412" x2="271.157" y2="232.557" gradientUnits="userSpaceOnUse">
<stop stop-color="#FCCC98"/>
<stop offset="1" stop-color="white" stop-opacity="0"/>
</linearGradient>
<linearGradient id="paint15_linear" x1="189.052" y1="141.441" x2="228.341" y2="145.163" gradientUnits="userSpaceOnUse">
<stop stop-color="#F7F7F7"/>
<stop offset="1" stop-color="#F2F2F2"/>
</linearGradient>
<linearGradient id="paint16_linear" x1="195.453" y1="268.417" x2="140.901" y2="182.493" gradientUnits="userSpaceOnUse">
<stop stop-color="#EAEAEB"/>
<stop offset="1" stop-color="white" stop-opacity="0"/>
</linearGradient>
<linearGradient id="paint17_linear" x1="168.044" y1="144.666" x2="271.183" y2="179.698" gradientUnits="userSpaceOnUse">
<stop stop-color="#F7F7F7"/>
<stop offset="1" stop-color="#F2F2F2"/>
</linearGradient>
<linearGradient id="paint18_linear" x1="186.619" y1="247.456" x2="169.86" y2="152.83" gradientUnits="userSpaceOnUse">
<stop stop-color="#EAEAEB"/>
<stop offset="1" stop-color="white"/>
</linearGradient>
<linearGradient id="paint19_linear" x1="186.11" y1="112.13" x2="204.787" y2="122.156" gradientUnits="userSpaceOnUse">
<stop stop-color="#FCCC98"/>
<stop offset="1" stop-color="white" stop-opacity="0"/>
</linearGradient>
<linearGradient id="paint20_linear" x1="141.419" y1="99.4955" x2="178.313" y2="138.828" gradientUnits="userSpaceOnUse">
<stop stop-color="#FCCC98"/>
<stop offset="1" stop-color="white" stop-opacity="0"/>
</linearGradient>
<linearGradient id="paint21_linear" x1="228.231" y1="99.4776" x2="219.92" y2="118.618" gradientUnits="userSpaceOnUse">
<stop stop-color="white"/>
<stop offset="1" stop-color="white" stop-opacity="0"/>
</linearGradient>
<linearGradient id="paint22_linear" x1="227.978" y1="98.8414" x2="220.43" y2="116.223" gradientUnits="userSpaceOnUse">
<stop stop-color="white"/>
<stop offset="1" stop-color="white" stop-opacity="0"/>
</linearGradient>
<linearGradient id="paint23_linear" x1="143.469" y1="99.2607" x2="167.904" y2="117.797" gradientUnits="userSpaceOnUse">
<stop stop-color="#FCCC98"/>
<stop offset="1" stop-color="white" stop-opacity="0"/>
</linearGradient>
</defs>
</svg>
