<svg width="961" height="688" viewBox="0 0 961 688" fill="none" xmlns="http://www.w3.org/2000/svg">
<g filter="url(#filter0_d)">
<path d="M50.243 295.194C50.4135 294.946 50.6366 294.746 50.8996 294.599L175.555 224.811C177.141 223.923 179.022 225.446 178.503 227.188C176.795 232.924 174.096 242.59 173 249.822C171.658 258.675 171.511 271.847 171.499 276.011C171.497 276.812 171.024 277.53 170.29 277.849L39.0606 334.99C37.6753 335.593 36.1649 334.505 36.3367 333.004C36.9236 327.875 38.334 317.927 41 311.322C43.4587 305.231 48.9874 297.025 50.243 295.194Z" fill="url(#paint0_linear)"/>
<path d="M50.4111 293.726L50.8996 294.599L50.4111 293.726C50.0194 293.945 49.6793 294.248 49.4184 294.629C48.1718 296.446 42.5788 304.74 40.0727 310.948C37.3497 317.694 35.9293 327.768 35.3432 332.89C35.081 335.181 37.3908 336.807 39.4598 335.906L170.689 278.766C171.786 278.288 172.496 277.212 172.499 276.014C172.511 271.841 172.66 258.741 173.989 249.972C175.073 242.816 177.753 233.21 179.462 227.474C180.232 224.887 177.45 222.604 175.066 223.938L50.4111 293.726Z" stroke="white" stroke-width="2"/>
<path d="M50.4111 293.726L50.8996 294.599L50.4111 293.726C50.0194 293.945 49.6793 294.248 49.4184 294.629C48.1718 296.446 42.5788 304.74 40.0727 310.948C37.3497 317.694 35.9293 327.768 35.3432 332.89C35.081 335.181 37.3908 336.807 39.4598 335.906L170.689 278.766C171.786 278.288 172.496 277.212 172.499 276.014C172.511 271.841 172.66 258.741 173.989 249.972C175.073 242.816 177.753 233.21 179.462 227.474C180.232 224.887 177.45 222.604 175.066 223.938L50.4111 293.726Z" stroke="url(#paint1_linear)" stroke-width="2"/>
</g>
<g filter="url(#filter1_d)">
<path d="M-49.5566 377.009C-49.5217 376.277 -49.0901 375.624 -48.4314 375.304L158.23 275.099C159.946 274.267 161.789 276.083 160.983 277.812C156.011 288.468 145.141 313.096 142 331.044C138.491 351.095 138.835 382.34 138.968 389.533C138.984 390.433 138.403 391.225 137.541 391.487L-50.2865 448.499C-51.6094 448.9 -52.9309 447.871 -52.8652 446.49L-49.5566 377.009Z" fill="url(#paint2_linear)"/>
<path d="M-48.8677 374.404C-49.8558 374.883 -50.5032 375.864 -50.5554 376.961L-53.864 446.442C-53.9627 448.513 -51.9803 450.058 -49.9961 449.456L137.832 392.444C139.117 392.053 139.993 390.866 139.968 389.514C139.835 382.307 139.495 351.157 142.985 331.216C146.1 313.418 156.912 288.903 161.889 278.234C163.093 275.653 160.357 272.957 157.794 274.199L-48.8677 374.404Z" stroke="white" stroke-width="2"/>
<path d="M-48.8677 374.404C-49.8558 374.883 -50.5032 375.864 -50.5554 376.961L-53.864 446.442C-53.9627 448.513 -51.9803 450.058 -49.9961 449.456L137.832 392.444C139.117 392.053 139.993 390.866 139.968 389.514C139.835 382.307 139.495 351.157 142.985 331.216C146.1 313.418 156.912 288.903 161.889 278.234C163.093 275.653 160.357 272.957 157.794 274.199L-48.8677 374.404Z" stroke="url(#paint3_linear)" stroke-width="2"/>
</g>
<g filter="url(#filter2_d)">
<path d="M191.416 200.802C190.644 200.226 191.051 199 192.014 199H231C231.552 199 232 199.448 232 200V224C232 224.552 231.552 225 231 225H192.014C191.051 225 190.644 223.774 191.416 223.198L205.357 212.802C205.894 212.402 205.894 211.598 205.357 211.198L191.416 200.802Z" fill="#FBB971"/>
<path d="M192.014 198C190.089 198 189.275 200.453 190.818 201.603L204.76 212L190.818 222.397C189.275 223.547 190.089 226 192.014 226H231C232.105 226 233 225.105 233 224V200C233 198.895 232.105 198 231 198H192.014Z" stroke="#F99F3D" stroke-width="2"/>
<path d="M192.014 198C190.089 198 189.275 200.453 190.818 201.603L204.76 212L190.818 222.397C189.275 223.547 190.089 226 192.014 226H231C232.105 226 233 225.105 233 224V200C233 198.895 232.105 198 231 198H192.014Z" stroke="url(#paint4_linear)" stroke-width="2"/>
</g>
<g filter="url(#filter3_d)">
<path d="M176.865 227.021C177.53 224.945 179.482 223.577 181.66 223.637C194.139 223.978 235.86 225.314 264 228.544C290.579 231.594 329.311 239.119 340.722 241.387C342.708 241.781 344.25 243.341 344.633 245.329L352.592 286.635C353.215 289.867 350.6 292.808 347.318 292.568L173.589 279.878C170.998 279.689 168.988 277.553 169.015 274.956C169.076 269.104 169.357 258.866 170.507 251.543C171.772 243.499 175.098 232.539 176.865 227.021Z" fill="url(#paint5_linear)"/>
<path d="M181.688 222.637C179.069 222.565 176.715 224.211 175.913 226.716C174.147 232.231 170.797 243.258 169.519 251.388C168.356 258.79 168.076 269.094 168.016 274.945C167.983 278.083 170.412 280.649 173.516 280.875L347.246 293.565C351.184 293.853 354.321 290.324 353.574 286.446L345.615 245.14C345.155 242.755 343.304 240.88 340.917 240.406C329.51 238.139 290.739 230.606 264.114 227.55C235.924 224.315 194.162 222.978 181.688 222.637Z" stroke="white" stroke-width="2"/>
<path d="M181.688 222.637C179.069 222.565 176.715 224.211 175.913 226.716C174.147 232.231 170.797 243.258 169.519 251.388C168.356 258.79 168.076 269.094 168.016 274.945C167.983 278.083 170.412 280.649 173.516 280.875L347.246 293.565C351.184 293.853 354.321 290.324 353.574 286.446L345.615 245.14C345.155 242.755 343.304 240.88 340.917 240.406C329.51 238.139 290.739 230.606 264.114 227.55C235.924 224.315 194.162 222.978 181.688 222.637Z" stroke="url(#paint6_linear)" stroke-width="2"/>
</g>
<g filter="url(#filter4_d)">
<path d="M484.853 298.815C484.28 297.007 482.794 295.702 480.919 295.419C464.874 292.991 387.607 281.63 324.421 278.156C266.659 274.981 179.834 273.889 161.876 273.691C159.833 273.668 158.049 274.892 157.307 276.796C153.937 285.44 144.638 310.449 140.555 333.156C137.497 350.166 137.261 374.2 137.336 385.219C137.357 388.321 140.204 390.596 143.246 389.983L358.331 346.674C358.391 346.662 358.448 346.652 358.509 346.642C360.225 346.363 386.987 342.047 417.921 338.656C443.296 335.875 475.67 333.026 488.89 331.891C492.023 331.621 494.114 328.578 493.201 325.57C490.664 317.212 486.654 304.506 484.853 298.815Z" fill="url(#paint7_linear)"/>
<path d="M358.529 347.655L358.331 346.674L358.529 347.655L143.443 390.964C139.797 391.698 136.361 388.969 136.336 385.225C136.261 374.211 136.495 350.092 139.571 332.979C143.672 310.17 153.002 285.085 156.375 276.433C157.266 274.148 159.421 272.664 161.887 272.691C179.842 272.889 266.689 273.981 324.476 277.158C387.715 280.634 465.022 292.002 481.069 294.43C483.331 294.772 485.122 296.353 485.806 298.513C487.608 304.204 491.618 316.915 494.157 325.279C495.258 328.905 492.732 332.564 488.976 332.887C475.756 334.023 443.392 336.871 418.03 339.65C387.121 343.038 360.379 347.352 358.669 347.629C358.622 347.637 358.577 347.645 358.529 347.655Z" stroke="white" stroke-width="2"/>
<path d="M358.529 347.655L358.331 346.674L358.529 347.655L143.443 390.964C139.797 391.698 136.361 388.969 136.336 385.225C136.261 374.211 136.495 350.092 139.571 332.979C143.672 310.17 153.002 285.085 156.375 276.433C157.266 274.148 159.421 272.664 161.887 272.691C179.842 272.889 266.689 273.981 324.476 277.158C387.715 280.634 465.022 292.002 481.069 294.43C483.331 294.772 485.122 296.353 485.806 298.513C487.608 304.204 491.618 316.915 494.157 325.279C495.258 328.905 492.732 332.564 488.976 332.887C475.756 334.023 443.392 336.871 418.03 339.65C387.121 343.038 360.379 347.352 358.669 347.629C358.622 347.637 358.577 347.645 358.529 347.655Z" stroke="url(#paint8_linear)" stroke-width="2"/>
</g>
<path d="M386.811 225.78C387.66 226.052 388.227 226.853 388.201 227.744L386.42 288.596C386.382 289.926 385.079 290.847 383.812 290.442L381.648 289.749C381.011 289.546 380.518 289.037 380.334 288.394L366.605 240.351C366.396 239.619 366.621 238.831 367.185 238.32L381.676 225.185C382.205 224.706 382.949 224.545 383.629 224.762L386.811 225.78Z" fill="#72D77C"/>
<path d="M385.632 228.636C386.757 227.564 388.621 228.129 388.962 229.645L399.062 274.49C399.197 275.09 399.048 275.719 398.659 276.196L388.768 288.287C387.745 289.538 385.737 289.122 385.296 287.568L372.518 242.597C372.315 241.882 372.524 241.114 373.062 240.602L385.632 228.636Z" fill="#48B452"/>
<path d="M403.016 231.73C403.741 232.248 404.035 233.184 403.737 234.024L383.4 291.405C382.955 292.659 381.433 293.137 380.351 292.363L378.503 291.041C377.959 290.652 377.646 290.017 377.668 289.348L379.317 239.409C379.343 238.648 379.798 237.967 380.492 237.653L398.31 229.59C398.96 229.296 399.718 229.37 400.298 229.785L403.016 231.73Z" fill="#72D77C"/>
<path d="M401.019 234.086C402.418 233.411 404.019 234.52 403.879 236.067L399.755 281.85C399.699 282.463 399.365 283.016 398.848 283.35L385.729 291.83C384.371 292.707 382.588 291.696 382.644 290.082L384.257 243.358C384.283 242.616 384.718 241.949 385.387 241.626L401.019 234.086Z" fill="#48B452"/>
<path d="M370.121 265.328C369.959 264.452 370.396 263.574 371.193 263.175L425.652 235.965C426.842 235.37 428.27 236.082 428.512 237.39L428.926 239.624C429.047 240.282 428.832 240.957 428.353 241.423L392.515 276.241C391.969 276.771 391.169 276.946 390.451 276.69L372.025 270.135C371.353 269.895 370.859 269.316 370.729 268.614L370.121 265.328Z" fill="#48B452"/>
<path d="M373.194 265.017C371.718 264.532 371.334 262.623 372.508 261.606L407.245 231.498C407.71 231.095 408.334 230.928 408.938 231.046L424.27 234.042C425.856 234.352 426.438 236.318 425.278 237.442L391.698 269.969C391.164 270.486 390.388 270.665 389.682 270.433L373.194 265.017Z" fill="#72D77C"/>
<path d="M373.756 257.68C371.419 257.454 369.067 257.967 367.072 259.269C362.883 262.002 354.581 267.738 346.499 275.174C338.439 282.589 330.489 291.795 327.149 301.486C318.908 325.402 319.573 341.713 321.176 350.468C322.11 355.564 327.053 358.089 331.897 357.218C346.565 354.579 379.429 348.85 400.341 346.593C419.335 344.543 443.679 342.236 455.006 341.179C459.219 340.787 463.067 338.002 463.978 333.695C466.905 319.848 461.433 309.673 453.232 294.423C452.623 293.291 451.998 292.13 451.362 290.938C448.358 285.316 442.442 279.444 436.631 274.532C430.795 269.599 424.957 265.547 422.003 263.574C420.559 262.61 418.914 262.056 417.209 261.891L373.756 257.68Z" fill="#FBB971"/>
<path d="M373.756 257.68C371.419 257.454 369.067 257.967 367.072 259.269C362.883 262.002 354.581 267.738 346.499 275.174C338.439 282.589 330.489 291.795 327.149 301.486C318.908 325.402 319.573 341.713 321.176 350.468C322.11 355.564 327.053 358.089 331.897 357.218C346.565 354.579 379.429 348.85 400.341 346.593C419.335 344.543 443.679 342.236 455.006 341.179C459.219 340.787 463.067 338.002 463.978 333.695C466.905 319.848 461.433 309.673 453.232 294.423C452.623 293.291 451.998 292.13 451.362 290.938C448.358 285.316 442.442 279.444 436.631 274.532C430.795 269.599 424.957 265.547 422.003 263.574C420.559 262.61 418.914 262.056 417.209 261.891L373.756 257.68Z" stroke="#F99F3D" stroke-width="2"/>
<path d="M373.756 257.68C371.419 257.454 369.067 257.967 367.072 259.269C362.883 262.002 354.581 267.738 346.499 275.174C338.439 282.589 330.489 291.795 327.149 301.486C318.908 325.402 319.573 341.713 321.176 350.468C322.11 355.564 327.053 358.089 331.897 357.218C346.565 354.579 379.429 348.85 400.341 346.593C419.335 344.543 443.679 342.236 455.006 341.179C459.219 340.787 463.067 338.002 463.978 333.695C466.905 319.848 461.433 309.673 453.232 294.423C452.623 293.291 451.998 292.13 451.362 290.938C448.358 285.316 442.442 279.444 436.631 274.532C430.795 269.599 424.957 265.547 422.003 263.574C420.559 262.61 418.914 262.056 417.209 261.891L373.756 257.68Z" stroke="url(#paint9_linear)" stroke-width="2"/>
<path d="M368.749 243.483C362.846 243.701 358.928 249.461 360.585 255.067C362.068 260.087 367.378 262.794 372.375 262.085C376.167 261.547 380.71 261.326 384.888 262.222C391.925 263.731 408.162 265.555 417.067 266.495C421.251 266.937 425.289 264.924 427.493 261.351L428.152 260.282C431.576 254.732 429.447 247.348 423.231 245.026C418.445 243.238 412.799 241.464 408.52 241.163C403.343 240.799 398.902 241.667 394.632 242.5C394.426 242.54 394.221 242.58 394.016 242.62C389.538 243.491 385.2 244.264 380.126 243.641C377.278 243.292 372.821 243.333 368.749 243.483Z" fill="#FBB971"/>
<path d="M368.749 243.483C362.846 243.701 358.928 249.461 360.585 255.067C362.068 260.087 367.378 262.794 372.375 262.085C376.167 261.547 380.71 261.326 384.888 262.222C391.925 263.731 408.162 265.555 417.067 266.495C421.251 266.937 425.289 264.924 427.493 261.351L428.152 260.282C431.576 254.732 429.447 247.348 423.231 245.026C418.445 243.238 412.799 241.464 408.52 241.163C403.343 240.799 398.902 241.667 394.632 242.5C394.426 242.54 394.221 242.58 394.016 242.62C389.538 243.491 385.2 244.264 380.126 243.641C377.278 243.292 372.821 243.333 368.749 243.483Z" stroke="#F99F3D" stroke-width="2"/>
<path d="M368.749 243.483C362.846 243.701 358.928 249.461 360.585 255.067C362.068 260.087 367.378 262.794 372.375 262.085C376.167 261.547 380.71 261.326 384.888 262.222C391.925 263.731 408.162 265.555 417.067 266.495C421.251 266.937 425.289 264.924 427.493 261.351L428.152 260.282C431.576 254.732 429.447 247.348 423.231 245.026C418.445 243.238 412.799 241.464 408.52 241.163C403.343 240.799 398.902 241.667 394.632 242.5C394.426 242.54 394.221 242.58 394.016 242.62C389.538 243.491 385.2 244.264 380.126 243.641C377.278 243.292 372.821 243.333 368.749 243.483Z" stroke="url(#paint10_linear)" stroke-width="2"/>
<g filter="url(#filter5_d)">
<path d="M661.787 357.955C663.402 340.615 649.268 326.363 631.868 327.069C577.574 329.273 469.053 334.118 422.5 339.322C195.942 364.652 -42.4728 441.951 -92.1207 458.629C-98.3271 460.714 -103.46 464.775 -107.081 470.229L-135.994 513.781C-139.259 518.699 -141 524.47 -141 530.373L-141 551.713C-141 568.518 -127.231 582.036 -110.432 581.621C-63.4997 580.463 27.338 577.882 89 574C185.882 567.9 200.5 534.728 297.5 542C351.061 546.016 419.89 566.032 473.5 569.322C499.716 570.93 540.092 570.273 561.681 569.744C571.038 569.514 579.676 564.844 584.824 557.027C600.132 533.786 632.632 481.374 648.5 432.822C655.71 410.762 659.677 380.624 661.787 357.955Z" fill="url(#paint11_linear)"/>
<path d="M631.827 326.07C649.803 325.34 664.456 340.078 662.783 358.047C660.672 380.725 656.697 410.958 649.451 433.132C633.538 481.821 600.973 534.328 585.659 557.577C580.326 565.675 571.381 570.506 561.705 570.744C540.121 571.273 499.704 571.932 473.439 570.32C446.557 568.67 415.88 562.829 385.292 556.915C384.463 556.755 383.635 556.594 382.806 556.434C353.02 550.673 323.413 544.946 297.425 542.997C249.078 539.372 221.298 545.822 193.486 553.945C190.287 554.88 187.087 555.837 183.854 556.803C158.921 564.259 132.059 572.291 89.0628 574.998C27.3792 578.882 -63.4764 581.462 -110.408 582.621C-127.772 583.05 -142 569.076 -142 551.713L-142 530.373C-142 524.274 -140.201 518.309 -136.827 513.228L-107.914 469.676C-104.176 464.046 -98.8663 459.84 -92.4391 457.681C-42.7803 441 195.719 363.671 422.389 338.328C468.985 333.119 577.549 328.273 631.827 326.07Z" stroke="white" stroke-width="2"/>
<path d="M631.827 326.07C649.803 325.34 664.456 340.078 662.783 358.047C660.672 380.725 656.697 410.958 649.451 433.132C633.538 481.821 600.973 534.328 585.659 557.577C580.326 565.675 571.381 570.506 561.705 570.744C540.121 571.273 499.704 571.932 473.439 570.32C446.557 568.67 415.88 562.829 385.292 556.915C384.463 556.755 383.635 556.594 382.806 556.434C353.02 550.673 323.413 544.946 297.425 542.997C249.078 539.372 221.298 545.822 193.486 553.945C190.287 554.88 187.087 555.837 183.854 556.803C158.921 564.259 132.059 572.291 89.0628 574.998C27.3792 578.882 -63.4764 581.462 -110.408 582.621C-127.772 583.05 -142 569.076 -142 551.713L-142 530.373C-142 524.274 -140.201 518.309 -136.827 513.228L-107.914 469.676C-104.176 464.046 -98.8663 459.84 -92.4391 457.681C-42.7803 441 195.719 363.671 422.389 338.328C468.985 333.119 577.549 328.273 631.827 326.07Z" stroke="url(#paint12_linear)" stroke-width="2"/>
</g>
<path d="M719.266 118.592L738.659 116.637C739.816 116.572 740.751 117.01 741.337 117.706C741.924 118.404 742.188 119.394 741.932 120.492L738.285 134.472C737.987 135.377 737.279 136.302 736.33 136.645L736.33 136.645L736.325 136.647C732.59 138.045 725.287 140.461 717.2 142.456C709.326 144.398 700.754 145.929 694.019 145.752L696.659 129.715L718.064 106.908C718.635 106.393 719.211 106.11 719.795 106.023C720.384 105.934 721.025 106.037 721.729 106.368C722.982 106.955 723.497 108.702 722.872 110.05L718.773 117.863L718.341 118.686L719.266 118.592Z" fill="white" stroke="#2F3537"/>
<path d="M650.702 208.89L660.815 194.063L668.437 200.531L668.945 200.963L669.217 200.354L696.016 140.374L714.61 143.235C714.555 143.478 714.481 143.803 714.388 144.204C714.163 145.17 713.831 146.577 713.397 148.34C712.529 151.865 711.258 156.812 709.642 162.495C706.409 173.867 701.804 188.169 696.308 199.939C695.836 200.95 695.353 201.992 694.86 203.055C691.678 209.922 688.083 217.681 684.206 223.9C681.967 227.49 679.653 230.534 677.296 232.588C674.937 234.644 672.6 235.654 670.285 235.327C665.342 234.629 658.813 231.688 653.476 228.886C650.817 227.49 648.471 226.138 646.79 225.135C645.949 224.634 645.275 224.22 644.812 223.931C644.673 223.844 644.552 223.769 644.452 223.706L650.702 208.89Z" fill="white" stroke="#2F3537"/>
<g filter="url(#filter6_d)">
<path d="M611.686 479.655C612.723 473.662 618.867 470.061 624.63 472.005L631.099 474.188C635.378 475.631 637.624 480.319 636.067 484.558C634.506 488.808 636.757 493.556 640.804 495.585C646.75 498.565 654.813 503.613 659.715 510.822C660.478 511.943 660.753 513.331 660.744 514.77C660.71 519.857 654.814 521.957 650.058 520.149L613.45 506.238C610.303 505.042 608.306 502.303 608.7 498.959C609.306 493.815 610.576 486.07 611.686 479.655Z" fill="#FBB971"/>
<path d="M624.949 471.057C618.614 468.92 611.844 472.878 610.701 479.484C609.591 485.899 608.317 493.668 607.707 498.842C607.25 502.719 609.597 505.844 613.095 507.173L649.703 521.084C652.313 522.076 655.252 522.008 657.583 520.957C659.947 519.891 661.724 517.778 661.744 514.776C661.754 513.22 661.459 511.607 660.542 510.26C655.495 502.837 647.246 497.696 641.252 494.691C637.594 492.857 635.644 488.609 637.006 484.903C638.756 480.136 636.231 474.864 631.419 473.24L624.949 471.057Z" stroke="#F99F3D" stroke-width="2"/>
<path d="M624.949 471.057C618.614 468.92 611.844 472.878 610.701 479.484C609.591 485.899 608.317 493.668 607.707 498.842C607.25 502.719 609.597 505.844 613.095 507.173L649.703 521.084C652.313 522.076 655.252 522.008 657.583 520.957C659.947 519.891 661.724 517.778 661.744 514.776C661.754 513.22 661.459 511.607 660.542 510.26C655.495 502.837 647.246 497.696 641.252 494.691C637.594 492.857 635.644 488.609 637.006 484.903C638.756 480.136 636.231 474.864 631.419 473.24L624.949 471.057Z" stroke="url(#paint13_linear)" stroke-width="2"/>
</g>
<g filter="url(#filter7_d)">
<path d="M797.757 440.268C793.006 436.472 792.812 429.352 797.292 425.24L802.323 420.624C805.65 417.57 810.84 417.862 813.804 421.269C816.775 424.684 822.02 425.001 825.748 422.433C831.226 418.659 839.534 414.027 848.213 413.206C849.563 413.078 850.912 413.505 852.168 414.207C856.609 416.689 855.607 422.866 851.732 426.162L821.9 451.534C819.336 453.715 815.973 454.145 813.233 452.188C809.017 449.178 802.843 444.333 797.757 440.268Z" fill="#FBB971"/>
<path d="M796.616 424.504C791.69 429.024 791.896 436.864 797.133 441.05C802.218 445.113 808.412 449.974 812.652 453.002C815.828 455.271 819.697 454.721 822.548 452.296L852.38 426.924C854.506 425.115 855.863 422.507 856.066 419.958C856.271 417.373 855.276 414.798 852.655 413.334C851.296 412.575 849.741 412.057 848.119 412.21C839.182 413.055 830.702 417.805 825.18 421.609C821.811 423.93 817.15 423.592 814.558 420.613C811.225 416.781 805.388 416.453 801.647 419.887L796.616 424.504Z" stroke="#F99F3D" stroke-width="2"/>
<path d="M796.616 424.504C791.69 429.024 791.896 436.864 797.133 441.05C802.218 445.113 808.412 449.974 812.652 453.002C815.828 455.271 819.697 454.721 822.548 452.296L852.38 426.924C854.506 425.115 855.863 422.507 856.066 419.958C856.271 417.373 855.276 414.798 852.655 413.334C851.296 412.575 849.741 412.057 848.119 412.21C839.182 413.055 830.702 417.805 825.18 421.609C821.811 423.93 817.15 423.592 814.558 420.613C811.225 416.781 805.388 416.453 801.647 419.887L796.616 424.504Z" stroke="url(#paint14_linear)" stroke-width="2"/>
</g>
<g filter="url(#filter8_d)">
<path d="M614.215 264.899C614.215 259.935 618.326 255.958 623.287 256.122L673.821 257.793C674.416 257.812 674.998 257.882 675.577 258.021C680.64 259.235 706.523 266.07 712.715 280.322C719.366 295.627 691.613 359.49 689.807 363.613C689.744 363.757 689.687 363.896 689.631 364.042L645.57 478.135C643.68 483.03 638.328 485.631 633.312 484.094L619.066 479.728C614.503 478.33 611.565 473.927 612.104 469.185C614.062 451.948 619.105 411.161 625.716 384.544C630.443 365.508 640.428 335.589 644.216 324.431C645.165 321.635 644.841 318.58 643.327 316.046L615.458 269.403C614.645 268.041 614.215 266.485 614.215 264.899Z" fill="url(#paint15_linear)"/>
<path d="M690.563 364.402L689.631 364.042L690.563 364.402C690.615 364.27 690.666 364.145 690.723 364.014C691.63 361.945 699.032 344.919 705.378 326.486C708.55 317.273 711.467 307.68 713.175 299.416C714.028 295.284 714.585 291.459 714.714 288.165C714.842 284.893 714.553 282.042 713.633 279.924C710.378 272.433 702.048 267.03 694.142 263.375C686.178 259.693 678.369 257.662 675.81 257.049C675.156 256.892 674.507 256.815 673.854 256.793L623.32 255.123C617.794 254.94 613.215 259.37 613.215 264.899C613.215 266.665 613.694 268.399 614.6 269.916L642.468 316.559C643.832 318.842 644.124 321.591 643.269 324.11C639.483 335.26 629.485 365.219 624.745 384.303C618.116 410.993 613.068 451.843 611.11 469.072C610.516 474.301 613.757 479.147 618.773 480.684L633.019 485.05C638.537 486.741 644.424 483.879 646.503 478.495L690.563 364.402Z" stroke="white" stroke-width="2"/>
<path d="M690.563 364.402L689.631 364.042L690.563 364.402C690.615 364.27 690.666 364.145 690.723 364.014C691.63 361.945 699.032 344.919 705.378 326.486C708.55 317.273 711.467 307.68 713.175 299.416C714.028 295.284 714.585 291.459 714.714 288.165C714.842 284.893 714.553 282.042 713.633 279.924C710.378 272.433 702.048 267.03 694.142 263.375C686.178 259.693 678.369 257.662 675.81 257.049C675.156 256.892 674.507 256.815 673.854 256.793L623.32 255.123C617.794 254.94 613.215 259.37 613.215 264.899C613.215 266.665 613.694 268.399 614.6 269.916L642.468 316.559C643.832 318.842 644.124 321.591 643.269 324.11C639.483 335.26 629.485 365.219 624.745 384.303C618.116 410.993 613.068 451.843 611.11 469.072C610.516 474.301 613.757 479.147 618.773 480.684L633.019 485.05C638.537 486.741 644.424 483.879 646.503 478.495L690.563 364.402Z" stroke="url(#paint16_linear)" stroke-width="2"/>
</g>
<g filter="url(#filter9_d)">
<path d="M521.108 263.322C521.643 258.204 526.134 254.513 531.273 254.764L644.621 260.293C645.017 260.313 645.403 260.354 645.794 260.421C648.705 260.918 661.926 263.192 669.716 264.822C677.346 266.42 681.077 266.736 687.716 270.822C693.484 274.373 700.703 281.751 702.008 283.106C702.147 283.25 702.28 283.399 702.408 283.552L811.081 412.924C814.711 417.246 814.048 423.714 809.616 427.209L797.417 436.827C794.017 439.508 789.307 439.713 785.726 437.279C768.373 425.488 717.42 390.299 687.716 363.822C673.555 351.2 656.702 333.294 649.181 325.152C646.721 322.489 643.06 321.314 639.496 321.981C615.23 326.52 521.955 340.029 520.216 279.822C520.071 274.828 520.572 268.45 521.108 263.322Z" fill="url(#paint17_linear)"/>
<path d="M531.321 253.765C525.676 253.49 520.706 257.549 520.113 263.218C519.576 268.354 519.07 274.787 519.216 279.851C519.66 295.204 525.96 305.931 535.569 313.243C545.133 320.521 557.908 324.371 571.275 326.172C598.009 329.776 627.525 325.238 639.68 322.964C642.913 322.359 646.225 323.426 648.446 325.831C655.968 333.973 672.85 351.911 687.05 364.569C716.812 391.097 767.819 426.321 785.164 438.106C789.112 440.789 794.299 440.558 798.036 437.612L810.235 427.994C815.11 424.15 815.84 417.035 811.847 412.281L703.174 282.909C703.033 282.741 702.885 282.574 702.728 282.412C701.437 281.072 694.134 273.599 688.24 269.971C682.342 266.34 678.612 265.593 672.804 264.43C671.899 264.249 670.943 264.058 669.92 263.843C662.109 262.208 648.869 259.931 645.962 259.435C645.53 259.361 645.104 259.316 644.669 259.294L531.321 253.765Z" stroke="white" stroke-width="2"/>
<path d="M531.321 253.765C525.676 253.49 520.706 257.549 520.113 263.218C519.576 268.354 519.07 274.787 519.216 279.851C519.66 295.204 525.96 305.931 535.569 313.243C545.133 320.521 557.908 324.371 571.275 326.172C598.009 329.776 627.525 325.238 639.68 322.964C642.913 322.359 646.225 323.426 648.446 325.831C655.968 333.973 672.85 351.911 687.05 364.569C716.812 391.097 767.819 426.321 785.164 438.106C789.112 440.789 794.299 440.558 798.036 437.612L810.235 427.994C815.11 424.15 815.84 417.035 811.847 412.281L703.174 282.909C703.033 282.741 702.885 282.574 702.728 282.412C701.437 281.072 694.134 273.599 688.24 269.971C682.342 266.34 678.612 265.593 672.804 264.43C671.899 264.249 670.943 264.058 669.92 263.843C662.109 262.208 648.869 259.931 645.962 259.435C645.53 259.361 645.104 259.316 644.669 259.294L531.321 253.765Z" stroke="url(#paint18_linear)" stroke-width="2"/>
</g>
<path d="M600.212 21.7297C611.608 18.1871 618.024 22.074 629.82 26.7283C638.329 30.0856 650.866 29.1903 649.337 38.2088C648.308 44.2778 646.191 46.0524 640.571 48.5658C634.1 51.4602 622.452 49.6625 622.452 49.6625L597 46.5439L589.886 56.8971L584.146 87.3205C584.146 87.3205 554.201 47.3915 575.288 33.0423C578.929 30.5645 586.413 31.1123 586.413 31.1123C586.413 31.1123 593.083 23.9458 600.212 21.7297Z" fill="#2F3537"/>
<g filter="url(#filter10_d)">
<path d="M625.675 203.024C625.381 202.575 625.28 202.027 625.394 201.502L639.481 136.977C639.886 135.121 642.403 134.833 643.212 136.552C652.745 156.817 657.427 170.558 663.034 194.544C663.15 195.039 663.074 195.567 662.818 196.007L644.843 227.016C644.096 228.304 642.254 228.353 641.439 227.108L625.675 203.024Z" fill="#FBB971"/>
<path d="M624.417 201.289C624.246 202.076 624.397 202.898 624.838 203.572L640.602 227.656C641.825 229.524 644.588 229.449 645.708 227.517L663.684 196.509C664.068 195.845 664.181 195.056 664.008 194.316C658.387 170.269 653.682 156.462 644.117 136.127C642.899 133.538 639.112 133.98 638.504 136.764L624.417 201.289Z" stroke="#F99F3D" stroke-width="2"/>
<path d="M624.417 201.289C624.246 202.076 624.397 202.898 624.838 203.572L640.602 227.656C641.825 229.524 644.588 229.449 645.708 227.517L663.684 196.509C664.068 195.845 664.181 195.056 664.008 194.316C658.387 170.269 653.682 156.462 644.117 136.127C642.899 133.538 639.112 133.98 638.504 136.764L624.417 201.289Z" stroke="url(#paint19_linear)" stroke-width="2"/>
</g>
<path d="M584.293 72.4832L584.526 72.6722L584.469 72.9668L579.539 98.3705L579.463 98.7604L579.066 98.775L565.071 99.2864L565.682 100.438C566.295 101.595 567.151 103.21 568.122 105.041C570.065 108.702 572.469 113.226 574.316 116.679C577.447 122.535 581.475 128.779 585.49 133.453C587.499 135.792 589.49 137.72 591.35 139.011C593.223 140.311 594.889 140.915 596.273 140.741C598.8 140.424 600.879 138.668 602.588 136.076C604.293 133.489 605.577 130.141 606.531 126.803C607.483 123.47 608.097 120.175 608.473 117.71C608.661 116.479 608.789 115.457 608.87 114.743C608.911 114.387 608.94 114.107 608.958 113.917C608.961 113.886 608.964 113.858 608.967 113.832L604.168 108.045L604.017 107.864L604.062 107.632L607.897 87.6333L608.049 86.8397L584.293 72.4832ZM584.293 72.4832L584.293 72.4832L584.293 72.4832L584.293 72.4829L584.291 72.4812L584.281 72.4735L584.242 72.4415C584.208 72.4129 584.157 72.3699 584.091 72.3138C583.959 72.2016 583.769 72.0367 583.54 71.8281C583.079 71.4105 582.46 70.82 581.824 70.1279C581.188 69.4346 580.541 68.6468 580.021 67.8349C579.498 67.0183 579.122 66.2055 578.993 65.4591C578.695 63.7358 578.349 61.7249 578.765 60.0844C578.969 59.284 579.349 58.5953 579.997 58.0743C580.648 57.5506 581.612 57.1614 583.042 57.0422C583.479 57.0057 583.861 57.1579 584.233 57.4331C584.589 57.696 584.901 58.0425 585.224 58.4012C585.25 58.431 585.277 58.4609 585.304 58.4908C585.473 58.6778 585.65 58.8704 585.828 59.0317C586.004 59.1905 586.213 59.3485 586.454 59.4374C586.713 59.533 587.001 59.5449 587.29 59.4185C587.561 59.3004 587.786 59.082 587.982 58.8107C590.234 55.6993 592.65 52.4632 594.505 50.0042C595.432 48.7749 596.218 47.7402 596.772 47.0129C597.05 46.6492 597.269 46.3624 597.419 46.1666L597.491 46.0722L631.432 47.5202M584.293 72.4832L631.432 47.5202M608.691 87.33L608.691 87.3299L608.691 87.33ZM608.691 87.33L608.691 87.3301L608.693 87.3318L608.704 87.3395L608.747 87.3716C608.786 87.4001 608.844 87.4425 608.92 87.4964C609.072 87.6041 609.295 87.7575 609.575 87.9376C610.135 88.2983 610.92 88.7628 611.818 89.1811C613.651 90.0341 615.81 90.6251 617.52 89.9636C619.399 89.2368 621.083 87.7733 622.594 85.933C624.103 84.0959 625.415 81.9169 626.561 79.8055C628.126 76.9205 628.808 72.9813 629.091 69.7173C629.231 68.0938 629.272 66.6539 629.277 65.6202C629.28 65.1036 629.274 64.689 629.267 64.4044C629.264 64.2621 629.26 64.1523 629.258 64.0786L629.255 63.9954L629.254 63.9749L629.253 63.97L629.253 63.969L629.253 63.9689L629.251 63.9239L629.257 63.8793L631.432 47.5202M608.691 87.33L631.432 47.5202" fill="white" stroke="#2F3537"/>
<ellipse cx="630.439" cy="61.4053" rx="8.12007" ry="9.74408" transform="rotate(14.32 630.439 61.4053)" fill="#F99F3D"/>
<ellipse cx="611.303" cy="63.1275" rx="8.12007" ry="9.74408" transform="rotate(14.32 611.303 63.1275)" fill="#FFBF78"/>
<path d="M587.916 57.0547L604.399 58.7139L604.316 60.8777L587.833 59.2184L587.916 57.0547Z" fill="#FFBF78"/>
<g filter="url(#filter11_d)">
<path d="M532.735 100.568C533.022 99.8107 533.744 99.3158 534.554 99.3058L572.014 98.8433C572.995 98.8312 573.841 99.5211 574.049 100.48C575.347 106.46 580.572 126.664 592.216 128.322C600.973 129.569 605.989 119.54 607.862 114.761C608.34 113.541 609.818 112.977 610.945 113.646L639.578 130.647C640.268 131.056 640.646 131.838 640.539 132.633L623.452 259.564C623.317 260.568 622.454 261.312 621.442 261.297L518.37 259.853C517.207 259.836 516.303 258.835 516.405 257.676L524.707 163.915C524.713 163.853 524.715 163.797 524.715 163.735C524.71 162.089 524.671 137.564 526.716 121.822C527.686 114.349 531.401 104.09 532.735 100.568Z" fill="#FBB971"/>
<path d="M534.542 98.3059C533.329 98.3208 532.235 99.0638 531.8 100.214C530.47 103.726 526.712 114.088 525.724 121.693C523.67 137.512 523.71 162.104 523.715 163.738C523.715 163.767 523.714 163.793 523.711 163.827L515.409 257.588C515.256 259.326 516.611 260.828 518.356 260.852L621.428 262.297C622.946 262.319 624.241 261.202 624.443 259.698L641.53 132.767C641.691 131.574 641.123 130.401 640.089 129.787L611.455 112.786C609.759 111.779 607.617 112.645 606.931 114.396C606.011 116.744 604.339 120.322 601.868 123.143C599.403 125.957 596.269 127.889 592.357 127.332C587.078 126.581 583.062 121.562 580.152 115.584C577.28 109.685 575.669 103.23 575.027 100.268C574.72 98.856 573.469 97.8252 572.002 97.8434L534.542 98.3059Z" stroke="#F99F3D" stroke-width="2"/>
<path d="M534.542 98.3059C533.329 98.3208 532.235 99.0638 531.8 100.214C530.47 103.726 526.712 114.088 525.724 121.693C523.67 137.512 523.71 162.104 523.715 163.738C523.715 163.767 523.714 163.793 523.711 163.827L515.409 257.588C515.256 259.326 516.611 260.828 518.356 260.852L621.428 262.297C622.946 262.319 624.241 261.202 624.443 259.698L641.53 132.767C641.691 131.574 641.123 130.401 640.089 129.787L611.455 112.786C609.759 111.779 607.617 112.645 606.931 114.396C606.011 116.744 604.339 120.322 601.868 123.143C599.403 125.957 596.269 127.889 592.357 127.332C587.078 126.581 583.062 121.562 580.152 115.584C577.28 109.685 575.669 103.23 575.027 100.268C574.72 98.856 573.469 97.8252 572.002 97.8434L534.542 98.3059Z" stroke="url(#paint20_linear)" stroke-width="2"/>
</g>
<path d="M688.5 131.985C688.5 131.124 689.051 130.36 689.868 130.088L747.368 110.921C748.663 110.49 750 111.453 750 112.819L750 116.972C750 117.641 749.665 118.267 749.107 118.637L706.229 147.148C705.606 147.562 704.805 147.594 704.151 147.231L689.529 139.115C688.894 138.762 688.5 138.093 688.5 137.366L688.5 131.985Z" fill="#48B452"/>
<path d="M688.5 131.985C688.5 131.124 689.051 130.36 689.868 130.088L747.368 110.921C748.663 110.49 750 111.453 750 112.819L750 116.972C750 117.641 749.665 118.267 749.107 118.637L706.229 147.148C705.606 147.562 704.805 147.594 704.151 147.231L689.529 139.115C688.894 138.762 688.5 138.093 688.5 137.366L688.5 131.985Z" fill="url(#paint21_linear)" fill-opacity="0.5"/>
<path d="M689.291 132.579C687.928 131.834 687.898 129.888 689.236 129.1L732.659 103.539C733.19 103.227 733.835 103.176 734.408 103.402L748.922 109.132C750.428 109.726 750.641 111.77 749.289 112.662L706.586 140.823C705.968 141.23 705.175 141.263 704.526 140.908L689.291 132.579Z" fill="#72D77C"/>
<path d="M689.291 132.579C687.928 131.834 687.898 129.888 689.236 129.1L732.659 103.539C733.19 103.227 733.835 103.176 734.408 103.402L748.922 109.132C750.428 109.726 750.641 111.77 749.289 112.662L706.586 140.823C705.968 141.23 705.175 141.263 704.526 140.908L689.291 132.579Z" fill="url(#paint22_linear)" fill-opacity="0.5"/>
<path d="M543.004 205.052C542.941 204.878 542.887 204.728 542.843 204.603L574.492 191.457L583.277 207.562L583.341 207.68L583.457 207.75L662.957 255.75L663.089 255.83L663.244 255.821L663.244 255.821L663.245 255.821L663.25 255.821L663.272 255.82L663.358 255.816C663.434 255.812 663.547 255.807 663.693 255.801C663.986 255.789 664.413 255.776 664.945 255.766C666.01 255.747 667.496 255.745 669.181 255.815C672.564 255.956 676.697 256.385 679.83 257.514C681.337 258.058 683.633 259.686 686.188 261.908C688.723 264.112 691.457 266.849 693.831 269.543C696.21 272.243 698.205 274.874 699.283 276.868C699.828 277.878 700.101 278.658 700.119 279.176C700.128 279.424 700.076 279.561 700.018 279.638C699.965 279.708 699.862 279.789 699.63 279.83C696.86 280.311 692.913 279.833 688.493 278.804C684.09 277.779 679.283 276.224 674.824 274.602C670.366 272.981 666.266 271.298 663.279 270.019C661.786 269.38 660.572 268.842 659.732 268.464C659.312 268.275 658.985 268.126 658.764 268.025C658.653 267.974 658.568 267.935 658.512 267.909L658.448 267.879L658.432 267.872L658.428 267.87L658.427 267.869C658.427 267.869 658.427 267.869 658.39 267.948L658.427 267.869L658.376 267.845L658.321 267.833L658.215 268.322C658.321 267.833 658.321 267.833 658.32 267.833L658.32 267.833L658.317 267.833L658.306 267.83L658.26 267.82L658.082 267.782C657.926 267.748 657.695 267.698 657.397 267.633C656.802 267.504 655.94 267.316 654.873 267.08C652.738 266.61 649.783 265.951 646.501 265.2C639.933 263.696 632.07 261.824 626.852 260.341C604.207 253.907 578.058 244.517 560.002 231.912C554.825 228.298 550.496 221.398 547.447 215.33C545.929 212.307 544.738 209.513 543.928 207.475C543.522 206.455 543.212 205.626 543.004 205.052Z" fill="white" stroke="#2F3537"/>
<g filter="url(#filter12_d)">
<path d="M581.199 188.361C579.528 182.035 572.673 157 563.252 134.959C558.547 123.952 553.168 113.609 547.429 106.72C544.56 103.277 541.545 100.627 538.413 99.2208C535.24 97.7961 531.957 97.6566 528.693 99.2261C525.039 100.984 522.699 104.542 521.225 108.851C519.748 113.169 519.089 118.382 518.892 123.688C518.517 133.767 519.805 144.407 520.524 150.341C520.562 150.656 520.598 150.959 520.633 151.247C523.147 172.162 534.333 201.305 537.405 209.035C538.057 210.673 539.945 211.339 541.487 210.577L579.619 191.741C580.855 191.13 581.571 189.77 581.199 188.361Z" fill="#FBB971"/>
<path d="M581.199 188.361C579.528 182.035 572.673 157 563.252 134.959C558.547 123.952 553.168 113.609 547.429 106.72C544.56 103.277 541.545 100.627 538.413 99.2208C535.24 97.7961 531.957 97.6566 528.693 99.2261C525.039 100.984 522.699 104.542 521.225 108.851C519.748 113.169 519.089 118.382 518.892 123.688C518.517 133.767 519.805 144.407 520.524 150.341C520.562 150.656 520.598 150.959 520.633 151.247C523.147 172.162 534.333 201.305 537.405 209.035C538.057 210.673 539.945 211.339 541.487 210.577L579.619 191.741C580.855 191.13 581.571 189.77 581.199 188.361Z" stroke="#F99F3D" stroke-width="2"/>
<path d="M581.199 188.361C579.528 182.035 572.673 157 563.252 134.959C558.547 123.952 553.168 113.609 547.429 106.72C544.56 103.277 541.545 100.627 538.413 99.2208C535.24 97.7961 531.957 97.6566 528.693 99.2261C525.039 100.984 522.699 104.542 521.225 108.851C519.748 113.169 519.089 118.382 518.892 123.688C518.517 133.767 519.805 144.407 520.524 150.341C520.562 150.656 520.598 150.959 520.633 151.247C523.147 172.162 534.333 201.305 537.405 209.035C538.057 210.673 539.945 211.339 541.487 210.577L579.619 191.741C580.855 191.13 581.571 189.77 581.199 188.361Z" stroke="url(#paint23_linear)" stroke-width="2"/>
</g>
<defs>
<filter id="filter0_d" x="-65.6778" y="126.54" width="346.272" height="314.619" filterUnits="userSpaceOnUse" color-interpolation-filters="sRGB">
<feFlood flood-opacity="0" result="BackgroundImageFix"/>
<feColorMatrix in="SourceAlpha" type="matrix" values="0 0 0 0 0 0 0 0 0 0 0 0 0 0 0 0 0 0 127 0"/>
<feOffset dy="4"/>
<feGaussianBlur stdDeviation="50"/>
<feColorMatrix type="matrix" values="0 0 0 0 0.5 0 0 0 0 0.5 0 0 0 0 0.5 0 0 0 0.3 0"/>
<feBlend mode="normal" in2="BackgroundImageFix" result="effect1_dropShadow"/>
<feBlend mode="normal" in="SourceGraphic" in2="effect1_dropShadow" result="shape"/>
</filter>
<filter id="filter1_d" x="-154.868" y="176.883" width="418.053" height="377.705" filterUnits="userSpaceOnUse" color-interpolation-filters="sRGB">
<feFlood flood-opacity="0" result="BackgroundImageFix"/>
<feColorMatrix in="SourceAlpha" type="matrix" values="0 0 0 0 0 0 0 0 0 0 0 0 0 0 0 0 0 0 127 0"/>
<feOffset dy="4"/>
<feGaussianBlur stdDeviation="50"/>
<feColorMatrix type="matrix" values="0 0 0 0 0.5 0 0 0 0 0.5 0 0 0 0 0.5 0 0 0 0.3 0"/>
<feBlend mode="normal" in2="BackgroundImageFix" result="effect1_dropShadow"/>
<feBlend mode="normal" in="SourceGraphic" in2="effect1_dropShadow" result="shape"/>
</filter>
<filter id="filter2_d" x="89.0079" y="101" width="244.992" height="230" filterUnits="userSpaceOnUse" color-interpolation-filters="sRGB">
<feFlood flood-opacity="0" result="BackgroundImageFix"/>
<feColorMatrix in="SourceAlpha" type="matrix" values="0 0 0 0 0 0 0 0 0 0 0 0 0 0 0 0 0 0 127 0"/>
<feOffset dy="4"/>
<feGaussianBlur stdDeviation="50"/>
<feColorMatrix type="matrix" values="0 0 0 0 0.5 0 0 0 0 0.5 0 0 0 0 0.5 0 0 0 0.3 0"/>
<feBlend mode="normal" in2="BackgroundImageFix" result="effect1_dropShadow"/>
<feBlend mode="normal" in="SourceGraphic" in2="effect1_dropShadow" result="shape"/>
</filter>
<filter id="filter3_d" x="67.0152" y="125.635" width="387.67" height="272.947" filterUnits="userSpaceOnUse" color-interpolation-filters="sRGB">
<feFlood flood-opacity="0" result="BackgroundImageFix"/>
<feColorMatrix in="SourceAlpha" type="matrix" values="0 0 0 0 0 0 0 0 0 0 0 0 0 0 0 0 0 0 127 0"/>
<feOffset dy="4"/>
<feGaussianBlur stdDeviation="50"/>
<feColorMatrix type="matrix" values="0 0 0 0 0.5 0 0 0 0 0.5 0 0 0 0 0.5 0 0 0 0.3 0"/>
<feBlend mode="normal" in2="BackgroundImageFix" result="effect1_dropShadow"/>
<feBlend mode="normal" in="SourceGraphic" in2="effect1_dropShadow" result="shape"/>
</filter>
<filter id="filter4_d" x="32.9617" y="164.382" width="565.583" height="361.065" filterUnits="userSpaceOnUse" color-interpolation-filters="sRGB">
<feFlood flood-opacity="0" result="BackgroundImageFix"/>
<feColorMatrix in="SourceAlpha" type="matrix" values="0 0 0 0 0 0 0 0 0 0 0 0 0 0 0 0 0 0 127 0"/>
<feOffset dy="4"/>
<feGaussianBlur stdDeviation="50"/>
<feColorMatrix type="matrix" values="0 0 0 0 0.5 0 0 0 0 0.5 0 0 0 0 0.5 0 0 0 0.3 0"/>
<feBlend mode="normal" in2="BackgroundImageFix" result="effect1_dropShadow"/>
<feBlend mode="normal" in="SourceGraphic" in2="effect1_dropShadow" result="shape"/>
</filter>
<filter id="filter5_d" x="-243" y="229.043" width="1006.91" height="458.587" filterUnits="userSpaceOnUse" color-interpolation-filters="sRGB">
<feFlood flood-opacity="0" result="BackgroundImageFix"/>
<feColorMatrix in="SourceAlpha" type="matrix" values="0 0 0 0 0 0 0 0 0 0 0 0 0 0 0 0 0 0 127 0"/>
<feOffset dy="4"/>
<feGaussianBlur stdDeviation="50"/>
<feColorMatrix type="matrix" values="0 0 0 0 0.5 0 0 0 0 0.5 0 0 0 0 0.5 0 0 0 0.3 0"/>
<feBlend mode="normal" in2="BackgroundImageFix" result="effect1_dropShadow"/>
<feBlend mode="normal" in="SourceGraphic" in2="effect1_dropShadow" result="shape"/>
</filter>
<filter id="filter6_d" x="506.65" y="373.475" width="256.094" height="253.313" filterUnits="userSpaceOnUse" color-interpolation-filters="sRGB">
<feFlood flood-opacity="0" result="BackgroundImageFix"/>
<feColorMatrix in="SourceAlpha" type="matrix" values="0 0 0 0 0 0 0 0 0 0 0 0 0 0 0 0 0 0 127 0"/>
<feOffset dy="4"/>
<feGaussianBlur stdDeviation="50"/>
<feColorMatrix type="matrix" values="0 0 0 0 0.5 0 0 0 0 0.5 0 0 0 0 0.5 0 0 0 0.3 0"/>
<feBlend mode="normal" in2="BackgroundImageFix" result="effect1_dropShadow"/>
<feBlend mode="normal" in="SourceGraphic" in2="effect1_dropShadow" result="shape"/>
</filter>
<filter id="filter7_d" x="686.41" y="294.625" width="273.747" height="274.844" filterUnits="userSpaceOnUse" color-interpolation-filters="sRGB">
<feFlood flood-opacity="0" result="BackgroundImageFix"/>
<feColorMatrix in="SourceAlpha" type="matrix" values="0 0 0 0 0 0 0 0 0 0 0 0 0 0 0 0 0 0 127 0"/>
<feOffset dy="4"/>
<feGaussianBlur stdDeviation="50"/>
<feColorMatrix type="matrix" values="0 0 0 0 0.5 0 0 0 0 0.5 0 0 0 0 0.5 0 0 0 0.3 0"/>
<feBlend mode="normal" in2="BackgroundImageFix" result="effect1_dropShadow"/>
<feBlend mode="normal" in="SourceGraphic" in2="effect1_dropShadow" result="shape"/>
</filter>
<filter id="filter8_d" x="510.04" y="158.117" width="305.702" height="432.418" filterUnits="userSpaceOnUse" color-interpolation-filters="sRGB">
<feFlood flood-opacity="0" result="BackgroundImageFix"/>
<feColorMatrix in="SourceAlpha" type="matrix" values="0 0 0 0 0 0 0 0 0 0 0 0 0 0 0 0 0 0 127 0"/>
<feOffset dy="4"/>
<feGaussianBlur stdDeviation="50"/>
<feColorMatrix type="matrix" values="0 0 0 0 0.5 0 0 0 0 0.5 0 0 0 0 0.5 0 0 0 0.3 0"/>
<feBlend mode="normal" in2="BackgroundImageFix" result="effect1_dropShadow"/>
<feBlend mode="normal" in="SourceGraphic" in2="effect1_dropShadow" result="shape"/>
</filter>
<filter id="filter9_d" x="418.19" y="156.752" width="497.234" height="388.227" filterUnits="userSpaceOnUse" color-interpolation-filters="sRGB">
<feFlood flood-opacity="0" result="BackgroundImageFix"/>
<feColorMatrix in="SourceAlpha" type="matrix" values="0 0 0 0 0 0 0 0 0 0 0 0 0 0 0 0 0 0 127 0"/>
<feOffset dy="4"/>
<feGaussianBlur stdDeviation="50"/>
<feColorMatrix type="matrix" values="0 0 0 0 0.5 0 0 0 0 0.5 0 0 0 0 0.5 0 0 0 0.3 0"/>
<feBlend mode="normal" in2="BackgroundImageFix" result="effect1_dropShadow"/>
<feBlend mode="normal" in="SourceGraphic" in2="effect1_dropShadow" result="shape"/>
</filter>
<filter id="filter10_d" x="523.348" y="37.4097" width="241.738" height="296.603" filterUnits="userSpaceOnUse" color-interpolation-filters="sRGB">
<feFlood flood-opacity="0" result="BackgroundImageFix"/>
<feColorMatrix in="SourceAlpha" type="matrix" values="0 0 0 0 0 0 0 0 0 0 0 0 0 0 0 0 0 0 127 0"/>
<feOffset dy="4"/>
<feGaussianBlur stdDeviation="50"/>
<feColorMatrix type="matrix" values="0 0 0 0 0.5 0 0 0 0 0.5 0 0 0 0 0.5 0 0 0 0.3 0"/>
<feBlend mode="normal" in2="BackgroundImageFix" result="effect1_dropShadow"/>
<feBlend mode="normal" in="SourceGraphic" in2="effect1_dropShadow" result="shape"/>
</filter>
<filter id="filter11_d" x="414.397" y="0.843262" width="328.16" height="366.454" filterUnits="userSpaceOnUse" color-interpolation-filters="sRGB">
<feFlood flood-opacity="0" result="BackgroundImageFix"/>
<feColorMatrix in="SourceAlpha" type="matrix" values="0 0 0 0 0 0 0 0 0 0 0 0 0 0 0 0 0 0 127 0"/>
<feOffset dy="4"/>
<feGaussianBlur stdDeviation="50"/>
<feColorMatrix type="matrix" values="0 0 0 0 0.5 0 0 0 0 0.5 0 0 0 0 0.5 0 0 0 0.3 0"/>
<feBlend mode="normal" in2="BackgroundImageFix" result="effect1_dropShadow"/>
<feBlend mode="normal" in="SourceGraphic" in2="effect1_dropShadow" result="shape"/>
</filter>
<filter id="filter12_d" x="417.825" y="1.1001" width="264.474" height="314.791" filterUnits="userSpaceOnUse" color-interpolation-filters="sRGB">
<feFlood flood-opacity="0" result="BackgroundImageFix"/>
<feColorMatrix in="SourceAlpha" type="matrix" values="0 0 0 0 0 0 0 0 0 0 0 0 0 0 0 0 0 0 127 0"/>
<feOffset dy="4"/>
<feGaussianBlur stdDeviation="50"/>
<feColorMatrix type="matrix" values="0 0 0 0 0.5 0 0 0 0 0.5 0 0 0 0 0.5 0 0 0 0.3 0"/>
<feBlend mode="normal" in2="BackgroundImageFix" result="effect1_dropShadow"/>
<feBlend mode="normal" in="SourceGraphic" in2="effect1_dropShadow" result="shape"/>
</filter>
<linearGradient id="paint0_linear" x1="64.6845" y1="197.659" x2="193.61" y2="232.424" gradientUnits="userSpaceOnUse">
<stop stop-color="#F7F7F7"/>
<stop offset="1" stop-color="#F2F2F2" stop-opacity="0.75"/>
</linearGradient>
<linearGradient id="paint1_linear" x1="87.016" y1="353.313" x2="55.6104" y2="212.532" gradientUnits="userSpaceOnUse">
<stop stop-color="#EAEAEB"/>
<stop offset="1" stop-color="white" stop-opacity="0"/>
</linearGradient>
<linearGradient id="paint2_linear" x1="-12.1645" y1="239.502" x2="172.815" y2="286.432" gradientUnits="userSpaceOnUse">
<stop stop-color="#F7F7F7"/>
<stop offset="1" stop-color="#F2F2F2" stop-opacity="0.75"/>
</linearGradient>
<linearGradient id="paint3_linear" x1="19.627" y1="475.031" x2="-30.5751" y2="263.311" gradientUnits="userSpaceOnUse">
<stop stop-color="#EAEAEB"/>
<stop offset="1" stop-color="white" stop-opacity="0"/>
</linearGradient>
<linearGradient id="paint4_linear" x1="209.5" y1="212.453" x2="220.241" y2="237.172" gradientUnits="userSpaceOnUse">
<stop stop-color="#FCCC98"/>
<stop offset="1" stop-color="white" stop-opacity="0"/>
</linearGradient>
<linearGradient id="paint5_linear" x1="205.817" y1="208.507" x2="340.061" y2="284.72" gradientUnits="userSpaceOnUse">
<stop stop-color="#F7F7F7"/>
<stop offset="1" stop-color="#F2F2F2" stop-opacity="0.75"/>
</linearGradient>
<linearGradient id="paint6_linear" x1="234.48" y1="303.402" x2="225.039" y2="214.304" gradientUnits="userSpaceOnUse">
<stop stop-color="#EAEAEB"/>
<stop offset="1" stop-color="white" stop-opacity="0"/>
</linearGradient>
<linearGradient id="paint7_linear" x1="430.408" y1="258.744" x2="165.931" y2="384.895" gradientUnits="userSpaceOnUse">
<stop stop-color="#F7F7F7"/>
<stop offset="1" stop-color="#F2F2F2" stop-opacity="0.75"/>
</linearGradient>
<linearGradient id="paint8_linear" x1="360.869" y1="429.425" x2="391.788" y2="266.137" gradientUnits="userSpaceOnUse">
<stop stop-color="#EAEAEB"/>
<stop offset="1" stop-color="white" stop-opacity="0"/>
</linearGradient>
<linearGradient id="paint9_linear" x1="325.513" y1="255.819" x2="364.49" y2="351.482" gradientUnits="userSpaceOnUse">
<stop stop-color="#FCCC98"/>
<stop offset="1" stop-color="white" stop-opacity="0"/>
</linearGradient>
<linearGradient id="paint10_linear" x1="357.646" y1="237.668" x2="361.459" y2="264.845" gradientUnits="userSpaceOnUse">
<stop stop-color="#FCCC98"/>
<stop offset="1" stop-color="white" stop-opacity="0"/>
</linearGradient>
<linearGradient id="paint11_linear" x1="503.646" y1="270.329" x2="-29.9662" y2="627.838" gradientUnits="userSpaceOnUse">
<stop stop-color="#F7F7F7"/>
<stop offset="1" stop-color="#F2F2F2" stop-opacity="0.75"/>
</linearGradient>
<linearGradient id="paint12_linear" x1="378.806" y1="620.55" x2="408.423" y2="290.69" gradientUnits="userSpaceOnUse">
<stop stop-color="#EAEAEB"/>
<stop offset="1" stop-color="white" stop-opacity="0"/>
</linearGradient>
<linearGradient id="paint13_linear" x1="607.123" y1="469.282" x2="637.008" y2="508.903" gradientUnits="userSpaceOnUse">
<stop stop-color="#FCCC98"/>
<stop offset="1" stop-color="white" stop-opacity="0"/>
</linearGradient>
<linearGradient id="paint14_linear" x1="786.469" y1="439.268" x2="835.588" y2="432.177" gradientUnits="userSpaceOnUse">
<stop stop-color="#FCCC98"/>
<stop offset="1" stop-color="white" stop-opacity="0"/>
</linearGradient>
<linearGradient id="paint15_linear" x1="631.639" y1="205.846" x2="729.231" y2="215.093" gradientUnits="userSpaceOnUse">
<stop stop-color="#F7F7F7"/>
<stop offset="1" stop-color="#F2F2F2"/>
</linearGradient>
<linearGradient id="paint16_linear" x1="647.539" y1="521.25" x2="512.033" y2="307.819" gradientUnits="userSpaceOnUse">
<stop stop-color="#EAEAEB"/>
<stop offset="1" stop-color="white" stop-opacity="0"/>
</linearGradient>
<linearGradient id="paint17_linear" x1="579.457" y1="213.866" x2="835.649" y2="300.882" gradientUnits="userSpaceOnUse">
<stop stop-color="#F7F7F7"/>
<stop offset="1" stop-color="#F2F2F2"/>
</linearGradient>
<linearGradient id="paint18_linear" x1="625.597" y1="469.192" x2="583.968" y2="234.144" gradientUnits="userSpaceOnUse">
<stop stop-color="#EAEAEB"/>
<stop offset="1" stop-color="white"/>
</linearGradient>
<linearGradient id="paint19_linear" x1="624.332" y1="133.04" x2="670.725" y2="157.945" gradientUnits="userSpaceOnUse">
<stop stop-color="#FCCC98"/>
<stop offset="1" stop-color="white" stop-opacity="0"/>
</linearGradient>
<linearGradient id="paint20_linear" x1="513.32" y1="101.657" x2="604.964" y2="199.358" gradientUnits="userSpaceOnUse">
<stop stop-color="#FCCC98"/>
<stop offset="1" stop-color="white" stop-opacity="0"/>
</linearGradient>
<linearGradient id="paint21_linear" x1="728.954" y1="101.622" x2="708.308" y2="149.165" gradientUnits="userSpaceOnUse">
<stop stop-color="white"/>
<stop offset="1" stop-color="white" stop-opacity="0"/>
</linearGradient>
<linearGradient id="paint22_linear" x1="728.325" y1="100.046" x2="709.577" y2="143.22" gradientUnits="userSpaceOnUse">
<stop stop-color="white"/>
<stop offset="1" stop-color="white" stop-opacity="0"/>
</linearGradient>
<linearGradient id="paint23_linear" x1="518.411" y1="101.045" x2="579.106" y2="147.088" gradientUnits="userSpaceOnUse">
<stop stop-color="#FCCC98"/>
<stop offset="1" stop-color="white" stop-opacity="0"/>
</linearGradient>
</defs>
</svg>
