<svg width="320" height="399" fill="none" xmlns="http://www.w3.org/2000/svg"><g filter="url(#filter0_d)"><path d="M-45.164 177.637c.168-.25.395-.454.658-.601l47.29-26.475c1.586-.888 3.483.643 3.01 2.398-.543 2.009-1.098 4.302-1.384 6.184-.472 3.118-.577 7.567-.599 9.754a2.029 2.029 0 01-1.215 1.844l-50.279 21.893c-1.385.603-2.887-.486-2.666-1.981.312-2.105.828-4.793 1.619-6.751.91-2.253 2.863-5.226 3.566-6.265z" fill="url(#paint0_linear)"/><path d="M-44.995 176.163l.489.873-.489-.873c-.394.221-.738.53-.998.914-.697 1.029-2.71 4.085-3.665 6.451-.837 2.075-1.367 4.862-1.68 6.979-.343 2.321 1.997 3.94 4.055 3.044l50.278-21.893a3.03 3.03 0 001.816-2.751c.022-2.19.127-6.574.588-9.614.277-1.825.82-4.074 1.36-6.073.693-2.567-2.066-4.874-4.464-3.532l.484.866-.484-.866-47.29 26.475z" stroke="#fff" stroke-width="2"/><path d="M-44.995 176.163l.489.873-.489-.873c-.394.221-.738.53-.998.914-.697 1.029-2.71 4.085-3.665 6.451-.837 2.075-1.367 4.862-1.68 6.979-.343 2.321 1.997 3.94 4.055 3.044l50.278-21.893a3.03 3.03 0 001.816-2.751c.022-2.19.127-6.574.588-9.614.277-1.825.82-4.074 1.36-6.073.693-2.567-2.066-4.874-4.464-3.532l.484.866-.484-.866-47.29 26.475z" stroke="url(#paint1_linear)" stroke-width="2"/></g><g filter="url(#filter1_d)"><path d="M-85.22 211.052a2.002 2.002 0 011.126-1.705l79.411-38.504c1.716-.832 3.58 1.009 2.812 2.754-2.185 4.966-5.186 12.464-6.197 18.242-1.296 7.403-1.287 18.596-1.235 22.635a2.02 2.02 0 01-1.432 1.962l-73.123 22.196a2 2 0 01-2.579-2.009l1.218-25.571z" fill="url(#paint2_linear)"/><path d="M-84.53 208.448a2.999 2.999 0 00-1.688 2.556l-1.218 25.571c-.098 2.072 1.884 3.616 3.868 3.014l73.123-22.196a3.021 3.021 0 002.142-2.932c-.052-4.049-.057-15.152 1.22-22.45.988-5.646 3.942-13.046 6.127-18.011 1.128-2.562-1.576-5.311-4.163-4.057l-79.412 38.505z" stroke="#fff" stroke-width="2"/><path d="M-84.53 208.448a2.999 2.999 0 00-1.688 2.556l-1.218 25.571c-.098 2.072 1.884 3.616 3.868 3.014l73.123-22.196a3.021 3.021 0 002.142-2.932c-.052-4.049-.057-15.152 1.22-22.45.988-5.646 3.942-13.046 6.127-18.011 1.128-2.562-1.576-5.311-4.163-4.057l-79.412 38.505z" stroke="url(#paint3_linear)" stroke-width="2"/></g><g filter="url(#filter2_d)"><path d="M13.27 140.485c-.771-.575-.365-1.801.598-1.801h13.297a1 1 0 011 1v8.467a1 1 0 01-1 1H13.868c-.963 0-1.37-1.227-.598-1.802l3.527-2.63a1 1 0 000-1.603l-3.527-2.631z" fill="#FBB971"/><path d="M13.868 137.684c-1.925 0-2.739 2.452-1.196 3.603l3.527 2.63-3.527 2.63c-1.543 1.151-.729 3.604 1.196 3.604h13.297a2 2 0 002-2v-8.467a2 2 0 00-2-2H13.868z" stroke="#F99F3D" stroke-width="2"/><path d="M13.868 137.684c-1.925 0-2.739 2.452-1.196 3.603l3.527 2.63-3.527 2.63c-1.543 1.151-.729 3.604 1.196 3.604h13.297a2 2 0 002-2v-8.467a2 2 0 00-2-2H13.868z" stroke="url(#paint4_linear)" stroke-width="2"/></g><g filter="url(#filter3_d)"><path d="M5.32 152.054c.627-2.087 2.583-3.454 4.761-3.386 6.645.208 20.944.761 30.966 1.912 9.488 1.088 22.824 3.594 28.926 4.784a4.955 4.955 0 013.913 3.936l2.089 10.838c.623 3.231-1.992 6.172-5.274 5.932l-63.315-4.624c-2.59-.19-4.606-2.331-4.518-4.927.074-2.158.227-4.687.54-6.68.379-2.407 1.215-5.462 1.912-7.785z" fill="url(#paint5_linear)"/><path d="M10.113 147.669c-2.618-.082-4.99 1.563-5.75 4.098-.7 2.328-1.553 5.438-1.942 7.916-.323 2.055-.478 4.634-.552 6.802-.108 3.159 2.345 5.732 5.445 5.958l63.314 4.625c3.939.287 7.076-3.242 6.329-7.12l-2.089-10.838a5.958 5.958 0 00-4.703-4.728c-6.1-1.189-19.472-3.702-29.004-4.796-10.068-1.155-24.406-1.71-31.048-1.917z" stroke="#fff" stroke-width="2"/><path d="M10.113 147.669c-2.618-.082-4.99 1.563-5.75 4.098-.7 2.328-1.553 5.438-1.942 7.916-.323 2.055-.478 4.634-.552 6.802-.108 3.159 2.345 5.732 5.445 5.958l63.314 4.625c3.939.287 7.076-3.242 6.329-7.12l-2.089-10.838a5.958 5.958 0 00-4.703-4.728c-6.1-1.189-19.472-3.702-29.004-4.796-10.068-1.155-24.406-1.71-31.048-1.917z" stroke="url(#paint6_linear)" stroke-width="2"/></g><g filter="url(#filter4_d)"><path d="M130.516 180.628a4.911 4.911 0 00-3.971-3.405c-9.211-1.365-37.621-5.381-61.173-6.676-21.548-1.185-53.143-1.649-63.415-1.774-2.043-.025-3.866 1.198-4.581 3.112-1.67 4.468-4.617 12.976-6.025 20.804-.964 5.361-1.231 12.456-1.288 17.412-.035 3.103 2.81 5.377 5.851 4.765l83.056-16.724c.06-.012.113-.022.173-.032a517.574 517.574 0 0123.871-3.207c8.356-.916 18.597-1.85 24.961-2.41 3.132-.275 5.211-3.322 4.278-6.324a1318.57 1318.57 0 00-1.737-5.541z" fill="url(#paint7_linear)"/><path d="M79.303 199.097l-.16-.987.16.987-.136.025-.197-.98.197.98-83.056 16.724c-3.642.734-7.09-1.994-7.048-5.757.057-4.962.324-12.128 1.304-17.577 1.424-7.92 4.397-16.496 6.072-20.977.866-2.318 3.075-3.792 5.53-3.762 10.27.125 41.885.59 63.458 1.775 23.601 1.298 52.052 5.321 61.264 6.685a5.915 5.915 0 014.779 4.094c.499 1.583 1.135 3.604 1.738 5.545 1.125 3.622-1.389 7.287-5.145 7.617-6.363.56-16.596 1.494-24.94 2.408a517.523 517.523 0 00-23.82 3.2z" stroke="#fff" stroke-width="2"/><path d="M79.303 199.097l-.16-.987.16.987-.136.025-.197-.98.197.98-83.056 16.724c-3.642.734-7.09-1.994-7.048-5.757.057-4.962.324-12.128 1.304-17.577 1.424-7.92 4.397-16.496 6.072-20.977.866-2.318 3.075-3.792 5.53-3.762 10.27.125 41.885.59 63.458 1.775 23.601 1.298 52.052 5.321 61.264 6.685a5.915 5.915 0 014.779 4.094c.499 1.583 1.135 3.604 1.738 5.545 1.125 3.622-1.389 7.287-5.145 7.617-6.363.56-16.596 1.494-24.94 2.408a517.523 517.523 0 00-23.82 3.2z" stroke="url(#paint8_linear)" stroke-width="2"/></g><path d="M89.766 149.216A1.818 1.818 0 0191.03 151l-.675 23.085a1.296 1.296 0 01-2.542.318l-5.25-18.374a2 2 0 01.58-2.032l4.85-4.397a1.82 1.82 0 011.774-.384z" fill="#72D77C"/><path d="M88.49 152.047c1.126-1.071 2.99-.506 3.33 1.01l3.476 15.429a2 2 0 01-.403 1.706l-2.165 2.646c-1.023 1.251-3.03.835-3.472-.72l-4.321-15.209a2 2 0 01.545-1.995l3.01-2.867z" fill="#48B452"/><path d="M96.392 151.398c.659.471.926 1.321.656 2.085l-7.716 21.767a1.297 1.297 0 01-2.516-.475l.63-19.1a2 2 0 011.175-1.756l5.964-2.699c.591-.267 1.28-.2 1.807.178z" fill="#72D77C"/><path d="M94.31 153.703c1.4-.675 3 .434 2.861 1.981l-1.419 15.752a2 2 0 01-.906 1.5l-2.871 1.856c-1.357.877-3.14-.134-3.085-1.749l.546-15.801a2 2 0 011.13-1.733l3.744-1.806z" fill="#48B452"/><path d="M83.91 166.13a1.818 1.818 0 01.975-1.957l20.659-10.322a1.296 1.296 0 011.482 2.089L93.32 169.256a2 2 0 01-2.064.45l-6.168-2.195a1.817 1.817 0 01-1.178-1.381z" fill="#48B452"/><path d="M87.012 165.912c-1.476-.485-1.86-2.394-.686-3.411l11.952-10.359a2 2 0 011.694-.452l3.354.656c1.586.31 2.169 2.275 1.008 3.399l-11.356 11.001a2 2 0 01-2.016.463l-3.95-1.297z" fill="#72D77C"/><path d="M87.25 161.891c-2.337-.226-4.725.292-6.696 1.667-2.13 1.486-5.18 3.792-7.993 6.575-2.798 2.768-5.443 6.085-6.655 9.604-2.22 6.439-2.856 11.541-2.839 15.312.012 2.605 1.271 4.636 3.162 5.877 1.866 1.224 4.309 1.66 6.743 1.237 6.68-1.162 16.372-2.76 23.028-3.479 5.924-.639 13.144-1.341 18.216-1.822 2.107-.2 4.205-1.006 5.763-2.334 1.574-1.342 2.62-3.247 2.464-5.557-.267-3.951-2.206-7.555-4.683-12.158-.247-.459-.5-.929-.757-1.41-1.1-2.06-3.095-4.153-5.12-5.954-2.043-1.818-4.199-3.411-5.704-4.463-1.435-1.003-3.101-1.561-4.805-1.726l-14.125-1.369z" fill="#FBB971"/><path d="M87.25 161.891c-2.337-.226-4.725.292-6.696 1.667-2.13 1.486-5.18 3.792-7.993 6.575-2.798 2.768-5.443 6.085-6.655 9.604-2.22 6.439-2.856 11.541-2.839 15.312.012 2.605 1.271 4.636 3.162 5.877 1.866 1.224 4.309 1.66 6.743 1.237 6.68-1.162 16.372-2.76 23.028-3.479 5.924-.639 13.144-1.341 18.216-1.822 2.107-.2 4.205-1.006 5.763-2.334 1.574-1.342 2.62-3.247 2.464-5.557-.267-3.951-2.206-7.555-4.683-12.158-.247-.459-.5-.929-.757-1.41-1.1-2.06-3.095-4.153-5.12-5.954-2.043-1.818-4.199-3.411-5.704-4.463-1.435-1.003-3.101-1.561-4.805-1.726l-14.125-1.369z" stroke="#F99F3D" stroke-width="2"/><path d="M87.25 161.891c-2.337-.226-4.725.292-6.696 1.667-2.13 1.486-5.18 3.792-7.993 6.575-2.798 2.768-5.443 6.085-6.655 9.604-2.22 6.439-2.856 11.541-2.839 15.312.012 2.605 1.271 4.636 3.162 5.877 1.866 1.224 4.309 1.66 6.743 1.237 6.68-1.162 16.372-2.76 23.028-3.479 5.924-.639 13.144-1.341 18.216-1.822 2.107-.2 4.205-1.006 5.763-2.334 1.574-1.342 2.62-3.247 2.464-5.557-.267-3.951-2.206-7.555-4.683-12.158-.247-.459-.5-.929-.757-1.41-1.1-2.06-3.095-4.153-5.12-5.954-2.043-1.818-4.199-3.411-5.704-4.463-1.435-1.003-3.101-1.561-4.805-1.726l-14.125-1.369z" stroke="url(#paint9_linear)" stroke-width="2"/><path d="M83.195 155.987c-2.784.103-4.61 2.817-3.838 5.43.697 2.357 3.155 3.566 5.404 3.247 1.492-.211 3.243-.292 4.828.048 2.824.605 9.228 1.329 12.835 1.711a5.275 5.275 0 005.046-2.487c1.647-2.67.643-6.284-2.421-7.406-1.86-.68-4.055-1.355-5.78-1.476-2.164-.152-4.022.211-5.732.545l-.262.051c-1.801.351-3.465.643-5.405.405-1.2-.148-3.039-.128-4.675-.068z" fill="#FBB971"/><path d="M83.195 155.987c-2.784.103-4.61 2.817-3.838 5.43.697 2.357 3.155 3.566 5.404 3.247 1.492-.211 3.243-.292 4.828.048 2.824.605 9.228 1.329 12.835 1.711a5.275 5.275 0 005.046-2.487c1.647-2.67.643-6.284-2.421-7.406-1.86-.68-4.055-1.355-5.78-1.476-2.164-.152-4.022.211-5.732.545l-.262.051c-1.801.351-3.465.643-5.405.405-1.2-.148-3.039-.128-4.675-.068z" stroke="#F99F3D" stroke-width="2"/><path d="M83.195 155.987c-2.784.103-4.61 2.817-3.838 5.43.697 2.357 3.155 3.566 5.404 3.247 1.492-.211 3.243-.292 4.828.048 2.824.605 9.228 1.329 12.835 1.711a5.275 5.275 0 005.046-2.487c1.647-2.67.643-6.284-2.421-7.406-1.86-.68-4.055-1.355-5.78-1.476-2.164-.152-4.022.211-5.732.545l-.262.051c-1.801.351-3.465.643-5.405.405-1.2-.148-3.039-.128-4.675-.068z" stroke="url(#paint10_linear)" stroke-width="2"/><g filter="url(#filter5_d)"><path d="M198.588 221.754c3.276-17.103-11.306-31.477-28.702-30.686-22.467 1.021-50.87 2.522-65.031 4.105-84.379 9.434-172.843 36.774-201.443 46.131-6.223 2.036-11.47 6.138-15.091 11.592l-7.221 10.877a18.572 18.572 0 00-3.1 10.274c0 10.406 8.526 18.776 18.927 18.502 19.949-.525 51.493-1.503 73.667-2.899 39.003-2.456 44.888-15.81 83.938-12.883 21.563 1.617 49.272 9.675 70.855 10.999 7.572.465 18.078.46 26.62.342 9.359-.13 18.047-4.805 22.964-12.77 6.682-10.826 15.845-27.155 20.868-42.524 1.09-3.338 1.997-7.136 2.749-11.06z" fill="url(#paint11_linear)"/><path d="M169.84 190.069c17.929-.816 33.148 14.028 29.73 31.873-.757 3.95-1.673 7.791-2.781 11.183-5.06 15.484-14.274 31.895-20.967 42.739-5.106 8.271-14.119 13.109-23.801 13.244-8.544.118-19.083.124-26.696-.343-10.868-.667-23.257-3.027-35.563-5.407l-.982-.19c-12.007-2.322-23.896-4.622-34.322-5.404-19.373-1.452-30.482 1.129-41.632 4.386-1.286.375-2.573.76-3.874 1.149-10.043 3.003-20.915 6.255-38.295 7.349-22.194 1.397-53.755 2.375-73.704 2.901-10.968.289-19.953-8.539-19.953-19.502a19.57 19.57 0 013.267-10.827l7.221-10.877c3.74-5.634 9.168-9.881 15.613-11.989 28.614-9.362 117.158-36.729 201.643-46.175 14.2-1.588 42.639-3.089 65.096-4.11z" stroke="#fff" stroke-width="2"/><path d="M169.84 190.069c17.929-.816 33.148 14.028 29.73 31.873-.757 3.95-1.673 7.791-2.781 11.183-5.06 15.484-14.274 31.895-20.967 42.739-5.106 8.271-14.119 13.109-23.801 13.244-8.544.118-19.083.124-26.696-.343-10.868-.667-23.257-3.027-35.563-5.407l-.982-.19c-12.007-2.322-23.896-4.622-34.322-5.404-19.373-1.452-30.482 1.129-41.632 4.386-1.286.375-2.573.76-3.874 1.149-10.043 3.003-20.915 6.255-38.295 7.349-22.194 1.397-53.755 2.375-73.704 2.901-10.968.289-19.953-8.539-19.953-19.502a19.57 19.57 0 013.267-10.827l7.221-10.877c3.74-5.634 9.168-9.881 15.613-11.989 28.614-9.362 117.158-36.729 201.643-46.175 14.2-1.588 42.639-3.089 65.096-4.11z" stroke="url(#paint12_linear)" stroke-width="2"/></g><path d="M224.333 106.362l7.806-.787c.451-.025.812.146 1.038.413.225.269.329.651.229 1.079l-1.468 5.626c-.117.354-.393.711-.756.843l-.003.001c-1.502.562-4.44 1.534-7.694 2.337-3.147.776-6.567 1.388-9.263 1.326l1.051-6.386 8.606-9.169c.223-.202.446-.31.67-.343.226-.034.474.005.75.134.475.223.679.894.437 1.417l-1.649 3.144-.216.412.462-.047z" fill="#fff" stroke="#2F3537" stroke-width=".5"/><path d="M196.769 142.687l4.039-5.921 3.027 2.569.254.216.136-.304 10.774-24.113 7.397 1.138-.078.339a166.963 166.963 0 01-1.91 7.361c-1.302 4.577-3.155 10.332-5.366 15.067l-.583 1.255c-1.281 2.765-2.727 5.885-4.286 8.386-.9 1.444-1.829 2.665-2.772 3.487-.945.823-1.872 1.22-2.784 1.091-1.981-.28-4.602-1.46-6.751-2.588a56.71 56.71 0 01-3.485-1.993l-.11-.068 2.498-5.922z" fill="#fff" stroke="#2F3537" stroke-width=".5"/><g filter="url(#filter6_d)"><path d="M180.847 252.675c.501-2.945 3.521-4.717 6.352-3.761l1.637.552a3.23 3.23 0 011.999 4.175c-.628 1.711.278 3.622 1.907 4.439 2.394 1.2 5.64 3.232 7.614 6.134 1.686 2.479-2.644 4.228-5.447 3.163l-10.836-4.118c-2.729-1.037-4.347-3.42-3.916-6.307.205-1.366.45-2.867.69-4.277z" fill="#FBB971"/><path d="M187.519 247.966c-3.404-1.148-7.052.98-7.658 4.542-.24 1.413-.487 2.921-.693 4.296-.51 3.414 1.442 6.209 4.55 7.39l10.836 4.118c1.686.64 3.761.434 5.211-.294.728-.366 1.424-.927 1.764-1.72.368-.858.236-1.79-.346-2.646-2.119-3.116-5.551-5.242-7.993-6.466-1.239-.622-1.845-2.033-1.416-3.201a4.23 4.23 0 00-2.619-5.467l-1.636-.552z" stroke="#F99F3D" stroke-width="2"/><path d="M187.519 247.966c-3.404-1.148-7.052.98-7.658 4.542-.24 1.413-.487 2.921-.693 4.296-.51 3.414 1.442 6.209 4.55 7.39l10.836 4.118c1.686.64 3.761.434 5.211-.294.728-.366 1.424-.927 1.764-1.72.368-.858.236-1.79-.346-2.646-2.119-3.116-5.551-5.242-7.993-6.466-1.239-.622-1.845-2.033-1.416-3.201a4.23 4.23 0 00-2.619-5.467l-1.636-.552z" stroke="url(#paint13_linear)" stroke-width="2"/></g><g filter="url(#filter7_d)"><path d="M256.727 236.452c-2.34-1.858-2.436-5.358-.235-7.378l1.273-1.168a3.23 3.23 0 014.622.26c1.196 1.375 3.307 1.502 4.808.468 2.205-1.519 5.55-3.384 9.044-3.714 2.985-.283 2.43 4.354.147 6.296l-8.831 7.51c-2.224 1.892-5.091 2.162-7.413.392a222.913 222.913 0 01-3.415-2.666z" fill="#FBB971"/><path d="M255.816 228.337c-2.646 2.429-2.54 6.651.289 8.898 1.122.892 2.325 1.835 3.43 2.678 2.746 2.093 6.136 1.729 8.668-.425l8.831-7.51c1.373-1.169 2.193-3.086 2.254-4.707.03-.814-.127-1.695-.657-2.375-.574-.736-1.455-1.069-2.486-.972-3.751.355-7.268 2.337-9.517 3.887-1.142.787-2.67.637-3.487-.302a4.23 4.23 0 00-6.052-.34l-1.273 1.168z" stroke="#F99F3D" stroke-width="2"/><path d="M255.816 228.337c-2.646 2.429-2.54 6.651.289 8.898 1.122.892 2.325 1.835 3.43 2.678 2.746 2.093 6.136 1.729 8.668-.425l8.831-7.51c1.373-1.169 2.193-3.086 2.254-4.707.03-.814-.127-1.695-.657-2.375-.574-.736-1.455-1.069-2.486-.972-3.751.355-7.268 2.337-9.517 3.887-1.142.787-2.67.637-3.487-.302a4.23 4.23 0 00-6.052-.34l-1.273 1.168z" stroke="url(#paint14_linear)" stroke-width="2"/></g><g filter="url(#filter8_d)"><path d="M182.038 165.214a3.535 3.535 0 013.652-3.533l19.81.655c.595.019 1.185.09 1.761.239 2.884.743 12.106 3.497 14.431 8.848 2.629 6.05-8.093 30.943-9.172 33.418a10.18 10.18 0 00-.172.418l-16.539 42.826a7.449 7.449 0 01-9.131 4.439c-3.399-1.042-5.586-4.334-5.164-7.864.945-7.902 2.803-21.815 5.154-31.279 1.603-6.456 4.709-16.022 6.559-21.561a10.124 10.124 0 00-.896-8.404l-9.793-16.389a3.537 3.537 0 01-.5-1.813z" fill="url(#paint15_linear)"/><path d="M213.436 205.24l-.916-.399.916.399c.543-1.245 3.507-8.117 6.007-15.444 1.249-3.662 2.392-7.464 3.057-10.749.332-1.641.55-3.178.597-4.518.045-1.318-.071-2.545-.487-3.504-1.314-3.022-4.487-5.182-7.483-6.652-3.044-1.493-6.145-2.388-7.616-2.767a9.17 9.17 0 00-1.978-.27l-19.81-.655a4.536 4.536 0 00-4.043 6.859l9.792 16.389a9.125 9.125 0 01.807 7.574c-1.85 5.536-4.967 15.137-6.582 21.637-2.367 9.532-4.231 23.503-5.176 31.401-.481 4.02 2.011 7.758 5.864 8.939a8.449 8.449 0 0010.357-5.034l16.539-42.827c.052-.134.098-.248.155-.379z" stroke="#fff" stroke-width="2"/><path d="M213.436 205.24l-.916-.399.916.399c.543-1.245 3.507-8.117 6.007-15.444 1.249-3.662 2.392-7.464 3.057-10.749.332-1.641.55-3.178.597-4.518.045-1.318-.071-2.545-.487-3.504-1.314-3.022-4.487-5.182-7.483-6.652-3.044-1.493-6.145-2.388-7.616-2.767a9.17 9.17 0 00-1.978-.27l-19.81-.655a4.536 4.536 0 00-4.043 6.859l9.792 16.389a9.125 9.125 0 01.807 7.574c-1.85 5.536-4.967 15.137-6.582 21.637-2.367 9.532-4.231 23.503-5.176 31.401-.481 4.02 2.011 7.758 5.864 8.939a8.449 8.449 0 0010.357-5.034l16.539-42.827c.052-.134.098-.248.155-.379z" stroke="url(#paint16_linear)" stroke-width="2"/></g><g filter="url(#filter9_d)"><path d="M144.189 169.98c.08-5.144 4.729-8.835 9.868-8.585l39.866 1.945c.396.019.789.062 1.18.129 1.648.283 6.39 1.107 9.278 1.712 3.072.643 4.573.77 7.246 2.415 2.18 1.342 4.873 4.04 5.631 4.818.139.143.271.291.399.444l41.274 49.135a7.584 7.584 0 01-1.111 10.834c-2.579 2.033-6.169 2.176-8.878.319-8.386-5.749-26.408-18.388-37.315-28.11-4.489-4.001-9.65-9.322-13.12-13.003-2.487-2.639-6.168-3.803-9.752-3.254-13.079 2.003-43.926 4.387-44.56-17.56-.012-.394-.013-.81-.006-1.239z" fill="url(#paint17_linear)"/><path d="M154.106 160.397c-5.603-.274-10.826 3.762-10.917 9.568-.007.441-.006.872.006 1.283.166 5.752 2.327 9.982 5.726 13.003 3.368 2.993 7.883 4.743 12.69 5.71 9.604 1.933 20.729.812 27.295-.194 3.28-.502 6.626.567 8.873 2.952 3.474 3.685 8.66 9.032 13.183 13.064 10.961 9.77 29.034 22.443 37.415 28.188 3.074 2.108 7.144 1.942 10.062-.359 3.805-2.999 4.374-8.552 1.258-12.262l-41.274-49.135a8.943 8.943 0 00-.449-.499c-.746-.766-3.521-3.555-5.823-4.971-2.469-1.52-4.068-1.84-6.416-2.309-.363-.073-.744-.149-1.149-.234-2.909-.609-7.669-1.436-9.314-1.718a10.738 10.738 0 00-1.301-.143l-39.865-1.944z" stroke="#fff" stroke-width="2"/><path d="M154.106 160.397c-5.603-.274-10.826 3.762-10.917 9.568-.007.441-.006.872.006 1.283.166 5.752 2.327 9.982 5.726 13.003 3.368 2.993 7.883 4.743 12.69 5.71 9.604 1.933 20.729.812 27.295-.194 3.28-.502 6.626.567 8.873 2.952 3.474 3.685 8.66 9.032 13.183 13.064 10.961 9.77 29.034 22.443 37.415 28.188 3.074 2.108 7.144 1.942 10.062-.359 3.805-2.999 4.374-8.552 1.258-12.262l-41.274-49.135a8.943 8.943 0 00-.449-.499c-.746-.766-3.521-3.555-5.823-4.971-2.469-1.52-4.068-1.84-6.416-2.309-.363-.073-.744-.149-1.149-.234-2.909-.609-7.669-1.436-9.314-1.718a10.738 10.738 0 00-1.301-.143l-39.865-1.944z" stroke="url(#paint18_linear)" stroke-width="2"/></g><path d="M176.401 67.32c4.588-1.427 7.171.138 11.92 2.012 3.425 1.352 8.473.991 7.857 4.622-.414 2.443-1.267 3.158-3.529 4.17-2.605 1.165-7.294.44-7.294.44l-10.247-1.255-2.864 4.168-2.311 12.248s-12.055-16.075-3.566-21.851c1.466-.998 4.479-.777 4.479-.777s2.685-2.885 5.555-3.777z" fill="#2F3537"/><g filter="url(#filter10_d)"><path d="M186.925 140.723a2 2 0 01-.281-1.521l4.827-22.109c.405-1.856 2.908-2.143 3.678-.406 2.855 6.444 4.523 11.641 6.433 19.743a1.996 1.996 0 01-.216 1.458l-6.027 10.398c-.747 1.288-2.589 1.338-3.404.092l-5.01-7.655z" fill="#FBB971"/><path d="M186.088 141.271l.837-.548-.837.548 5.01 7.655c1.223 1.868 3.986 1.793 5.106-.139l6.028-10.397a3.004 3.004 0 00.324-2.189c-1.921-8.149-3.607-13.406-6.493-19.919-1.18-2.662-4.967-2.159-5.569.598l-4.827 22.108a3.003 3.003 0 00.421 2.283z" stroke="#F99F3D" stroke-width="2"/><path d="M186.088 141.271l.837-.548-.837.548 5.01 7.655c1.223 1.868 3.986 1.793 5.106-.139l6.028-10.397a3.004 3.004 0 00.324-2.189c-1.921-8.149-3.607-13.406-6.493-19.919-1.18-2.662-4.967-2.159-5.569.598l-4.827 22.108a3.003 3.003 0 00.421 2.283z" stroke="url(#paint19_linear)" stroke-width="2"/></g><path d="M170.108 87.957l.029-.148-.116-.094h-.001 0l-.004-.004-.015-.013a8.664 8.664 0 01-.282-.246 11.025 11.025 0 01-.687-.68 6.87 6.87 0 01-.721-.917c-.209-.326-.357-.647-.407-.938-.12-.697-.257-1.495-.092-2.144.079-.314.228-.581.479-.783.252-.203.63-.358 1.199-.405.161-.013.303.042.447.148.139.103.261.239.392.384l.032.035c.068.076.14.155.214.222a.85.85 0 00.268.172.49.49 0 00.373-.008.747.747 0 00.298-.261 233.558 233.558 0 012.626-3.545l.912-1.204.261-.34.013-.018 13.586.58-.869 6.532-.003.023.001.022h0v0h0v.003l.001.008.001.033.004.13a20.714 20.714 0 01-.071 2.134c-.114 1.313-.388 2.89-1.013 4.042-.461.85-.987 1.723-1.591 2.46-.606.737-1.278 1.32-2.023 1.608-.669.258-1.521.028-2.257-.314a7.584 7.584 0 01-1.16-.674l-.069-.05-.017-.012-.004-.003h0l-.001-.001h0l-.321-.245-.076.397-1.543 8.051-.023.116.076.09 1.918 2.314-.001.015a31.702 31.702 0 01-.195 1.524 30.207 30.207 0 01-.78 3.654c-.384 1.342-.899 2.685-1.582 3.72-.684 1.038-1.51 1.732-2.507 1.857-.54.068-1.198-.167-1.949-.688-.744-.517-1.542-1.29-2.349-2.23-1.614-1.878-3.233-4.388-4.493-6.744-.743-1.39-1.711-3.211-2.493-4.685l-.983-1.853-.209-.395 5.556-.203.199-.007.038-.195 1.984-10.227z" fill="#fff" stroke="#2F3537" stroke-width=".5"/><ellipse cx="188.57" cy="83.299" rx="3.269" ry="3.923" transform="rotate(14.32 188.57 83.3)" fill="#F99F3D"/><ellipse cx="180.866" cy="83.996" rx="3.269" ry="3.923" transform="rotate(14.32 180.866 83.996)" fill="#FFBF78"/><path d="M171.45 81.543l6.636.667-.034.872-6.635-.668.033-.871z" fill="#FFBF78"/><g filter="url(#filter11_d)"><path d="M148.957 99.806a1.94 1.94 0 011.81-1.267l13.264-.163c.981-.013 1.829.685 2.069 1.637.786 3.124 2.911 9.624 7.081 10.218 2.793.397 4.64-2.054 5.662-4.047.599-1.166 2.082-1.74 3.209-1.071l9.516 5.65a2 2 0 01.961 1.987l-6.632 49.266a2 2 0 01-2.01 1.733l-39.149-.549a2 2 0 01-1.964-2.176l3.224-36.409c.005-.062.008-.118.008-.18-.002-1.012-.001-10.613.805-16.821.336-2.586 1.488-5.999 2.146-7.808z" fill="#FBB971"/><path d="M148.017 99.464l.94.342-.94-.342c-.657 1.807-1.846 5.314-2.197 8.021-.816 6.284-.816 15.952-.814 16.952 0 .03-.001.056-.004.09l-3.224 36.409a3 3 0 002.946 3.264l39.149.549a3 3 0 003.015-2.599l6.632-49.267a3 3 0 00-1.441-2.98l-9.516-5.65c-1.716-1.019-3.8-.103-4.609 1.475-.484.942-1.131 1.926-1.932 2.62-.782.676-1.663 1.04-2.7.893-1.592-.227-2.957-1.623-4.074-3.653-1.09-1.979-1.793-4.29-2.178-5.82-.345-1.368-1.575-2.41-3.051-2.392l-13.265.163a2.938 2.938 0 00-2.737 1.925z" stroke="#F99F3D" stroke-width="2"/><path d="M148.017 99.464l.94.342-.94-.342c-.657 1.807-1.846 5.314-2.197 8.021-.816 6.284-.816 15.952-.814 16.952 0 .03-.001.056-.004.09l-3.224 36.409a3 3 0 002.946 3.264l39.149.549a3 3 0 003.015-2.599l6.632-49.267a3 3 0 00-1.441-2.98l-9.516-5.65c-1.716-1.019-3.8-.103-4.609 1.475-.484.942-1.131 1.926-1.932 2.62-.782.676-1.663 1.04-2.7.893-1.592-.227-2.957-1.623-4.074-3.653-1.09-1.979-1.793-4.29-2.178-5.82-.345-1.368-1.575-2.41-3.051-2.392l-13.265.163a2.938 2.938 0 00-2.737 1.925z" stroke="url(#paint20_linear)" stroke-width="2"/></g><path d="M211.945 112.563a2 2 0 011.368-1.898l21.187-7.062a1.674 1.674 0 011.457 2.983l-16.269 10.817a2 2 0 01-2.078.083l-4.636-2.573a2 2 0 01-1.029-1.749v-.601z" fill="#48B452"/><path d="M211.945 112.563a2 2 0 011.368-1.898l21.187-7.062a1.674 1.674 0 011.457 2.983l-16.269 10.817a2 2 0 01-2.078.083l-4.636-2.573a2 2 0 01-1.029-1.749v-.601z" fill="url(#paint21_linear)" fill-opacity=".5"/><path d="M214.111 112.948c-1.363-.744-1.394-2.69-.056-3.478l15.165-8.927a1.999 1.999 0 011.749-.136l3.163 1.248c1.506.595 1.719 2.639.367 3.53l-14.673 9.677a2.001 2.001 0 01-2.06.085l-3.655-1.999z" fill="#72D77C"/><path d="M214.111 112.948c-1.363-.744-1.394-2.69-.056-3.478l15.165-8.927a1.999 1.999 0 011.749-.136l3.163 1.248c1.506.595 1.719 2.639.367 3.53l-14.673 9.677a2.001 2.001 0 01-2.06.085l-3.655-1.999z" fill="url(#paint22_linear)" fill-opacity=".5"/><path d="M199.751 166.593l.052-.245h0-.001l-.005-.001-.018-.004-.072-.015-.275-.06-1.017-.223a403.34 403.34 0 01-3.37-.757c-2.643-.605-5.808-1.359-7.907-1.955-9.116-2.59-19.636-6.369-26.898-11.438-2.074-1.448-3.812-4.216-5.039-6.658a40.08 40.08 0 01-1.787-4.132l-.049-.137 12.658-5.258 3.516 6.445.032.059.058.035 32.005 19.324.067.04.077-.004h.002l.009-.001.034-.002.135-.005a29.754 29.754 0 012.205.005c1.361.057 3.019.229 4.273.681.597.216 1.515.866 2.544 1.76a33.944 33.944 0 013.072 3.069c.957 1.086 1.758 2.142 2.189 2.94.219.406.324.711.331.908.003.093-.017.136-.031.155-.012.016-.041.044-.126.058-1.105.193-2.686.002-4.464-.412-1.77-.412-3.703-1.037-5.497-1.69a90.295 90.295 0 01-6.073-2.47l-.389-.176-.102-.047-.025-.012-.007-.003-.001-.001h0l-.106.227zm0 0l.105-.227-.025-.012-.028-.006-.052.245z" fill="#fff" stroke="#2F3537" stroke-width=".5"/><g filter="url(#filter12_d)"><path d="M169.071 133.316c-1.014-3.731-3.837-13.558-7.56-21.92-1.855-4.168-3.971-8.056-6.248-10.639-1.139-1.291-2.373-2.32-3.698-2.863-1.364-.557-2.8-.585-4.215.096-1.676.806-2.694 2.411-3.313 4.22-.622 1.817-.891 3.981-.971 6.144-.152 4.107.371 8.432.66 10.818l.045.37c.92 7.658 4.682 17.973 6.32 22.212.634 1.643 2.528 2.338 4.079 1.572l13.339-6.589c1.257-.621 1.94-2.031 1.562-3.421z" fill="#FBB971"/><path d="M169.071 133.316c-1.014-3.731-3.837-13.558-7.56-21.92-1.855-4.168-3.971-8.056-6.248-10.639-1.139-1.291-2.373-2.32-3.698-2.863-1.364-.557-2.8-.585-4.215.096-1.676.806-2.694 2.411-3.313 4.22-.622 1.817-.891 3.981-.971 6.144-.152 4.107.371 8.432.66 10.818l.045.37c.92 7.658 4.682 17.973 6.32 22.212.634 1.643 2.528 2.338 4.079 1.572l13.339-6.589c1.257-.621 1.94-2.031 1.562-3.421z" stroke="#F99F3D" stroke-width="2"/><path d="M169.071 133.316c-1.014-3.731-3.837-13.558-7.56-21.92-1.855-4.168-3.971-8.056-6.248-10.639-1.139-1.291-2.373-2.32-3.698-2.863-1.364-.557-2.8-.585-4.215.096-1.676.806-2.694 2.411-3.313 4.22-.622 1.817-.891 3.981-.971 6.144-.152 4.107.371 8.432.66 10.818l.045.37c.92 7.658 4.682 17.973 6.32 22.212.634 1.643 2.528 2.338 4.079 1.572l13.339-6.589c1.257-.621 1.94-2.031 1.562-3.421z" stroke="url(#paint23_linear)" stroke-width="2"/></g><defs><linearGradient id="paint0_linear" x1="-39.196" y1="138.143" x2="12.707" y2="152.139" gradientUnits="userSpaceOnUse"><stop stop-color="#F7F7F7"/><stop offset="1" stop-color="#F2F2F2" stop-opacity=".75"/></linearGradient><linearGradient id="paint1_linear" x1="-30.205" y1="200.807" x2="-42.849" y2="144.131" gradientUnits="userSpaceOnUse"><stop stop-color="#EAEAEB"/><stop offset="1" stop-color="#fff" stop-opacity="0"/></linearGradient><linearGradient id="paint2_linear" x1="-70.132" y1="154.986" x2="4.337" y2="173.878" gradientUnits="userSpaceOnUse"><stop stop-color="#F7F7F7"/><stop offset="1" stop-color="#F2F2F2" stop-opacity=".75"/></linearGradient><linearGradient id="paint3_linear" x1="-57.334" y1="249.805" x2="-77.544" y2="164.57" gradientUnits="userSpaceOnUse"><stop stop-color="#EAEAEB"/><stop offset="1" stop-color="#fff" stop-opacity="0"/></linearGradient><linearGradient id="paint4_linear" x1="19.107" y1="144.1" x2="23.431" y2="154.051" gradientUnits="userSpaceOnUse"><stop stop-color="#FCCC98"/><stop offset="1" stop-color="#fff" stop-opacity="0"/></linearGradient><linearGradient id="paint5_linear" x1="17.624" y1="142.513" x2="71.668" y2="173.195" gradientUnits="userSpaceOnUse"><stop stop-color="#F7F7F7"/><stop offset="1" stop-color="#F2F2F2" stop-opacity=".75"/></linearGradient><linearGradient id="paint6_linear" x1="29.163" y1="180.716" x2="25.362" y2="144.847" gradientUnits="userSpaceOnUse"><stop stop-color="#EAEAEB"/><stop offset="1" stop-color="#fff" stop-opacity="0"/></linearGradient><linearGradient id="paint7_linear" x1="108.041" y1="162.732" x2="1.567" y2="213.518" gradientUnits="userSpaceOnUse"><stop stop-color="#F7F7F7"/><stop offset="1" stop-color="#F2F2F2" stop-opacity=".75"/></linearGradient><linearGradient id="paint8_linear" x1="80.045" y1="231.445" x2="92.493" y2="165.708" gradientUnits="userSpaceOnUse"><stop stop-color="#EAEAEB"/><stop offset="1" stop-color="#fff" stop-opacity="0"/></linearGradient><linearGradient id="paint9_linear" x1="65.812" y1="161.547" x2="81.503" y2="200.059" gradientUnits="userSpaceOnUse"><stop stop-color="#FCCC98"/><stop offset="1" stop-color="#fff" stop-opacity="0"/></linearGradient><linearGradient id="paint10_linear" x1="78.747" y1="154.243" x2="80.282" y2="165.184" gradientUnits="userSpaceOnUse"><stop stop-color="#FCCC98"/><stop offset="1" stop-color="#fff" stop-opacity="0"/></linearGradient><linearGradient id="paint11_linear" x1="137.523" y1="167.397" x2="-77.3" y2="311.324" gradientUnits="userSpaceOnUse"><stop stop-color="#F7F7F7"/><stop offset="1" stop-color="#F2F2F2" stop-opacity=".75"/></linearGradient><linearGradient id="paint12_linear" x1="87.265" y1="308.39" x2="99.188" y2="175.594" gradientUnits="userSpaceOnUse"><stop stop-color="#EAEAEB"/><stop offset="1" stop-color="#fff" stop-opacity="0"/></linearGradient><linearGradient id="paint13_linear" x1="179.183" y1="247.491" x2="191.214" y2="263.441" gradientUnits="userSpaceOnUse"><stop stop-color="#FCCC98"/><stop offset="1" stop-color="#fff" stop-opacity="0"/></linearGradient><linearGradient id="paint14_linear" x1="251.382" y1="235.412" x2="271.157" y2="232.557" gradientUnits="userSpaceOnUse"><stop stop-color="#FCCC98"/><stop offset="1" stop-color="#fff" stop-opacity="0"/></linearGradient><linearGradient id="paint15_linear" x1="189.052" y1="141.441" x2="228.341" y2="145.163" gradientUnits="userSpaceOnUse"><stop stop-color="#F7F7F7"/><stop offset="1" stop-color="#F2F2F2"/></linearGradient><linearGradient id="paint16_linear" x1="195.453" y1="268.417" x2="140.901" y2="182.493" gradientUnits="userSpaceOnUse"><stop stop-color="#EAEAEB"/><stop offset="1" stop-color="#fff" stop-opacity="0"/></linearGradient><linearGradient id="paint17_linear" x1="168.044" y1="144.666" x2="271.183" y2="179.698" gradientUnits="userSpaceOnUse"><stop stop-color="#F7F7F7"/><stop offset="1" stop-color="#F2F2F2"/></linearGradient><linearGradient id="paint18_linear" x1="186.619" y1="247.456" x2="169.86" y2="152.83" gradientUnits="userSpaceOnUse"><stop stop-color="#EAEAEB"/><stop offset="1" stop-color="#fff"/></linearGradient><linearGradient id="paint19_linear" x1="186.11" y1="112.13" x2="204.787" y2="122.156" gradientUnits="userSpaceOnUse"><stop stop-color="#FCCC98"/><stop offset="1" stop-color="#fff" stop-opacity="0"/></linearGradient><linearGradient id="paint20_linear" x1="141.419" y1="99.496" x2="178.313" y2="138.828" gradientUnits="userSpaceOnUse"><stop stop-color="#FCCC98"/><stop offset="1" stop-color="#fff" stop-opacity="0"/></linearGradient><linearGradient id="paint21_linear" x1="228.231" y1="99.478" x2="219.92" y2="118.618" gradientUnits="userSpaceOnUse"><stop stop-color="#fff"/><stop offset="1" stop-color="#fff" stop-opacity="0"/></linearGradient><linearGradient id="paint22_linear" x1="227.978" y1="98.841" x2="220.43" y2="116.223" gradientUnits="userSpaceOnUse"><stop stop-color="#fff"/><stop offset="1" stop-color="#fff" stop-opacity="0"/></linearGradient><linearGradient id="paint23_linear" x1="143.469" y1="99.261" x2="167.904" y2="117.797" gradientUnits="userSpaceOnUse"><stop stop-color="#FCCC98"/><stop offset="1" stop-color="#fff" stop-opacity="0"/></linearGradient><filter id="filter0_d" x="-152.373" y="52.287" width="260.24" height="246.514" filterUnits="userSpaceOnUse" color-interpolation-filters="sRGB"><feFlood flood-opacity="0" result="BackgroundImageFix"/><feColorMatrix in="SourceAlpha" values="0 0 0 0 0 0 0 0 0 0 0 0 0 0 0 0 0 0 127 0"/><feOffset dy="4"/><feGaussianBlur stdDeviation="50"/><feColorMatrix values="0 0 0 0 0.5 0 0 0 0 0.5 0 0 0 0 0.5 0 0 0 0.3 0"/><feBlend in2="BackgroundImageFix" result="effect1_dropShadow"/><feBlend in="SourceGraphic" in2="effect1_dropShadow" result="shape"/></filter><filter id="filter1_d" x="-188.439" y="72.623" width="288.747" height="272.098" filterUnits="userSpaceOnUse" color-interpolation-filters="sRGB"><feFlood flood-opacity="0" result="BackgroundImageFix"/><feColorMatrix in="SourceAlpha" values="0 0 0 0 0 0 0 0 0 0 0 0 0 0 0 0 0 0 127 0"/><feOffset dy="4"/><feGaussianBlur stdDeviation="50"/><feColorMatrix values="0 0 0 0 0.5 0 0 0 0 0.5 0 0 0 0 0.5 0 0 0 0.3 0"/><feBlend in2="BackgroundImageFix" result="effect1_dropShadow"/><feBlend in="SourceGraphic" in2="effect1_dropShadow" result="shape"/></filter><filter id="filter2_d" x="-89.138" y="40.684" width="219.303" height="214.467" filterUnits="userSpaceOnUse" color-interpolation-filters="sRGB"><feFlood flood-opacity="0" result="BackgroundImageFix"/><feColorMatrix in="SourceAlpha" values="0 0 0 0 0 0 0 0 0 0 0 0 0 0 0 0 0 0 127 0"/><feOffset dy="4"/><feGaussianBlur stdDeviation="50"/><feColorMatrix values="0 0 0 0 0.5 0 0 0 0 0.5 0 0 0 0 0.5 0 0 0 0.3 0"/><feBlend in2="BackgroundImageFix" result="effect1_dropShadow"/><feBlend in="SourceGraphic" in2="effect1_dropShadow" result="shape"/></filter><filter id="filter3_d" x="-99.135" y="50.666" width="277.202" height="231.419" filterUnits="userSpaceOnUse" color-interpolation-filters="sRGB"><feFlood flood-opacity="0" result="BackgroundImageFix"/><feColorMatrix in="SourceAlpha" values="0 0 0 0 0 0 0 0 0 0 0 0 0 0 0 0 0 0 127 0"/><feOffset dy="4"/><feGaussianBlur stdDeviation="50"/><feColorMatrix values="0 0 0 0 0.5 0 0 0 0 0.5 0 0 0 0 0.5 0 0 0 0.3 0"/><feBlend in2="BackgroundImageFix" result="effect1_dropShadow"/><feBlend in="SourceGraphic" in2="effect1_dropShadow" result="shape"/></filter><filter id="filter4_d" x="-112.924" y="66.1" width="348.559" height="266.46" filterUnits="userSpaceOnUse" color-interpolation-filters="sRGB"><feFlood flood-opacity="0" result="BackgroundImageFix"/><feColorMatrix in="SourceAlpha" values="0 0 0 0 0 0 0 0 0 0 0 0 0 0 0 0 0 0 127 0"/><feOffset dy="4"/><feGaussianBlur stdDeviation="50"/><feColorMatrix values="0 0 0 0 0.5 0 0 0 0 0.5 0 0 0 0 0.5 0 0 0 0.3 0"/><feBlend in2="BackgroundImageFix" result="effect1_dropShadow"/><feBlend in="SourceGraphic" in2="effect1_dropShadow" result="shape"/></filter><filter id="filter5_d" x="-224" y="93.037" width="525.055" height="305.519" filterUnits="userSpaceOnUse" color-interpolation-filters="sRGB"><feFlood flood-opacity="0" result="BackgroundImageFix"/><feColorMatrix in="SourceAlpha" values="0 0 0 0 0 0 0 0 0 0 0 0 0 0 0 0 0 0 127 0"/><feOffset dy="4"/><feGaussianBlur stdDeviation="50"/><feColorMatrix values="0 0 0 0 0.5 0 0 0 0 0.5 0 0 0 0 0.5 0 0 0 0.3 0"/><feBlend in2="BackgroundImageFix" result="effect1_dropShadow"/><feBlend in="SourceGraphic" in2="effect1_dropShadow" result="shape"/></filter><filter id="filter6_d" x="78.087" y="150.653" width="224.648" height="223.042" filterUnits="userSpaceOnUse" color-interpolation-filters="sRGB"><feFlood flood-opacity="0" result="BackgroundImageFix"/><feColorMatrix in="SourceAlpha" values="0 0 0 0 0 0 0 0 0 0 0 0 0 0 0 0 0 0 127 0"/><feOffset dy="4"/><feGaussianBlur stdDeviation="50"/><feColorMatrix values="0 0 0 0 0.5 0 0 0 0 0.5 0 0 0 0 0.5 0 0 0 0.3 0"/><feBlend in2="BackgroundImageFix" result="effect1_dropShadow"/><feBlend in="SourceGraphic" in2="effect1_dropShadow" result="shape"/></filter><filter id="filter7_d" x="150.12" y="118.372" width="232.068" height="232.701" filterUnits="userSpaceOnUse" color-interpolation-filters="sRGB"><feFlood flood-opacity="0" result="BackgroundImageFix"/><feColorMatrix in="SourceAlpha" values="0 0 0 0 0 0 0 0 0 0 0 0 0 0 0 0 0 0 127 0"/><feOffset dy="4"/><feGaussianBlur stdDeviation="50"/><feColorMatrix values="0 0 0 0 0.5 0 0 0 0 0.5 0 0 0 0 0.5 0 0 0 0.3 0"/><feBlend in2="BackgroundImageFix" result="effect1_dropShadow"/><feBlend in="SourceGraphic" in2="effect1_dropShadow" result="shape"/></filter><filter id="filter8_d" x="79.462" y="63.679" width="244.644" height="295.174" filterUnits="userSpaceOnUse" color-interpolation-filters="sRGB"><feFlood flood-opacity="0" result="BackgroundImageFix"/><feColorMatrix in="SourceAlpha" values="0 0 0 0 0 0 0 0 0 0 0 0 0 0 0 0 0 0 127 0"/><feOffset dy="4"/><feGaussianBlur stdDeviation="50"/><feColorMatrix values="0 0 0 0 0.5 0 0 0 0 0.5 0 0 0 0 0.5 0 0 0 0.3 0"/><feBlend in2="BackgroundImageFix" result="effect1_dropShadow"/><feBlend in="SourceGraphic" in2="effect1_dropShadow" result="shape"/></filter><filter id="filter9_d" x="42.185" y="63.384" width="320.524" height="277.067" filterUnits="userSpaceOnUse" color-interpolation-filters="sRGB"><feFlood flood-opacity="0" result="BackgroundImageFix"/><feColorMatrix in="SourceAlpha" values="0 0 0 0 0 0 0 0 0 0 0 0 0 0 0 0 0 0 127 0"/><feOffset dy="4"/><feGaussianBlur stdDeviation="50"/><feColorMatrix values="0 0 0 0 0.5 0 0 0 0 0.5 0 0 0 0 0.5 0 0 0 0.3 0"/><feBlend in2="BackgroundImageFix" result="effect1_dropShadow"/><feBlend in="SourceGraphic" in2="effect1_dropShadow" result="shape"/></filter><filter id="filter10_d" x="84.598" y="17.526" width="219.037" height="237.757" filterUnits="userSpaceOnUse" color-interpolation-filters="sRGB"><feFlood flood-opacity="0" result="BackgroundImageFix"/><feColorMatrix in="SourceAlpha" values="0 0 0 0 0 0 0 0 0 0 0 0 0 0 0 0 0 0 127 0"/><feOffset dy="4"/><feGaussianBlur stdDeviation="50"/><feColorMatrix values="0 0 0 0 0.5 0 0 0 0 0.5 0 0 0 0 0.5 0 0 0 0.3 0"/><feBlend in2="BackgroundImageFix" result="effect1_dropShadow"/><feBlend in="SourceGraphic" in2="effect1_dropShadow" result="shape"/></filter><filter id="filter11_d" x="40.766" y=".375" width="253.781" height="269.374" filterUnits="userSpaceOnUse" color-interpolation-filters="sRGB"><feFlood flood-opacity="0" result="BackgroundImageFix"/><feColorMatrix in="SourceAlpha" values="0 0 0 0 0 0 0 0 0 0 0 0 0 0 0 0 0 0 127 0"/><feOffset dy="4"/><feGaussianBlur stdDeviation="50"/><feColorMatrix values="0 0 0 0 0.5 0 0 0 0 0.5 0 0 0 0 0.5 0 0 0 0.3 0"/><feBlend in2="BackgroundImageFix" result="effect1_dropShadow"/><feBlend in="SourceGraphic" in2="effect1_dropShadow" result="shape"/></filter><filter id="filter12_d" x="42.039" y=".478" width="228.137" height="248.159" filterUnits="userSpaceOnUse" color-interpolation-filters="sRGB"><feFlood flood-opacity="0" result="BackgroundImageFix"/><feColorMatrix in="SourceAlpha" values="0 0 0 0 0 0 0 0 0 0 0 0 0 0 0 0 0 0 127 0"/><feOffset dy="4"/><feGaussianBlur stdDeviation="50"/><feColorMatrix values="0 0 0 0 0.5 0 0 0 0 0.5 0 0 0 0 0.5 0 0 0 0.3 0"/><feBlend in2="BackgroundImageFix" result="effect1_dropShadow"/><feBlend in="SourceGraphic" in2="effect1_dropShadow" result="shape"/></filter></defs></svg>