<svg width="961" height="688" fill="none" xmlns="http://www.w3.org/2000/svg"><g filter="url(#filter0_d)"><path d="M50.243 295.208c.17-.248.394-.449.657-.596l124.655-69.788c1.586-.888 3.467.636 2.948 2.378-1.708 5.736-4.407 15.402-5.503 22.634-1.342 8.853-1.489 22.024-1.501 26.189a2.007 2.007 0 01-1.209 1.838l-131.229 57.14c-1.386.603-2.896-.484-2.724-1.985.587-5.129 1.997-15.078 4.663-21.682 2.459-6.091 7.987-14.297 9.243-16.128z" fill="url(#paint0_linear)"/><path d="M39.46 335.92l131.229-57.14a3.007 3.007 0 001.81-2.753c.012-4.172.161-17.272 1.49-26.041 1.084-7.156 3.764-16.762 5.473-22.498.77-2.588-2.012-4.871-4.396-3.536L50.411 293.74a2.933 2.933 0 00-.993.902c-1.246 1.818-6.839 10.111-9.345 16.32-2.723 6.745-4.144 16.82-4.73 21.942-.262 2.291 2.048 3.917 4.117 3.016z" stroke="#fff" stroke-width="2"/><path d="M39.46 335.92l131.229-57.14a3.007 3.007 0 001.81-2.753c.012-4.172.161-17.272 1.49-26.041 1.084-7.156 3.764-16.762 5.473-22.498.77-2.588-2.012-4.871-4.396-3.536L50.411 293.74a2.933 2.933 0 00-.993.902c-1.246 1.818-6.839 10.111-9.345 16.32-2.723 6.745-4.144 16.82-4.73 21.942-.262 2.291 2.048 3.917 4.117 3.016z" stroke="url(#paint1_linear)" stroke-width="2"/></g><g filter="url(#filter1_d)"><path d="M-49.556 377.022a1.997 1.997 0 011.125-1.704L158.23 275.113c1.716-.832 3.559.984 2.753 2.712-4.972 10.657-15.842 35.285-18.983 53.233-3.509 20.051-3.165 51.296-3.032 58.488a1.999 1.999 0 01-1.427 1.954l-187.827 57.012a2 2 0 01-2.579-2.009l3.309-69.481z" fill="url(#paint2_linear)"/><path d="M157.794 274.213L-48.868 374.418a3 3 0 00-1.687 2.557l-3.309 69.481c-.099 2.071 1.884 3.615 3.868 3.013l187.828-57.012a3 3 0 002.136-2.929c-.133-7.208-.472-38.357 3.017-58.298 3.115-17.799 13.927-42.313 18.904-52.982 1.204-2.581-1.532-5.278-4.095-4.035z" stroke="#fff" stroke-width="2"/><path d="M157.794 274.213L-48.868 374.418a3 3 0 00-1.687 2.557l-3.309 69.481c-.099 2.071 1.884 3.615 3.868 3.013l187.828-57.012a3 3 0 002.136-2.929c-.133-7.208-.472-38.357 3.017-58.298 3.115-17.799 13.927-42.313 18.904-52.982 1.204-2.581-1.532-5.278-4.095-4.035z" stroke="url(#paint3_linear)" stroke-width="2"/></g><g filter="url(#filter2_d)"><path d="M191.416 200.815c-.772-.575-.365-1.801.598-1.801H231a1 1 0 011 1v24a1 1 0 01-1 1h-38.986c-.963 0-1.37-1.227-.598-1.802l13.941-10.397a.999.999 0 000-1.603l-13.941-10.397z" fill="#FBB971"/><path d="M231 198.014h-38.986c-1.925 0-2.739 2.452-1.196 3.603l13.942 10.397-13.942 10.396c-1.543 1.151-.729 3.604 1.196 3.604H231a2 2 0 002-2v-24a2 2 0 00-2-2z" stroke="#F99F3D" stroke-width="2"/><path d="M231 198.014h-38.986c-1.925 0-2.739 2.452-1.196 3.603l13.942 10.397-13.942 10.396c-1.543 1.151-.729 3.604 1.196 3.604H231a2 2 0 002-2v-24a2 2 0 00-2-2z" stroke="url(#paint4_linear)" stroke-width="2"/></g><g filter="url(#filter3_d)"><path d="M176.865 227.034a4.877 4.877 0 014.795-3.384c12.479.341 54.2 1.678 82.34 4.907 26.579 3.05 65.311 10.575 76.722 12.843a4.97 4.97 0 013.911 3.942l7.959 41.306c.623 3.232-1.992 6.173-5.274 5.933l-173.729-12.69c-2.591-.189-4.601-2.325-4.574-4.922.061-5.852.342-16.09 1.492-23.412 1.265-8.045 4.591-19.005 6.358-24.523z" fill="url(#paint5_linear)"/><path d="M173.516 280.889l173.73 12.69c3.938.287 7.075-3.242 6.328-7.12l-7.959-41.306a5.972 5.972 0 00-4.698-4.734c-11.407-2.267-50.178-9.8-76.803-12.855-28.19-3.236-69.952-4.572-82.426-4.914a5.878 5.878 0 00-5.775 4.079c-1.766 5.515-5.116 16.542-6.394 24.672-1.163 7.402-1.443 17.706-1.503 23.557-.033 3.139 2.396 5.704 5.5 5.931z" stroke="#fff" stroke-width="2"/><path d="M173.516 280.889l173.73 12.69c3.938.287 7.075-3.242 6.328-7.12l-7.959-41.306a5.972 5.972 0 00-4.698-4.734c-11.407-2.267-50.178-9.8-76.803-12.855-28.19-3.236-69.952-4.572-82.426-4.914a5.878 5.878 0 00-5.775 4.079c-1.766 5.515-5.116 16.542-6.394 24.672-1.163 7.402-1.443 17.706-1.503 23.557-.033 3.139 2.396 5.704 5.5 5.931z" stroke="url(#paint6_linear)" stroke-width="2"/></g><g filter="url(#filter4_d)"><path d="M484.853 298.829c-.573-1.808-2.059-3.112-3.934-3.396-16.045-2.428-93.311-13.789-156.497-17.263-57.763-3.175-144.588-4.267-162.546-4.465-2.043-.023-3.827 1.202-4.569 3.105-3.37 8.644-12.669 33.653-16.751 56.36-3.059 17.011-3.295 41.045-3.22 52.063.021 3.103 2.868 5.377 5.91 4.765l215.085-43.309c.06-.013.117-.023.178-.033 1.716-.278 28.478-4.595 59.413-7.986 25.374-2.781 57.748-5.629 70.968-6.765 3.133-.269 5.224-3.312 4.311-6.321-2.537-8.358-6.547-21.064-8.348-26.755z" fill="url(#paint7_linear)"/><path d="M358.529 347.669l-215.085 43.309c-3.647.734-7.083-1.995-7.108-5.738-.075-11.015.159-35.134 3.235-52.247 4.101-22.808 13.431-47.894 16.804-56.546.891-2.285 3.046-3.769 5.512-3.742 17.955.198 104.802 1.29 162.589 4.467 63.239 3.476 140.547 14.844 156.593 17.272 2.263.343 4.053 1.923 4.737 4.083 1.802 5.691 5.813 18.402 8.352 26.766 1.1 3.627-1.426 7.285-5.182 7.608-13.22 1.136-45.583 3.984-70.946 6.763-30.909 3.388-57.651 7.702-59.361 7.979a4.22 4.22 0 00-.14.026z" stroke="#fff" stroke-width="2"/><path d="M358.529 347.669l-215.085 43.309c-3.647.734-7.083-1.995-7.108-5.738-.075-11.015.159-35.134 3.235-52.247 4.101-22.808 13.431-47.894 16.804-56.546.891-2.285 3.046-3.769 5.512-3.742 17.955.198 104.802 1.29 162.589 4.467 63.239 3.476 140.547 14.844 156.593 17.272 2.263.343 4.053 1.923 4.737 4.083 1.802 5.691 5.813 18.402 8.352 26.766 1.1 3.627-1.426 7.285-5.182 7.608-13.22 1.136-45.583 3.984-70.946 6.763-30.909 3.388-57.651 7.702-59.361 7.979a4.22 4.22 0 00-.14.026z" stroke="url(#paint8_linear)" stroke-width="2"/></g><path d="M386.811 225.795a2 2 0 011.39 1.963l-1.78 60.852a2 2 0 01-2.609 1.846l-2.164-.692a2.002 2.002 0 01-1.314-1.356l-13.729-48.043a2 2 0 01.58-2.031l14.491-13.135a2.002 2.002 0 011.953-.423l3.182 1.019z" fill="#72D77C"/><path d="M385.633 228.65c1.125-1.071 2.988-.506 3.33 1.009l10.099 44.846c.135.6-.013 1.229-.403 1.705l-9.891 12.092c-1.023 1.251-3.03.835-3.472-.72l-12.778-44.97a2.002 2.002 0 01.545-1.996l12.57-11.966z" fill="#48B452"/><path d="M403.016 231.744a2 2 0 01.721 2.295l-20.337 57.38a2 2 0 01-3.049.958l-1.848-1.322a1.999 1.999 0 01-.835-1.692l1.65-49.939a1.998 1.998 0 011.174-1.756l17.818-8.064a1.998 1.998 0 011.988.196l2.718 1.944z" fill="#72D77C"/><path d="M401.019 234.1c1.399-.675 3 .433 2.861 1.981l-4.125 45.783a2.002 2.002 0 01-.906 1.5l-13.12 8.48c-1.357.877-3.14-.134-3.085-1.749l1.614-46.723c.025-.742.46-1.41 1.129-1.732l15.632-7.54z" fill="#48B452"/><path d="M370.121 265.342a2.001 2.001 0 011.073-2.153l54.458-27.211a2 2 0 012.861 1.426l.413 2.234a1.997 1.997 0 01-.573 1.798l-35.837 34.818a2.002 2.002 0 01-2.065.45l-18.426-6.556a2 2 0 01-1.296-1.52l-.608-3.286z" fill="#48B452"/><path d="M373.195 265.031c-1.476-.485-1.86-2.394-.686-3.411l34.736-30.108a2.001 2.001 0 011.694-.452l15.331 2.997c1.586.31 2.169 2.275 1.008 3.399l-33.58 32.527a1.998 1.998 0 01-2.015.464l-16.488-5.416z" fill="#72D77C"/><path d="M417.209 261.905l-43.453-4.211c-2.337-.226-4.689.287-6.684 1.589-4.189 2.733-12.492 8.468-20.574 15.905-8.059 7.415-16.009 16.621-19.349 26.312-8.241 23.915-7.576 40.227-5.973 48.981.933 5.097 5.876 7.622 10.721 6.751 14.668-2.639 47.532-8.368 68.444-10.625 18.994-2.051 43.338-4.357 54.665-5.414 4.213-.393 8.061-3.178 8.971-7.484 2.928-13.847-2.544-24.022-10.745-39.272a1137.92 1137.92 0 01-1.871-3.486c-3.003-5.622-8.919-11.494-14.73-16.405-5.836-4.933-11.674-8.985-14.629-10.958-1.443-.964-3.088-1.518-4.793-1.683z" fill="#FBB971"/><path d="M417.209 261.905l-43.453-4.211c-2.337-.226-4.689.287-6.684 1.589-4.189 2.733-12.492 8.468-20.574 15.905-8.059 7.415-16.009 16.621-19.349 26.312-8.241 23.915-7.576 40.227-5.973 48.981.933 5.097 5.876 7.622 10.721 6.751 14.668-2.639 47.532-8.368 68.444-10.625 18.994-2.051 43.338-4.357 54.665-5.414 4.213-.393 8.061-3.178 8.971-7.484 2.928-13.847-2.544-24.022-10.745-39.272a1137.92 1137.92 0 01-1.871-3.486c-3.003-5.622-8.919-11.494-14.73-16.405-5.836-4.933-11.674-8.985-14.629-10.958-1.443-.964-3.088-1.518-4.793-1.683z" stroke="#F99F3D" stroke-width="2"/><path d="M417.209 261.905l-43.453-4.211c-2.337-.226-4.689.287-6.684 1.589-4.189 2.733-12.492 8.468-20.574 15.905-8.059 7.415-16.009 16.621-19.349 26.312-8.241 23.915-7.576 40.227-5.973 48.981.933 5.097 5.876 7.622 10.721 6.751 14.668-2.639 47.532-8.368 68.444-10.625 18.994-2.051 43.338-4.357 54.665-5.414 4.213-.393 8.061-3.178 8.971-7.484 2.928-13.847-2.544-24.022-10.745-39.272a1137.92 1137.92 0 01-1.871-3.486c-3.003-5.622-8.919-11.494-14.73-16.405-5.836-4.933-11.674-8.985-14.629-10.958-1.443-.964-3.088-1.518-4.793-1.683z" stroke="url(#paint9_linear)" stroke-width="2"/><path d="M427.493 261.365l.659-1.069c3.424-5.55 1.296-12.934-4.921-15.256-4.786-1.788-10.431-3.562-14.711-3.863-5.176-.364-9.618.504-13.888 1.338l-.615.119c-4.479.872-8.816 1.644-13.891 1.021-2.848-.349-7.305-.308-11.377-.157-5.903.217-9.821 5.978-8.164 11.583 1.483 5.02 6.793 7.728 11.791 7.018 3.791-.538 8.335-.758 12.512.137 7.038 1.509 23.274 3.333 32.179 4.274a10.905 10.905 0 0010.426-5.145z" fill="#FBB971"/><path d="M427.493 261.365l.659-1.069c3.424-5.55 1.296-12.934-4.921-15.256-4.786-1.788-10.431-3.562-14.711-3.863-5.176-.364-9.618.504-13.888 1.338l-.615.119c-4.479.872-8.816 1.644-13.891 1.021-2.848-.349-7.305-.308-11.377-.157-5.903.217-9.821 5.978-8.164 11.583 1.483 5.02 6.793 7.728 11.791 7.018 3.791-.538 8.335-.758 12.512.137 7.038 1.509 23.274 3.333 32.179 4.274a10.905 10.905 0 0010.426-5.145z" stroke="#F99F3D" stroke-width="2"/><path d="M427.493 261.365l.659-1.069c3.424-5.55 1.296-12.934-4.921-15.256-4.786-1.788-10.431-3.562-14.711-3.863-5.176-.364-9.618.504-13.888 1.338l-.615.119c-4.479.872-8.816 1.644-13.891 1.021-2.848-.349-7.305-.308-11.377-.157-5.903.217-9.821 5.978-8.164 11.583 1.483 5.02 6.793 7.728 11.791 7.018 3.791-.538 8.335-.758 12.512.137 7.038 1.509 23.274 3.333 32.179 4.274a10.905 10.905 0 0010.426-5.145z" stroke="url(#paint10_linear)" stroke-width="2"/><g filter="url(#filter5_d)"><path d="M661.787 357.969c1.615-17.339-12.519-31.592-29.919-30.886-54.294 2.204-162.815 7.049-209.368 12.253-226.558 25.33-464.973 102.63-514.621 119.307-6.206 2.085-11.339 6.146-14.96 11.601l-28.913 43.551A30 30 0 00-141 530.387v21.341c0 16.804 13.769 30.322 30.568 29.907 46.932-1.158 137.77-3.739 199.432-7.621 96.882-6.099 111.5-39.272 208.5-32 53.561 4.016 122.39 24.032 176 27.322 26.216 1.609 66.592.951 88.181.422 9.357-.229 17.995-4.9 23.143-12.717 15.308-23.241 47.808-75.653 63.676-124.205 7.21-22.06 11.177-52.198 13.287-74.867z" fill="url(#paint11_linear)"/><path d="M422.389 338.343c46.596-5.21 155.16-10.056 209.438-12.259 17.976-.73 32.629 14.008 30.956 31.977-2.111 22.679-6.086 52.912-13.332 75.086-15.913 48.688-48.478 101.195-63.792 124.444-5.333 8.098-14.278 12.929-23.954 13.167-21.584.529-62.001 1.188-88.266-.424-26.882-1.65-57.559-7.49-88.147-13.405l-2.486-.481c-29.787-5.761-59.394-11.488-85.381-13.437-48.347-3.624-76.127 2.825-103.939 10.949-3.199.934-6.399 1.891-9.632 2.858-24.933 7.455-51.795 15.487-94.791 18.194-61.684 3.884-152.539 6.464-199.471 7.623-17.364.429-31.592-13.545-31.592-30.907v-21.341a30.997 30.997 0 015.173-17.145l28.913-43.551c3.738-5.631 9.048-9.837 15.475-11.996 49.659-16.681 288.158-94.01 514.828-119.352z" stroke="#fff" stroke-width="2"/><path d="M422.389 338.343c46.596-5.21 155.16-10.056 209.438-12.259 17.976-.73 32.629 14.008 30.956 31.977-2.111 22.679-6.086 52.912-13.332 75.086-15.913 48.688-48.478 101.195-63.792 124.444-5.333 8.098-14.278 12.929-23.954 13.167-21.584.529-62.001 1.188-88.266-.424-26.882-1.65-57.559-7.49-88.147-13.405l-2.486-.481c-29.787-5.761-59.394-11.488-85.381-13.437-48.347-3.624-76.127 2.825-103.939 10.949-3.199.934-6.399 1.891-9.632 2.858-24.933 7.455-51.795 15.487-94.791 18.194-61.684 3.884-152.539 6.464-199.471 7.623-17.364.429-31.592-13.545-31.592-30.907v-21.341a30.997 30.997 0 015.173-17.145l28.913-43.551c3.738-5.631 9.048-9.837 15.475-11.996 49.659-16.681 288.158-94.01 514.828-119.352z" stroke="url(#paint12_linear)" stroke-width="2"/></g><path d="M719.266 118.607l19.392-1.956c1.158-.065 2.093.373 2.679 1.069.587.698.851 1.688.595 2.786l-3.647 13.98c-.298.906-1.006 1.83-1.955 2.173l-.005.002c-3.735 1.398-11.038 3.815-19.125 5.809-7.874 1.942-16.446 3.473-23.181 3.296l2.64-16.037 21.405-22.807c.571-.515 1.147-.797 1.731-.885.589-.089 1.229.014 1.934.345 1.252.587 1.768 2.334 1.142 3.682l-4.098 7.813-.432.823.925-.093z" fill="#fff" stroke="#2F3537"/><path d="M650.702 208.905l10.113-14.828 7.622 6.469.508.431.272-.609 26.799-59.98 18.594 2.861a315.587 315.587 0 01-1.213 5.105 415.652 415.652 0 01-3.755 14.155c-3.233 11.373-7.838 25.675-13.334 37.444-.473 1.011-.955 2.053-1.448 3.116-3.182 6.867-6.777 14.627-10.655 20.845-2.238 3.591-4.552 6.634-6.909 8.688-2.359 2.056-4.696 3.066-7.011 2.739-4.943-.697-11.472-3.638-16.809-6.441a142.809 142.809 0 01-8.664-4.955l-.36-.225 6.25-14.815z" fill="#fff" stroke="#2F3537"/><g filter="url(#filter6_d)"><path d="M611.686 479.668c1.037-5.992 7.181-9.594 12.944-7.65l6.47 2.183a8.026 8.026 0 014.967 10.371c-1.561 4.249.69 8.997 4.737 11.026 5.946 2.981 14.009 8.028 18.912 15.238.762 1.121 1.037 2.509 1.028 3.947-.034 5.088-5.93 7.187-10.686 5.38l-36.607-13.911c-3.148-1.196-5.145-3.935-4.751-7.279.606-5.145 1.876-12.889 2.986-19.305z" fill="#FBB971"/><path d="M631.419 473.254l-6.469-2.183c-6.336-2.138-13.106 1.821-14.249 8.427-1.11 6.414-2.384 14.183-2.994 19.358-.457 3.876 1.89 7.001 5.388 8.331l36.608 13.911c2.61.991 5.549.924 7.88-.128 2.364-1.066 4.141-3.179 4.161-6.18.01-1.557-.285-3.169-1.201-4.516-5.048-7.423-13.297-12.565-19.291-15.57-3.658-1.833-5.608-6.081-4.246-9.787 1.75-4.767-.775-10.04-5.587-11.663z" stroke="#F99F3D" stroke-width="2"/><path d="M631.419 473.254l-6.469-2.183c-6.336-2.138-13.106 1.821-14.249 8.427-1.11 6.414-2.384 14.183-2.994 19.358-.457 3.876 1.89 7.001 5.388 8.331l36.608 13.911c2.61.991 5.549.924 7.88-.128 2.364-1.066 4.141-3.179 4.161-6.18.01-1.557-.285-3.169-1.201-4.516-5.048-7.423-13.297-12.565-19.291-15.57-3.658-1.833-5.608-6.081-4.246-9.787 1.75-4.767-.775-10.04-5.587-11.663z" stroke="url(#paint13_linear)" stroke-width="2"/></g><g filter="url(#filter7_d)"><path d="M797.76 440.283c-4.75-3.797-4.95-10.916-.47-15.028l5.03-4.617c3.33-3.053 8.52-2.762 11.48.645 2.98 3.416 8.22 3.732 11.95 1.164 5.48-3.774 13.78-8.406 22.46-9.227 1.35-.128 2.7.3 3.96 1.001 4.44 2.482 3.44 8.659-.44 11.956l-29.83 25.371c-2.56 2.182-5.93 2.611-8.67.655-4.21-3.011-10.39-7.856-15.47-11.92z" fill="#FBB971"/><path d="M801.65 419.901l-5.03 4.617c-4.93 4.521-4.72 12.361.51 16.546 5.09 4.064 11.28 8.924 15.52 11.952 3.18 2.269 7.05 1.719 9.9-.706l29.83-25.372c2.13-1.808 3.48-4.417 3.69-6.966.2-2.585-.79-5.16-3.41-6.624-1.36-.759-2.92-1.277-4.54-1.124-8.94.846-17.42 5.595-22.94 9.399-3.37 2.321-8.03 1.983-10.62-.996-3.33-3.832-9.17-4.16-12.91-.726z" stroke="#F99F3D" stroke-width="2"/><path d="M801.65 419.901l-5.03 4.617c-4.93 4.521-4.72 12.361.51 16.546 5.09 4.064 11.28 8.924 15.52 11.952 3.18 2.269 7.05 1.719 9.9-.706l29.83-25.372c2.13-1.808 3.48-4.417 3.69-6.966.2-2.585-.79-5.16-3.41-6.624-1.36-.759-2.92-1.277-4.54-1.124-8.94.846-17.42 5.595-22.94 9.399-3.37 2.321-8.03 1.983-10.62-.996-3.33-3.832-9.17-4.16-12.91-.726z" stroke="url(#paint14_linear)" stroke-width="2"/></g><g filter="url(#filter8_d)"><path d="M614.215 264.912c0-4.963 4.111-8.94 9.072-8.776l50.534 1.67a8.71 8.71 0 011.755.229c5.064 1.213 30.947 8.049 37.139 22.301 6.651 15.305-21.102 79.167-22.908 83.291-.063.144-.12.282-.177.429l-44.06 114.093a10 10 0 01-12.258 5.958l-14.247-4.365c-4.563-1.399-7.5-5.802-6.961-10.544 1.958-17.236 7.001-58.023 13.611-84.64 4.728-19.037 14.713-48.956 18.5-60.113.95-2.796.626-5.851-.888-8.386l-27.869-46.643a8.785 8.785 0 01-1.243-4.504z" fill="url(#paint15_linear)"/><path d="M618.772 480.698l14.247 4.365a10.999 10.999 0 0013.484-6.554l44.06-114.093c.051-.132.103-.257.16-.388.907-2.07 8.309-19.095 14.655-37.528 3.172-9.214 6.089-18.806 7.797-27.071.853-4.131 1.41-7.956 1.539-11.25.128-3.272-.161-6.123-1.082-8.242-3.254-7.49-11.584-12.894-19.49-16.549-7.964-3.682-15.773-5.712-18.332-6.326a9.723 9.723 0 00-1.956-.255l-50.534-1.671c-5.526-.182-10.105 4.248-10.105 9.776a9.78 9.78 0 001.385 5.017l27.868 46.643a9.031 9.031 0 01.8 7.551c-3.785 11.151-13.783 41.11-18.523 60.194-6.629 26.689-11.678 67.539-13.635 84.769-.594 5.228 2.647 10.075 7.662 11.612z" stroke="#fff" stroke-width="2"/><path d="M618.772 480.698l14.247 4.365a10.999 10.999 0 0013.484-6.554l44.06-114.093c.051-.132.103-.257.16-.388.907-2.07 8.309-19.095 14.655-37.528 3.172-9.214 6.089-18.806 7.797-27.071.853-4.131 1.41-7.956 1.539-11.25.128-3.272-.161-6.123-1.082-8.242-3.254-7.49-11.584-12.894-19.49-16.549-7.964-3.682-15.773-5.712-18.332-6.326a9.723 9.723 0 00-1.956-.255l-50.534-1.671c-5.526-.182-10.105 4.248-10.105 9.776a9.78 9.78 0 001.385 5.017l27.868 46.643a9.031 9.031 0 01.8 7.551c-3.785 11.151-13.783 41.11-18.523 60.194-6.629 26.689-11.678 67.539-13.635 84.769-.594 5.228 2.647 10.075 7.662 11.612z" stroke="url(#paint16_linear)" stroke-width="2"/></g><g filter="url(#filter9_d)"><path d="M521.108 263.335c.535-5.117 5.026-8.808 10.165-8.557l113.348 5.529c.396.019.782.061 1.173.127 2.911.497 16.132 2.771 23.921 4.402 7.631 1.597 11.362 1.914 18 6 5.769 3.551 12.987 10.928 14.293 12.284.139.143.272.292.4.446L811.08 412.938c3.63 4.322 2.97 10.79-1.46 14.284l-12.2 9.619c-3.4 2.68-8.11 2.885-11.69.452-17.36-11.791-68.31-46.98-98.015-73.457-14.16-12.622-31.013-30.528-38.534-38.67-2.46-2.664-6.121-3.838-9.685-3.172-24.266 4.54-117.541 18.048-119.28-42.158-.145-4.995.356-11.373.892-16.501z" fill="url(#paint17_linear)"/><path d="M519.216 279.865c.444 15.353 6.744 26.08 16.353 33.392 9.563 7.278 22.339 11.127 35.706 12.929 26.734 3.604 56.25-.935 68.405-3.209 3.233-.605 6.545.463 8.766 2.867 7.522 8.143 24.404 26.081 38.604 38.738 29.762 26.528 80.77 61.752 98.11 73.538 3.95 2.683 9.14 2.452 12.88-.494l12.19-9.618c4.88-3.844 5.61-10.959 1.62-15.713L703.174 282.922a9.325 9.325 0 00-.446-.496c-1.291-1.341-8.594-8.814-14.488-12.442-5.898-3.63-9.628-4.377-15.436-5.54-.905-.181-1.861-.373-2.884-.587-7.811-1.635-21.051-3.912-23.958-4.408-.432-.074-.858-.12-1.293-.141l-113.348-5.529c-5.645-.275-10.615 3.784-11.208 9.452-.537 5.136-1.043 11.569-.897 16.634z" stroke="#fff" stroke-width="2"/><path d="M519.216 279.865c.444 15.353 6.744 26.08 16.353 33.392 9.563 7.278 22.339 11.127 35.706 12.929 26.734 3.604 56.25-.935 68.405-3.209 3.233-.605 6.545.463 8.766 2.867 7.522 8.143 24.404 26.081 38.604 38.738 29.762 26.528 80.77 61.752 98.11 73.538 3.95 2.683 9.14 2.452 12.88-.494l12.19-9.618c4.88-3.844 5.61-10.959 1.62-15.713L703.174 282.922a9.325 9.325 0 00-.446-.496c-1.291-1.341-8.594-8.814-14.488-12.442-5.898-3.63-9.628-4.377-15.436-5.54-.905-.181-1.861-.373-2.884-.587-7.811-1.635-21.051-3.912-23.958-4.408-.432-.074-.858-.12-1.293-.141l-113.348-5.529c-5.645-.275-10.615 3.784-11.208 9.452-.537 5.136-1.043 11.569-.897 16.634z" stroke="url(#paint18_linear)" stroke-width="2"/></g><path d="M600.212 21.744c11.396-3.543 17.812.344 29.608 4.998 8.509 3.357 21.046 2.462 19.517 11.48-1.029 6.07-2.857 8.631-8.765 10.358C634 50.5 631 48 631 48l-34-1.442-7.114 10.353L585 72.5l-2.5 12s-28.299-37.095-7.212-51.444c3.641-2.478 11.125-1.93 11.125-1.93s6.67-7.166 13.799-9.383z" fill="#2F3537"/><g filter="url(#filter10_d)"><path d="M625.675 203.038a2.002 2.002 0 01-.281-1.522l14.087-64.525c.405-1.856 2.922-2.144 3.731-.425 9.532 20.265 14.215 34.006 19.822 57.991a2.016 2.016 0 01-.216 1.464l-17.976 31.008c-.746 1.288-2.588 1.338-3.403.093l-15.764-24.084z" fill="#FBB971"/><path d="M638.504 136.778l-14.087 64.525a3.004 3.004 0 00.421 2.283l15.764 24.083c1.223 1.869 3.986 1.794 5.105-.138l17.976-31.009a3.012 3.012 0 00.325-2.192c-5.621-24.047-10.326-37.855-19.891-58.19-1.218-2.588-5.005-2.147-5.613.638z" stroke="#F99F3D" stroke-width="2"/><path d="M638.504 136.778l-14.087 64.525a3.004 3.004 0 00.421 2.283l15.764 24.083c1.223 1.869 3.986 1.794 5.105-.138l17.976-31.009a3.012 3.012 0 00.325-2.192c-5.621-24.047-10.326-37.855-19.891-58.19-1.218-2.588-5.005-2.147-5.613.638z" stroke="url(#paint19_linear)" stroke-width="2"/></g><path d="M584.293 72.497l.233.189-.057.295-4.931 25.403-.075.39-.397.015-13.995.511.611 1.152 2.44 4.602c1.943 3.661 4.347 8.186 6.193 11.639 3.132 5.856 7.16 12.1 11.175 16.774 2.009 2.338 4 4.266 5.86 5.558 1.873 1.3 3.539 1.904 4.923 1.73 2.527-.317 4.606-2.073 6.314-4.665 1.706-2.587 2.99-5.935 3.944-9.274.952-3.333 1.566-6.627 1.942-9.092a78.295 78.295 0 00.485-3.793l.008-.086-4.798-5.786-.151-.182.045-.231 3.835-19.999.306-.6-23.91-14.55zm0 0l.233.189-.245-.199-.039-.032a23.14 23.14 0 01-.703-.613 27.093 27.093 0 01-1.715-1.7c-.636-.694-1.283-1.481-1.803-2.293-.523-.817-.9-1.63-1.028-2.376-.298-1.723-.644-3.734-.228-5.375.204-.8.584-1.489 1.232-2.01.651-.524 1.615-.913 3.044-1.032.438-.036.82.116 1.192.39.356.264.668.61.991.969l.08.09c.169.187.346.38.524.54.176.16.385.317.626.406.259.096.547.108.836-.019.271-.118.496-.336.692-.608a575.196 575.196 0 016.523-8.806c.927-1.23 1.713-2.264 2.267-2.991l.647-.847.072-.094-10.201 13.346-4.249-2.376 1.252 15.441zm24.398 14.847l.002.002.011.007.043.032a17.64 17.64 0 00.828.566c.56.361 1.345.826 2.243 1.244 1.833.853 3.992 1.444 5.702.782 1.879-.726 3.562-2.19 5.074-4.03 1.509-1.837 2.821-4.016 3.966-6.128 1.566-2.885 2.248-6.824 2.531-10.088a51.268 51.268 0 00.176-5.313l-.009-.326-.003-.083-.001-.02-.001-.005v-.001l-.002-.045.006-.045 2.175-16.359-33.941-1.448-10.201 13.346-4.249-2.376 1.252 15.441 24.398 14.847zm-11.2-41.258L587.29 59.432l-4.249-2.376 1.252 15.441 24.398 14.847" fill="#fff"/><path d="M584.293 72.497l.233.189m-.233-.189l23.91 14.55-.306.6-3.835 19.999-.045.231.151.182 4.798 5.786-.008.086a78.295 78.295 0 01-.485 3.793c-.376 2.465-.99 5.759-1.942 9.092-.954 3.339-2.238 6.687-3.944 9.274-1.708 2.592-3.787 4.348-6.314 4.665-1.384.174-3.05-.43-4.923-1.73-1.86-1.292-3.851-3.22-5.86-5.558-4.015-4.674-8.043-10.918-11.175-16.774a4798.621 4798.621 0 01-8.633-16.241l-.611-1.152 13.995-.511.397-.015.075-.39 4.931-25.403.057-.295m-.233-.189l24.398 14.847.002.002.011.007.043.032a17.64 17.64 0 00.828.566c.56.361 1.345.826 2.243 1.244 1.833.853 3.992 1.444 5.702.782 1.879-.726 3.562-2.19 5.074-4.03 1.509-1.837 2.821-4.016 3.966-6.128 1.566-2.885 2.248-6.824 2.531-10.088a51.268 51.268 0 00.176-5.313l-.009-.326-.003-.083-.001-.02-.001-.005v-.001l-.002-.045.006-.045 2.175-16.359-33.941-1.448m-13.198 26.411l-1.252-15.441m1.485 15.63l-.245-.199-.039-.032a23.14 23.14 0 01-.703-.613 27.093 27.093 0 01-1.715-1.7c-.636-.694-1.283-1.481-1.803-2.293-.523-.817-.9-1.63-1.028-2.376-.298-1.723-.644-3.734-.228-5.375.204-.8.584-1.489 1.232-2.01.651-.524 1.615-.913 3.044-1.032m0 0c.438-.036.82.116 1.192.39.356.264.668.61.991.969l.08.09c.169.187.346.38.524.54.176.16.385.317.626.406.259.096.547.108.836-.019m-4.249-2.376l4.249 2.376m0 0c.271-.118.496-.336.692-.608a575.196 575.196 0 016.523-8.806c.927-1.23 1.713-2.264 2.267-2.991l.647-.847.072-.094M587.29 59.432l10.201-13.346" stroke="#2F3537" stroke-width="2"/><path d="M584.293 72.497l-.012-.01-.039-.032a23.14 23.14 0 01-.703-.613 27.093 27.093 0 01-1.715-1.7c-.636-.694-1.803-2.293-1.803-2.293s-.9-1.63-1.028-2.376c-.298-1.723-.228-5.375-.228-5.375s.584-1.489 1.232-2.01c.651-.524 1.615-.913 3.044-1.032.438-.036.82.116 1.192.39.356.264.668.61.991.969l.08.09c.169.187.346.38.524.54.176.16.385.317.626.406.259.096.547.108.836-.019.271-.118.496-.336.692-.608a575.196 575.196 0 016.523-8.806c.927-1.23 1.713-2.264 2.267-2.991l.647-.847.072-.094-10.201 13.346-4.249-2.376-4.276 3.042 1.256 7.75 4.272 4.649zm24.398 14.847l.002.002.011.007.043.032a17.64 17.64 0 00.828.566c.56.361 1.345.826 2.243 1.244 1.833.853 3.992 1.444 5.702.782 1.879-.726 3.562-2.19 5.074-4.03 1.509-1.837 2.821-4.016 3.966-6.128 1.566-2.885 2.248-6.824 2.531-10.088a51.268 51.268 0 00.176-5.313l-.009-.326-.003-.083-.001-.02-.001-.005v-.001l-.002-.045.006-.045 2.175-16.359-33.941-1.448-10.201 13.346-4.249-2.376-4.276 3.042 1.256 7.75 4.272 4.649-4.755 25.887-5.829.213L573.5 104l14.5 26 16.5-5 3.351-12.5-3.834-4.623 4.186-20.83.488.297zm-11.2-41.258L587.29 59.432l-4.249-2.376-4.276 3.042 1.256 7.75 4.272 4.649-4.755 25.887-5.829.213L573.5 104l14.5 26 16.5-5 3.351-12.5-3.834-4.623 4.186-20.83.488.297" fill="#fff"/><path d="M628.03 70.86c4.345 1.109 8.947-2.219 10.278-7.433 1.331-5.214-1.113-10.34-5.458-11.45-4.345-1.11-8.947 2.219-10.278 7.433-1.331 5.214 1.113 10.34 5.458 11.45z" fill="#F99F3D"/><path d="M608.893 72.582c4.345 1.11 8.947-2.218 10.278-7.432 1.331-5.215-1.113-10.341-5.458-11.45-4.345-1.11-8.947 2.218-10.278 7.433-1.331 5.214 1.113 10.34 5.458 11.45z" fill="#FFBF78"/><path d="M587.916 57.068l16.483 1.66-.083 2.163-16.483-1.659.083-2.164z" fill="#FFBF78"/><g filter="url(#filter11_d)"><path d="M532.735 100.582a1.962 1.962 0 011.819-1.262l37.46-.463a2.065 2.065 0 012.035 1.636c1.298 5.981 6.523 26.185 18.167 27.843 8.757 1.247 13.773-8.782 15.646-13.561.478-1.22 1.955-1.785 3.082-1.116l28.634 17.002a1.998 1.998 0 01.961 1.986l-17.087 126.931a2 2 0 01-2.01 1.733l-103.072-1.445a2 2 0 01-1.965-2.176l8.302-93.762c.006-.061.008-.118.008-.179-.005-1.646-.044-26.172 2.001-41.913.97-7.473 4.685-17.732 6.019-21.254z" fill="#FBB971"/><path d="M640.089 129.801L611.455 112.8c-1.696-1.008-3.838-.141-4.524 1.61-.921 2.348-2.592 5.925-5.063 8.746-2.465 2.815-5.599 4.747-9.511 4.19-5.279-.752-9.295-5.77-12.205-11.748-2.872-5.899-4.483-12.355-5.125-15.317a3.066 3.066 0 00-3.026-2.424l-37.46.463a2.96 2.96 0 00-2.741 1.908c-1.33 3.511-5.088 13.874-6.076 21.479-2.054 15.819-2.014 40.411-2.009 42.045a.918.918 0 01-.004.088l-8.302 93.762a3 3 0 002.946 3.264l103.073 1.445a3 3 0 003.015-2.599L641.53 132.78a2.999 2.999 0 00-1.441-2.979z" stroke="#F99F3D" stroke-width="2"/><path d="M640.089 129.801L611.455 112.8c-1.696-1.008-3.838-.141-4.524 1.61-.921 2.348-2.592 5.925-5.063 8.746-2.465 2.815-5.599 4.747-9.511 4.19-5.279-.752-9.295-5.77-12.205-11.748-2.872-5.899-4.483-12.355-5.125-15.317a3.066 3.066 0 00-3.026-2.424l-37.46.463a2.96 2.96 0 00-2.741 1.908c-1.33 3.511-5.088 13.874-6.076 21.479-2.054 15.819-2.014 40.411-2.009 42.045a.918.918 0 01-.004.088l-8.302 93.762a3 3 0 002.946 3.264l103.073 1.445a3 3 0 003.015-2.599L641.53 132.78a2.999 2.999 0 00-1.441-2.979z" stroke="url(#paint20_linear)" stroke-width="2"/></g><path d="M688.5 132a2 2 0 011.368-1.897l57.5-19.167a2 2 0 012.632 1.897v4.154a2 2 0 01-.893 1.665l-42.878 28.511a2 2 0 01-2.078.083l-14.622-8.116a2 2 0 01-1.029-1.749V132z" fill="#48B452"/><path d="M688.5 132a2 2 0 011.368-1.897l57.5-19.167a2 2 0 012.632 1.897v4.154a2 2 0 01-.893 1.665l-42.878 28.511a2 2 0 01-2.078.083l-14.622-8.116a2 2 0 01-1.029-1.749V132z" fill="url(#paint21_linear)" fill-opacity=".5"/><path d="M689.291 132.593c-1.363-.745-1.394-2.691-.055-3.479l43.423-25.561a2.002 2.002 0 011.749-.137l14.514 5.73c1.506.594 1.719 2.638.367 3.53l-42.703 28.161a1.999 1.999 0 01-2.06.085l-15.235-8.329z" fill="#72D77C"/><path d="M689.291 132.593c-1.363-.745-1.394-2.691-.055-3.479l43.423-25.561a2.002 2.002 0 011.749-.137l14.514 5.73c1.506.594 1.719 2.638.367 3.53l-42.703 28.161a1.999 1.999 0 01-2.06.085l-15.235-8.329z" fill="url(#paint22_linear)" fill-opacity=".5"/><path d="M658.331 267.85l-.005-.002-31.484-7.496c-22.643-6.435-48.787-15.823-66.84-28.426-5.177-3.614-9.506-10.514-12.555-16.582a100.68 100.68 0 01-3.52-7.856 85.69 85.69 0 01-1.085-2.871l31.65-13.147 8.784 16.105.065.119.116.07 79.5 48 .132.08.155-.009h.006l.022-.001.086-.005c.076-.003.189-.009.335-.014a71.377 71.377 0 015.488.014c3.383.141 7.516.57 10.649 1.699 1.507.543 3.803 2.172 6.358 4.393 2.535 2.205 5.269 4.942 7.643 7.636 2.379 2.7 4.374 5.331 5.451 7.325.546 1.01.819 1.79.837 2.307.008.248-.044.386-.101.463-.053.07-.156.151-.388.191-2.77.482-6.718.004-11.137-1.025-4.403-1.025-9.21-2.58-13.669-4.202a227.835 227.835 0 01-16.061-6.578l-.251-.116-.064-.029-.016-.008-.004-.002h-.001l-.037.078.037-.078-.051-.024-.045-.009z" fill="#fff" stroke="#2F3537"/><g filter="url(#filter12_d)"><path d="M581.199 188.375c-1.671-6.326-8.526-31.361-17.947-53.401-4.705-11.008-10.084-21.351-15.823-28.24-2.869-3.443-5.884-6.093-9.016-7.499-3.173-1.425-6.456-1.564-9.72.005-3.655 1.758-5.994 5.316-7.469 9.626-1.477 4.317-2.135 9.53-2.332 14.836-.375 10.08.913 20.719 1.631 26.653l.11.906c2.514 20.915 13.7 50.059 16.772 57.788.652 1.638 2.54 2.304 4.081 1.543l38.132-18.837c1.237-.611 1.953-1.971 1.581-3.38z" fill="#FBB971"/><path d="M581.199 188.375c-1.671-6.326-8.526-31.361-17.947-53.401-4.705-11.008-10.084-21.351-15.823-28.24-2.869-3.443-5.884-6.093-9.016-7.499-3.173-1.425-6.456-1.564-9.72.005-3.655 1.758-5.994 5.316-7.469 9.626-1.477 4.317-2.135 9.53-2.332 14.836-.375 10.08.913 20.719 1.631 26.653l.11.906c2.514 20.915 13.7 50.059 16.772 57.788.652 1.638 2.54 2.304 4.081 1.543l38.132-18.837c1.237-.611 1.953-1.971 1.581-3.38z" stroke="#F99F3D" stroke-width="2"/><path d="M581.199 188.375c-1.671-6.326-8.526-31.361-17.947-53.401-4.705-11.008-10.084-21.351-15.823-28.24-2.869-3.443-5.884-6.093-9.016-7.499-3.173-1.425-6.456-1.564-9.72.005-3.655 1.758-5.994 5.316-7.469 9.626-1.477 4.317-2.135 9.53-2.332 14.836-.375 10.08.913 20.719 1.631 26.653l.11.906c2.514 20.915 13.7 50.059 16.772 57.788.652 1.638 2.54 2.304 4.081 1.543l38.132-18.837c1.237-.611 1.953-1.971 1.581-3.38z" stroke="url(#paint23_linear)" stroke-width="2"/></g><defs><linearGradient id="paint0_linear" x1="64.684" y1="197.673" x2="193.61" y2="232.438" gradientUnits="userSpaceOnUse"><stop stop-color="#F7F7F7"/><stop offset="1" stop-color="#F2F2F2" stop-opacity=".75"/></linearGradient><linearGradient id="paint1_linear" x1="87.016" y1="353.326" x2="55.61" y2="212.546" gradientUnits="userSpaceOnUse"><stop stop-color="#EAEAEB"/><stop offset="1" stop-color="#fff" stop-opacity="0"/></linearGradient><linearGradient id="paint2_linear" x1="-12.164" y1="239.516" x2="172.815" y2="286.445" gradientUnits="userSpaceOnUse"><stop stop-color="#F7F7F7"/><stop offset="1" stop-color="#F2F2F2" stop-opacity=".75"/></linearGradient><linearGradient id="paint3_linear" x1="19.627" y1="475.045" x2="-30.575" y2="263.324" gradientUnits="userSpaceOnUse"><stop stop-color="#EAEAEB"/><stop offset="1" stop-color="#fff" stop-opacity="0"/></linearGradient><linearGradient id="paint4_linear" x1="209.5" y1="212.467" x2="220.241" y2="237.186" gradientUnits="userSpaceOnUse"><stop stop-color="#FCCC98"/><stop offset="1" stop-color="#fff" stop-opacity="0"/></linearGradient><linearGradient id="paint5_linear" x1="205.817" y1="208.521" x2="340.061" y2="284.733" gradientUnits="userSpaceOnUse"><stop stop-color="#F7F7F7"/><stop offset="1" stop-color="#F2F2F2" stop-opacity=".75"/></linearGradient><linearGradient id="paint6_linear" x1="234.48" y1="303.415" x2="225.039" y2="214.317" gradientUnits="userSpaceOnUse"><stop stop-color="#EAEAEB"/><stop offset="1" stop-color="#fff" stop-opacity="0"/></linearGradient><linearGradient id="paint7_linear" x1="430.408" y1="258.759" x2="165.931" y2="384.909" gradientUnits="userSpaceOnUse"><stop stop-color="#F7F7F7"/><stop offset="1" stop-color="#F2F2F2" stop-opacity=".75"/></linearGradient><linearGradient id="paint8_linear" x1="360.869" y1="429.439" x2="391.788" y2="266.152" gradientUnits="userSpaceOnUse"><stop stop-color="#EAEAEB"/><stop offset="1" stop-color="#fff" stop-opacity="0"/></linearGradient><linearGradient id="paint9_linear" x1="325.513" y1="255.833" x2="364.49" y2="351.495" gradientUnits="userSpaceOnUse"><stop stop-color="#FCCC98"/><stop offset="1" stop-color="#fff" stop-opacity="0"/></linearGradient><linearGradient id="paint10_linear" x1="357.646" y1="237.682" x2="361.459" y2="264.859" gradientUnits="userSpaceOnUse"><stop stop-color="#FCCC98"/><stop offset="1" stop-color="#fff" stop-opacity="0"/></linearGradient><linearGradient id="paint11_linear" x1="503.646" y1="270.343" x2="-29.966" y2="627.852" gradientUnits="userSpaceOnUse"><stop stop-color="#F7F7F7"/><stop offset="1" stop-color="#F2F2F2" stop-opacity=".75"/></linearGradient><linearGradient id="paint12_linear" x1="378.806" y1="620.564" x2="408.423" y2="290.704" gradientUnits="userSpaceOnUse"><stop stop-color="#EAEAEB"/><stop offset="1" stop-color="#fff" stop-opacity="0"/></linearGradient><linearGradient id="paint13_linear" x1="607.123" y1="469.295" x2="637.008" y2="508.916" gradientUnits="userSpaceOnUse"><stop stop-color="#FCCC98"/><stop offset="1" stop-color="#fff" stop-opacity="0"/></linearGradient><linearGradient id="paint14_linear" x1="786.47" y1="439.282" x2="835.59" y2="432.191" gradientUnits="userSpaceOnUse"><stop stop-color="#FCCC98"/><stop offset="1" stop-color="#fff" stop-opacity="0"/></linearGradient><linearGradient id="paint15_linear" x1="631.638" y1="205.86" x2="729.231" y2="215.107" gradientUnits="userSpaceOnUse"><stop stop-color="#F7F7F7"/><stop offset="1" stop-color="#F2F2F2"/></linearGradient><linearGradient id="paint16_linear" x1="647.538" y1="521.264" x2="512.033" y2="307.832" gradientUnits="userSpaceOnUse"><stop stop-color="#EAEAEB"/><stop offset="1" stop-color="#fff" stop-opacity="0"/></linearGradient><linearGradient id="paint17_linear" x1="579.457" y1="213.879" x2="835.65" y2="300.896" gradientUnits="userSpaceOnUse"><stop stop-color="#F7F7F7"/><stop offset="1" stop-color="#F2F2F2"/></linearGradient><linearGradient id="paint18_linear" x1="625.597" y1="469.206" x2="583.968" y2="234.157" gradientUnits="userSpaceOnUse"><stop stop-color="#EAEAEB"/><stop offset="1" stop-color="#fff"/></linearGradient><linearGradient id="paint19_linear" x1="624.332" y1="133.054" x2="670.725" y2="157.959" gradientUnits="userSpaceOnUse"><stop stop-color="#FCCC98"/><stop offset="1" stop-color="#fff" stop-opacity="0"/></linearGradient><linearGradient id="paint20_linear" x1="513.32" y1="101.67" x2="604.964" y2="199.372" gradientUnits="userSpaceOnUse"><stop stop-color="#FCCC98"/><stop offset="1" stop-color="#fff" stop-opacity="0"/></linearGradient><linearGradient id="paint21_linear" x1="728.954" y1="101.637" x2="708.309" y2="149.18" gradientUnits="userSpaceOnUse"><stop stop-color="#fff"/><stop offset="1" stop-color="#fff" stop-opacity="0"/></linearGradient><linearGradient id="paint22_linear" x1="728.325" y1="100.06" x2="709.577" y2="143.235" gradientUnits="userSpaceOnUse"><stop stop-color="#fff"/><stop offset="1" stop-color="#fff" stop-opacity="0"/></linearGradient><linearGradient id="paint23_linear" x1="518.411" y1="101.06" x2="579.106" y2="147.102" gradientUnits="userSpaceOnUse"><stop stop-color="#FCCC98"/><stop offset="1" stop-color="#fff" stop-opacity="0"/></linearGradient><filter id="filter0_d" x="-65.678" y="126.553" width="346.272" height="314.619" filterUnits="userSpaceOnUse" color-interpolation-filters="sRGB"><feFlood flood-opacity="0" result="BackgroundImageFix"/><feColorMatrix in="SourceAlpha" values="0 0 0 0 0 0 0 0 0 0 0 0 0 0 0 0 0 0 127 0"/><feOffset dy="4"/><feGaussianBlur stdDeviation="50"/><feColorMatrix values="0 0 0 0 0.5 0 0 0 0 0.5 0 0 0 0 0.5 0 0 0 0.3 0"/><feBlend in2="BackgroundImageFix" result="effect1_dropShadow"/><feBlend in="SourceGraphic" in2="effect1_dropShadow" result="shape"/></filter><filter id="filter1_d" x="-154.868" y="176.897" width="418.053" height="377.705" filterUnits="userSpaceOnUse" color-interpolation-filters="sRGB"><feFlood flood-opacity="0" result="BackgroundImageFix"/><feColorMatrix in="SourceAlpha" values="0 0 0 0 0 0 0 0 0 0 0 0 0 0 0 0 0 0 127 0"/><feOffset dy="4"/><feGaussianBlur stdDeviation="50"/><feColorMatrix values="0 0 0 0 0.5 0 0 0 0 0.5 0 0 0 0 0.5 0 0 0 0.3 0"/><feBlend in2="BackgroundImageFix" result="effect1_dropShadow"/><feBlend in="SourceGraphic" in2="effect1_dropShadow" result="shape"/></filter><filter id="filter2_d" x="89.008" y="101.014" width="244.992" height="230" filterUnits="userSpaceOnUse" color-interpolation-filters="sRGB"><feFlood flood-opacity="0" result="BackgroundImageFix"/><feColorMatrix in="SourceAlpha" values="0 0 0 0 0 0 0 0 0 0 0 0 0 0 0 0 0 0 127 0"/><feOffset dy="4"/><feGaussianBlur stdDeviation="50"/><feColorMatrix values="0 0 0 0 0.5 0 0 0 0 0.5 0 0 0 0 0.5 0 0 0 0.3 0"/><feBlend in2="BackgroundImageFix" result="effect1_dropShadow"/><feBlend in="SourceGraphic" in2="effect1_dropShadow" result="shape"/></filter><filter id="filter3_d" x="67.016" y="125.648" width="387.669" height="272.948" filterUnits="userSpaceOnUse" color-interpolation-filters="sRGB"><feFlood flood-opacity="0" result="BackgroundImageFix"/><feColorMatrix in="SourceAlpha" values="0 0 0 0 0 0 0 0 0 0 0 0 0 0 0 0 0 0 127 0"/><feOffset dy="4"/><feGaussianBlur stdDeviation="50"/><feColorMatrix values="0 0 0 0 0.5 0 0 0 0 0.5 0 0 0 0 0.5 0 0 0 0.3 0"/><feBlend in2="BackgroundImageFix" result="effect1_dropShadow"/><feBlend in="SourceGraphic" in2="effect1_dropShadow" result="shape"/></filter><filter id="filter4_d" x="35.325" y="175.705" width="560.093" height="320.393" filterUnits="userSpaceOnUse" color-interpolation-filters="sRGB"><feFlood flood-opacity="0" result="BackgroundImageFix"/><feColorMatrix in="SourceAlpha" values="0 0 0 0 0 0 0 0 0 0 0 0 0 0 0 0 0 0 127 0"/><feOffset dy="4"/><feGaussianBlur stdDeviation="50"/><feColorMatrix values="0 0 0 0 0.5 0 0 0 0 0.5 0 0 0 0 0.5 0 0 0 0.3 0"/><feBlend in2="BackgroundImageFix" result="effect1_dropShadow"/><feBlend in="SourceGraphic" in2="effect1_dropShadow" result="shape"/></filter><filter id="filter5_d" x="-243" y="229.058" width="1006.91" height="458.587" filterUnits="userSpaceOnUse" color-interpolation-filters="sRGB"><feFlood flood-opacity="0" result="BackgroundImageFix"/><feColorMatrix in="SourceAlpha" values="0 0 0 0 0 0 0 0 0 0 0 0 0 0 0 0 0 0 127 0"/><feOffset dy="4"/><feGaussianBlur stdDeviation="50"/><feColorMatrix values="0 0 0 0 0.5 0 0 0 0 0.5 0 0 0 0 0.5 0 0 0 0.3 0"/><feBlend in2="BackgroundImageFix" result="effect1_dropShadow"/><feBlend in="SourceGraphic" in2="effect1_dropShadow" result="shape"/></filter><filter id="filter6_d" x="506.65" y="373.489" width="256.095" height="253.313" filterUnits="userSpaceOnUse" color-interpolation-filters="sRGB"><feFlood flood-opacity="0" result="BackgroundImageFix"/><feColorMatrix in="SourceAlpha" values="0 0 0 0 0 0 0 0 0 0 0 0 0 0 0 0 0 0 127 0"/><feOffset dy="4"/><feGaussianBlur stdDeviation="50"/><feColorMatrix values="0 0 0 0 0.5 0 0 0 0 0.5 0 0 0 0 0.5 0 0 0 0.3 0"/><feBlend in2="BackgroundImageFix" result="effect1_dropShadow"/><feBlend in="SourceGraphic" in2="effect1_dropShadow" result="shape"/></filter><filter id="filter7_d" x="692.06" y="315.197" width="265.034" height="244.258" filterUnits="userSpaceOnUse" color-interpolation-filters="sRGB"><feFlood flood-opacity="0" result="BackgroundImageFix"/><feColorMatrix in="SourceAlpha" values="0 0 0 0 0 0 0 0 0 0 0 0 0 0 0 0 0 0 127 0"/><feOffset dy="4"/><feGaussianBlur stdDeviation="50"/><feColorMatrix values="0 0 0 0 0.5 0 0 0 0 0.5 0 0 0 0 0.5 0 0 0 0.3 0"/><feBlend in2="BackgroundImageFix" result="effect1_dropShadow"/><feBlend in="SourceGraphic" in2="effect1_dropShadow" result="shape"/></filter><filter id="filter8_d" x="510.04" y="158.13" width="305.703" height="432.418" filterUnits="userSpaceOnUse" color-interpolation-filters="sRGB"><feFlood flood-opacity="0" result="BackgroundImageFix"/><feColorMatrix in="SourceAlpha" values="0 0 0 0 0 0 0 0 0 0 0 0 0 0 0 0 0 0 127 0"/><feOffset dy="4"/><feGaussianBlur stdDeviation="50"/><feColorMatrix values="0 0 0 0 0.5 0 0 0 0 0.5 0 0 0 0 0.5 0 0 0 0.3 0"/><feBlend in2="BackgroundImageFix" result="effect1_dropShadow"/><feBlend in="SourceGraphic" in2="effect1_dropShadow" result="shape"/></filter><filter id="filter9_d" x="418.191" y="156.766" width="497.234" height="388.227" filterUnits="userSpaceOnUse" color-interpolation-filters="sRGB"><feFlood flood-opacity="0" result="BackgroundImageFix"/><feColorMatrix in="SourceAlpha" values="0 0 0 0 0 0 0 0 0 0 0 0 0 0 0 0 0 0 127 0"/><feOffset dy="4"/><feGaussianBlur stdDeviation="50"/><feColorMatrix values="0 0 0 0 0.5 0 0 0 0 0.5 0 0 0 0 0.5 0 0 0 0.3 0"/><feBlend in2="BackgroundImageFix" result="effect1_dropShadow"/><feBlend in="SourceGraphic" in2="effect1_dropShadow" result="shape"/></filter><filter id="filter10_d" x="523.348" y="37.423" width="241.739" height="296.603" filterUnits="userSpaceOnUse" color-interpolation-filters="sRGB"><feFlood flood-opacity="0" result="BackgroundImageFix"/><feColorMatrix in="SourceAlpha" values="0 0 0 0 0 0 0 0 0 0 0 0 0 0 0 0 0 0 127 0"/><feOffset dy="4"/><feGaussianBlur stdDeviation="50"/><feColorMatrix values="0 0 0 0 0.5 0 0 0 0 0.5 0 0 0 0 0.5 0 0 0 0.3 0"/><feBlend in2="BackgroundImageFix" result="effect1_dropShadow"/><feBlend in="SourceGraphic" in2="effect1_dropShadow" result="shape"/></filter><filter id="filter11_d" x="414.397" y=".857" width="328.16" height="366.455" filterUnits="userSpaceOnUse" color-interpolation-filters="sRGB"><feFlood flood-opacity="0" result="BackgroundImageFix"/><feColorMatrix in="SourceAlpha" values="0 0 0 0 0 0 0 0 0 0 0 0 0 0 0 0 0 0 127 0"/><feOffset dy="4"/><feGaussianBlur stdDeviation="50"/><feColorMatrix values="0 0 0 0 0.5 0 0 0 0 0.5 0 0 0 0 0.5 0 0 0 0.3 0"/><feBlend in2="BackgroundImageFix" result="effect1_dropShadow"/><feBlend in="SourceGraphic" in2="effect1_dropShadow" result="shape"/></filter><filter id="filter12_d" x="417.825" y="1.114" width="264.473" height="314.791" filterUnits="userSpaceOnUse" color-interpolation-filters="sRGB"><feFlood flood-opacity="0" result="BackgroundImageFix"/><feColorMatrix in="SourceAlpha" values="0 0 0 0 0 0 0 0 0 0 0 0 0 0 0 0 0 0 127 0"/><feOffset dy="4"/><feGaussianBlur stdDeviation="50"/><feColorMatrix values="0 0 0 0 0.5 0 0 0 0 0.5 0 0 0 0 0.5 0 0 0 0.3 0"/><feBlend in2="BackgroundImageFix" result="effect1_dropShadow"/><feBlend in="SourceGraphic" in2="effect1_dropShadow" result="shape"/></filter></defs></svg>